<svg height="512" viewBox="0 0 512 512" width="512" xmlns="http://www.w3.org/2000/svg"><g id="Antique_Clock" data-name="Antique Clock"><path d="m96 8h320v464h-320z" fill="#f88f19"/><path d="m72 32s24 0 24-24h320s0 24 24 24v16h-368" fill="#fcaa40"/><path d="m72 48s24 0 24 24h320s0-24 24-24v-16h-368z" fill="#f88f19"/><path d="m96 72h56v400h-56z" fill="#fcaa40"/><path d="m96 72h16v400h-16z" fill="#ffc263"/><path d="m360 72h56v400h-56z" fill="#fcaa40"/><path d="m312 424h-112a32 32 0 0 0 -32-32v-272a32 32 0 0 0 32-32h112a32 32 0 0 0 32 32v272a32 32 0 0 0 -32 32z" fill="#f4791a"/><path d="m200 88a32 32 0 0 1 -32 32v272a32 32 0 0 1 32 32h16a32 32 0 0 0 -32-32v-272a32 32 0 0 0 32-32z" fill="#f06000"/><circle cx="264" cy="192" fill="#f06000" r="80"/><circle cx="256" cy="184" fill="#9fa0b3" r="80"/><path d="m180.833 211.167a80.0892 80.0892 0 0 0 48 48l102.334-102.334a80.088 80.088 0 0 0 -48-48z" fill="#cbccd6"/><path d="m208 184c0-48 48-64 48-64h-47.854a80.32986 80.32986 0 0 0 -16.146 16.14551v95.70849a80.33228 80.33228 0 0 0 16.146 16.146h47.854s-48-16-48-64z" fill="#7c7d98"/><path d="m245.06885 242.93115c-14.16406-7.88867-37.06885-25.76465-37.06885-58.93115l-16 16v31.854a80.33228 80.33228 0 0 0 16.146 16.146h31.854z" fill="#9fa0b3"/><path d="m256 264a80 80 0 1 1 80-80 80.09417 80.09417 0 0 1 -80 80zm0-144a64 64 0 1 0 64 64 64.07333 64.07333 0 0 0 -64-64z" fill="#fcaa40"/><path d="m261.917 120.2998c-3.67872-.29296-5.917-.2998-5.917-.2998 1.99707 0 3.96582.11963 5.917.2998z" fill="#ffc263"/><path d="m256 248s2.23828-.00684 5.917-.2998c-1.95118.18017-3.91993.2998-5.917.2998z" fill="#ffc263"/><path d="m256 248s2.23828-.00684 5.917-.2998c-1.95118.18017-3.91993.2998-5.917.2998z" fill="#7c7d98"/><path d="m261.917 120.2998c-3.67872-.29296-5.917-.2998-5.917-.2998 1.99707 0 3.96582.11963 5.917.2998z" fill="#7c7d98"/><path d="m256 224a40 40 0 1 1 40-40 40.04708 40.04708 0 0 1 -40 40zm0-72a32 32 0 1 0 32 32 32.03164 32.03164 0 0 0 -32-32z" fill="#fcaa40"/><path d="m256 280h-72v96s32 0 32 32h80c0-32 32-32 32-32v-96z" fill="#9fa0b3"/><path d="m256 280-72 72v24s32 0 32 32h16l96-96v-32z" fill="#cbccd6"/><path d="m216 408c0-32-32-32-32-32v-96h16v96s32 0 32 32" fill="#7c7d98"/><path d="m248 280h16v48h-16z" fill="#f88f19"/><circle cx="264" cy="360" fill="#7c7d98" r="32"/><circle cx="256" cy="352" fill="#f88f19" r="32"/><ellipse cx="244" cy="340" fill="#ffc263" rx="14.183" ry="9.316" transform="matrix(.707 -.707 .707 .707 -168.95 272.118)"/><path d="m271.71582 324.28369v.00049a31.66122 31.66122 0 0 1 4.28418 15.71582 32 32 0 0 1 -32 32 31.66122 31.66122 0 0 1 -15.71582-4.28418 31.89974 31.89974 0 1 0 43.43164-43.43213z" fill="#f4791a"/><path d="m288 152-32 48h-16v-16z" fill="#2e305e"/><path d="m296 224-56-40v-16h16z" fill="#525479"/><circle cx="256" cy="184" fill="#cbccd6" r="8"/><path d="m72 32h368v16h-368z" fill="#ffc263"/><path d="m72 464s24 0 24-24h320s0 24 24 24v16h-368" fill="#fcaa40"/><path d="m72 480s24 0 24 24h320s0-24 24-24v-16h-368z" fill="#f88f19"/><path d="m72 464h368v16h-368z" fill="#ffc263"/><path d="m80 72h72v80h-72z" fill="#ffc263"/><path d="m360 72h72v80h-72z" fill="#ffc263"/><path d="m408 72h24v80h-24z" fill="#fcaa40"/><path d="m80 360h72v80h-72z" fill="#ffc263"/><path d="m128 72h24v80h-24z" fill="#fcaa40"/><path d="m128 360h24v80h-24z" fill="#fcaa40"/><path d="m360 360h72v80h-72z" fill="#ffc263"/><path d="m408 360h24v80h-24z" fill="#fcaa40"/><path d="m265.32812 120.75879a63.91279 63.91279 0 0 1 0 126.48242c19.42088-2.49021 62.67188-13.57221 62.67188-63.24121s-43.251-60.751-62.67188-63.24121z" fill="#ffc263"/><path d="m256 248s1.56738-.02246 4.05762-.20557c-1.34862.08496-2.68799.20557-4.05762.20557z" fill="#ffc263"/><path d="m260.05762 120.20557c-2.49024-.18311-4.05762-.20557-4.05762-.20557 1.36963 0 2.709.12061 4.05762.20557z" fill="#ffc263"/><path d="m96 72v80s16-13.33333 16-40-16-40-16-40z" fill="#fcaa40"/><path d="m128 72v80s16-13.33333 16-40-16-40-16-40z" fill="#f88f19"/><path d="m96 360v80s16-13.33333 16-40-16-40-16-40z" fill="#fcaa40"/><path d="m128 360v80s16-13.33333 16-40-16-40-16-40z" fill="#f88f19"/><path d="m376 360v80s16-13.33333 16-40-16-40-16-40z" fill="#fcaa40"/><path d="m408 360v80s16-13.33333 16-40-16-40-16-40z" fill="#f88f19"/><path d="m376 72v80s16-13.33333 16-40-16-40-16-40z" fill="#fcaa40"/><path d="m408 72v80s16-13.33333 16-40-16-40-16-40z" fill="#f88f19"/><g fill="#f4791a"><path d="m152 72s16 48 16 184-16 184-16 184z"/><path d="m96 152 56 24v-24z"/><path d="m360 152 56 24v-24z"/><path d="m400 152h16v208h-16z"/></g><path d="m200 376v-40l-16 16v24s32 0 32 32h16c0-32-32-32-32-32z" fill="#9fa0b3"/><path d="m256 280h-8v8s8 0 8 8v16c0 8 8 8 8 8v-40z" fill="#f06000"/><path d="m152 440s24 16 104 16 104-16 104-16z" fill="#ffc263"/><path d="m96 8s24 16 160 16 160-16 160-16z" fill="#ffc263"/><path d="m96 480s24 16 160 16 160-16 160-16z" fill="#f4791a"/><path d="m96 48s24 16 160 16 160-16 160-16z" fill="#f4791a"/></g></svg>