<svg height="512" viewBox="0 0 512 512" width="512" xmlns="http://www.w3.org/2000/svg"><g id="Arm_Chair" data-name="Arm Chair"><path d="m392.00391 8h-.00049a31.99628 31.99628 0 0 0 -31.9961 31.99512v.00488l-.00732.20508v-.20508a31.99971 31.99971 0 0 0 -32-32h-144a31.99971 31.99971 0 0 0 -32 32v.06836l-.00732-.06836v-.00488a31.99628 31.99628 0 0 0 -31.9961-31.99512h-.00049a31.99617 31.99617 0 0 0 -31.99609 31.99609v.00391c0 96 48 224 48 224h16v104h208v-104h16s48-128 48-224v-.00391a31.99617 31.99617 0 0 0 -31.99609-31.99609z" fill="#0c2b69"/><path d="m152.25342 37.48535c.7539-4.50435 3.7583-13.48535 15.74658-13.48535h176c11.98828 0 14.99268 8.981 15.74658 13.48535a31.89726 31.89726 0 0 0 -31.74658-29.48535h-144a31.89726 31.89726 0 0 0 -31.74658 29.48535z" fill="#284881"/><path d="m112 368v136h24l15.3887-80.66436a8 8 0 0 1 7.97236-7.33564h193.27788a8 8 0 0 1 7.97236 7.33564l15.3887 80.66436h24v-136z" fill="#f88f19"/><path d="m152 368h-40v136h16s8-104 8-120 16-16 16-16z" fill="#ffc263"/><path d="m184 368s-16 0-16 16v16s0 16 16 16h144s16 0 16-16v-16s0-16-16-16z" fill="#ffc263"/><path d="m352.63916 416a7.99971 7.99971 0 0 1 7.97217 7.33545l15.38867 80.66455s-8-56-8-72-15.36084-16-15.36084-16z" fill="#ffc263"/><path d="m119.23193 8.07715a31.95328 31.95328 0 0 0 -31.23193 31.91894v.00391c0 96 48 224 48 224-16-80-32-192-32-224 0-27.80469 12.06543-31.44482 15.23193-31.92285z" fill="#4e6a9b"/><path d="m392.76807 8.07715a31.95328 31.95328 0 0 1 31.23193 31.91894v.00391c0 96-48 224-48 224 16-80 32-192 32-224 0-27.80469-12.06543-31.44482-15.23193-31.92285z" fill="#4e6a9b"/><path d="m112 368a26.51966 26.51966 0 0 1 -26.388-23.88087l-13.612-136.11995a31.99915 31.99915 0 0 1 31.99915-31.99918h.00008a52.56243 52.56243 0 0 1 52.34656 47.80364l3.65421 40.19636h192l3.65421-40.19636a52.56243 52.56243 0 0 1 52.34656-47.80364h.00008a31.99915 31.99915 0 0 1 31.99915 31.99915l-13.61193 136.12a26.51966 26.51966 0 0 1 -26.38807 23.88085z" fill="#0c2b69"/><g fill="#284881"><rect height="64" rx="16" width="288" x="112" y="264"/><path d="m136 248h22.54541l-2.19971-24.19629a52.562 52.562 0 0 0 -52.3467-47.80371s32.001 0 32.001 72z"/><path d="m375.999 248h-22.54539l2.19971-24.19629a52.562 52.562 0 0 1 52.34668-47.80371s-32.001 0-32.001 72z"/></g><path d="m128 264s32 24 128 24 128-24 128-24z" fill="#7a93bb"/><path d="m176 32s16 32 16 96-16 88-16 88h160s-16-24-16-88 16-96 16-96-32 16-80 16-80-16-80-16z" fill="#284881"/><path d="m184 16a330.10008 330.10008 0 0 0 72 8 330.10008 330.10008 0 0 0 72-8s-24-8-72-8-72 8-72 8z" fill="#95adcf"/><path d="m184 120h144s-30.85714 8-72 8-72-8-72-8z" fill="#4e6a9b"/></g></svg>