<svg id="Bar_Chair" height="512" viewBox="0 0 512 512" width="512" xmlns="http://www.w3.org/2000/svg" data-name="Bar Chair"><g fill="#7c7d98"><path d="m400 352a7.9954 7.9954 0 0 1 -8-8c0-10.85938-48-32-136-32s-136 21.14062-136 32a8 8 0 0 1 -16 0c0-31.51563 76.46875-48 152-48s152 16.48437 152 48a7.9954 7.9954 0 0 1 -8 8z"/><path d="m104.19971 342.69482c1.56201-6.83982 16.10791-38.69482 151.80029-38.69482 135.67041 0 150.23389 31.84473 151.7998 38.69141-2.1348-30.64356-77.3457-46.69141-151.7998-46.69141-74.45654 0-149.6709 16.0498-151.80029 46.69482z"/><path d="m208 144h-32l-104 360h16z"/></g><path d="m165.1416 181.58643-93.1416 322.41357 112-328s-6.30566.02734-18.8584 5.58643z" fill="#cbccd6"/><path d="m113.57617 360.083-.9375 3.24463c1.24121 4.09619 4.95947 11.44531 15.91016 19.02539l7.0376-21.11182z" fill="#2e305e"/><path d="m304 144h32l104 360h-16z" fill="#7c7d98"/><path d="m315.84814 179.54443 108.15186 324.45557-96-328a28.63584 28.63584 0 0 0 -12.15186 3.54443z" fill="#9fa0b3"/><path d="m397.32275 356.271-19.91113 7.96435 6.28174 18.84522a52.37155 52.37155 0 0 0 19.08545-7.92237v-.00049z" fill="#2e305e"/><path d="m400 128c0-72-8-88-8-88s0-8-16-16c-17.04982-8.52491-64-16-120-16s-102.95018 7.47509-120 16c-16 8-16 16-16 16s-8 16-8 88z" fill="#0c2b69"/><path d="m376 24c-17.0498-8.5249-64-16-120-16s-102.9502 7.4751-120 16c-16 8-16 16-16 16s-8 16-8 88c0-80 16-88 16-88s24-16 128-16 128 16 128 16 16 8 16 88c0-72-8-88-8-88s0-8-16-16z" fill="#4e6a9b"/><path d="m160 24h192s-24-16-96-16-96 16-96 16z" fill="#7a93bb"/><path d="m416 128c-24-8-160-8-160-8s-128 0-152 8c-15.17871 5.05957-16 16-16 16s40 16 168 16 176-16 176-16-.82129-10.94043-16-16z" fill="#284881"/><path d="m256 392c-75.53125 0-152-16.48438-152-48a8 8 0 0 1 16 0c0 10.85937 48 32 136 32s136-21.14063 136-32a8 8 0 0 1 16 0c0 31.51562-76.46875 48-152 48z" fill="#7c7d98"/><path d="m128 112s0-32 8-64c0 0 24 16 24 40 0 16-32 24-32 24z" fill="#284881"/><path d="m382.65835 112s0-32-8-64c0 0-24 16-24 40 0 16 32 24 32 24z" fill="#284881"/><path d="m256 384c136 0 136-40 136-40 0 10.85937-48 32-136 32s-136-21.14063-136-32c0 0 0 40 136 40z" fill="#9fa0b3"/><path d="m416 128c-24-8-160-8-160-8s-128 0-152 8c0 0 16 8 152 8s160-8 160-8z" fill="#7a93bb"/></svg>