<svg height="512" viewBox="0 0 512 512" width="512" xmlns="http://www.w3.org/2000/svg"><path d="m440 416s1.28125-15.08984-16-16v-24h-336v24c-17.28125.91016-16 16-16 16s-16 .248-16 16v8h400v-8c0-15.75195-16-16-16-16z" fill="#9fa0b3"/><path d="m440 416h-80s24 0 24 24h72v-8c0-15.75195-16-16-16-16z" fill="#525479"/><path d="m72 416h80s-24 0-24 24h-72v-8c0-15.75195 16-16 16-16z" fill="#cbccd6"/><path d="m488 200h-464v16c0 119.999 48 167.99951 64 167.99951v16.00049c47.24645.00013 336 0 336 0v-16.00049c16 0 64-48.00049 64-167.99951z" fill="#7c7d98"/><path d="m256 72a16 16 0 0 1 16 16v72a0 0 0 0 1 0 0h-32a0 0 0 0 1 0 0v-72a16 16 0 0 1 16-16z" fill="#fcaa40"/><path d="m200 136h16v24h-16z" fill="#f4791a"/><path d="m296 136h16v24h-16z" fill="#f4791a"/><path d="m320 152h-128a16 16 0 0 0 -16 16v24h16v-24h128v24h16v-24a16 16 0 0 0 -16-16z" fill="#f88f19"/><g fill="#ffc263"><path d="m184 144h48v-8s-8-8-24-8-24 8-24 8z"/><path d="m280 144h48v-8s-8-8-24-8-24 8-24 8z"/><path d="m232 104h48v-16s-8-8-24-8-24 8-24 8z"/></g><path d="m264 88v16h16v-16s-7.873-7.82227-23.56592-7.97363c1.63623.13037 7.56592 1.07324 7.56592 7.97363z" fill="#fcaa40"/><path d="m240 104 16 8v40h16v-48z" fill="#f06000"/><path d="m312 144h16v-8s-8-8-24-8c0 0 8 8 8 16z" fill="#f88f19"/><path d="m216 144h16v-8s-8-8-24-8c0 0 8 8 8 16z" fill="#f88f19"/><path d="m192 152s16 16 64 16 64-16 64-16z" fill="#f06000"/><path d="m320 168s16 8 16 16h-16z" fill="#f06000"/><path d="m40 184h432a32 32 0 0 1 32 32 0 0 0 0 1 0 0h-496a0 0 0 0 1 0 0 32 32 0 0 1 32-32z" fill="#9fa0b3"/><path d="m88 383.99951v.00049h80c-72 0-72-168-72-168h-72c0 119.999 48 167.99951 64 167.99951z" fill="#9fa0b3"/><path d="m424 383.99951v.00049h-80c72 0 72-168 72-168h72c0 119.999-48 167.99951-64 167.99951z" fill="#525479"/><path d="m152 184h-112a31.99971 31.99971 0 0 0 -32 32h104s0-32 40-32z" fill="#cbccd6"/><path d="m344 384h80v16h-80z" fill="#525479"/><path d="m88 384h80v16h-80z" fill="#9fa0b3"/><path d="m72 414.94434v1.05566h80s0-16 16-16h-80c-14.61279.76953-15.93457 11.59375-16 14.94434z" fill="#cbccd6"/><path d="m440 414.94434v1.05566h-80s0-16-16-16h80c14.61279.76953 15.93457 11.59375 16 14.94434z" fill="#525479"/><path d="m72 416s56 16 184 16 184-16 184-16z" fill="#cbccd6"/><path d="m40 216s40 24 216 24 216-24 216-24z" fill="#525479"/></svg>