<svg height="512" viewBox="0 0 512 512" width="512" xmlns="http://www.w3.org/2000/svg"><g id="Bed_with_Canopy" data-name="Bed with Canopy"><path d="m57.475 64h398.525v16h-398.525z" fill="#f88f19"/><path d="m440 64v16c-2.31252 16.81256-8 47.63376-8 96s5.68748 79.18744 8 96v48s-8 56-8 88v22.9959h32v-22.9959c0-32-8-88.00394-8-88.00394v-48.002c2.0727-17.89866 8-54.48059 8-95.99407 0-48.36624-5.68748-79.191-8-96.00361v-15.99638z" fill="#f4791a"/><path d="m72 192v16s16 0 16 16v96h336v-96c0-16 16-16 16-16v-16c-112 0-112-32-184-32s-80 32-184 32z" fill="#fcaa40"/><path d="m256 160a184.01661 184.01661 0 0 0 -55.79346 8.06689 196.30308 196.30308 0 0 0 55.79346 7.93311 199.17777 199.17777 0 0 0 54.9209-7.66064c-14.84668-4.75879-30.8599-8.33936-54.9209-8.33936z" fill="#ffc263"/><path d="m408 208s16 16 16 48-16 48-16 48z" fill="#ffc263"/><path d="m104 208v-16h40c40 0 72-16 112-16v32z" fill="#f4791a"/><path d="m88 224s8-8 8-16c0-16-16-16-16-16h-8v16s16 0 16 16z" fill="#f4791a"/><path d="m72 271.99414c2.07275-17.89893 8-54.481 8-95.99414 0-48.36621-5.6875-79.19141-8-96.00391v-15.99609s0-8 8-8c0 0-.00879-16-16-16-15.99072 0-16 16-16 16s8 0 8 8v16c-2.3125 16.8125-8 47.63379-8 96s5.6875 79.1875 8 96v48s-8 56-8 88v22.99561h32v-22.99561c0-32-8-88.00391-8-88.00391z" fill="#fcaa40"/><path d="m64 168c0-64-8-88-8-88-2.3125 16.8125-8 47.63379-8 96s5.6875 79.1875 8 96c0 0 8-40 8-104z" fill="#ffc263"/><path d="m256 176c-40 0-96 32-152 32v88h304v-88c-56 0-112-32-152-32z" fill="#525479"/><path d="m256 176c-40 0-96 32-152 32v88h16v-72c40 0 96-48 136-48z" fill="#2e305e"/><path d="m400 224s8 0 8-8-8-8-8-8-8 0-8 8c0 0-16-8-56-8s-56 8-56 8c0-8-8-8-8-8s-8 0-8 8 8 8 8 8-8 16-8 32 8 32 8 32-8 0-8 8 8 8 8 8 8 0 8-8c0 0 16 8 56 8s56-8 56-8c0 8 8 8 8 8s8 0 8-8-8-8-8-8 8-16 8-32-8-32-8-32z" fill="#6d86d6"/><path d="m400 288s.64111-1.3208 1.53076-3.44189c-10.05371-4.70069-31.86426-12.55811-65.53076-12.55811s-55.47705 7.85742-65.53076 12.55811c.88965 2.12109 1.53076 3.44189 1.53076 3.44189s-8 0-8 8 8 8 8 8 8 0 8-8c0 0 16 8 56 8s56-8 56-8c0 8 8 8 8 8s8 0 8-8-8-8-8-8z" fill="#4260c9"/><path d="m408 216c0-8-8-8-8-8s-8 0-8 8c0 0-16-8-56-8s-56 8-56 8c0-8-8-8-8-8s-8 0-8 8 8 8 8 8-8 16-8 32a54.50568 54.50568 0 0 0 .41943 6.45264c2.22364-7.27735 15.04004-38.45264 71.58057-38.45264s69.35693 31.17529 71.58057 38.45264a54.50568 54.50568 0 0 0 .41943-6.45264c0-16-8-32-8-32s8 0 8-8z" fill="#97a8e2"/><path d="m280 216s16-8 56-8 56 8 56 8-16 8-56 8-56-8-56-8z" fill="#b7c3eb"/><path d="m240 224s8 0 8-8-8-8-8-8-8 0-8 8c0 0-16-8-56-8s-56 8-56 8c0-8-8-8-8-8s-8 0-8 8 8 8 8 8-8 16-8 32 8 32 8 32-8 0-8 8 8 8 8 8 8 0 8-8c0 0 16 8 56 8s56-8 56-8c0 8 8 8 8 8s8 0 8-8-8-8-8-8 8-16 8-32-8-32-8-32z" fill="#6d86d6"/><path d="m240 288s.64111-1.3208 1.53076-3.44189c-10.05371-4.70069-31.86426-12.55811-65.53076-12.55811s-55.477 7.85742-65.53076 12.55811c.88965 2.12109 1.53076 3.44189 1.53076 3.44189s-8 0-8 8 8 8 8 8 8 0 8-8c0 0 16 8 56 8s56-8 56-8c0 8 8 8 8 8s8 0 8-8-8-8-8-8z" fill="#4260c9"/><path d="m248 216c0-8-8-8-8-8s-8 0-8 8c0 0-16-8-56-8s-56 8-56 8c0-8-8-8-8-8s-8 0-8 8 8 8 8 8-8 16-8 32a54.50568 54.50568 0 0 0 .41943 6.45264c2.22364-7.27735 15.04004-38.45264 71.58057-38.45264s69.35693 31.17529 71.58057 38.45264a54.50568 54.50568 0 0 0 .41943-6.45264c0-16-8-32-8-32s8 0 8-8z" fill="#97a8e2"/><path d="m120 216s16-8 56-8 56 8 56 8-16 8-56 8-56-8-56-8z" fill="#b7c3eb"/><path d="m448 322.20319a31.92024 31.92024 0 0 0 -26.7572-31.57047c-28.82112-4.64888-82.07235-10.63272-165.2428-10.63272s-136.42168 5.98384-165.2428 10.63272a31.92024 31.92024 0 0 0 -26.7572 31.57047v37.79681h384z" fill="#97a8e2"/><path d="m256 296c97.34473 0 140.25488-6.03809 149.8291-7.61914-30.87353-4.12305-79.66894-8.38086-149.8291-8.38086s-118.95557 4.25781-149.8291 8.38086c9.57519 1.58105 52.48486 7.61914 149.8291 7.61914z" fill="#b7c3eb"/><path d="m72 352s88-16 184-16 192 16 192 16z" fill="#6d86d6"/><path d="m72 352h376v80h-376z" fill="#f4791a"/><path d="m72 320v-8a8 8 0 0 1 8-8h8s0-16-16-16h-16s-16 0-16 16h8a8 8 0 0 1 8 8v8z" fill="#fcaa40"/><path d="m56 440v8c0 8-8 8-8 8h-8s.00849 16 16 16h16c15.99156 0 16-16 16-16h-8c-8-.0085-8-8-8-8v-8z" fill="#f4791a"/><path d="m72 448h-8v8s8 0 8 8-8 8-8 8h8c15.9917 0 16-16 16-16h-8c-8-.00879-8-8-8-8z" fill="#f06000"/><rect fill="#fcaa40" height="136" rx="16" width="48" x="40" y="312"/><path d="m64 312c-8 0-8 8-8 8v120s0 8 8 8h-8a16 16 0 0 1 -16-16v-104a16 16 0 0 1 16-16z" fill="#ffc263"/><path d="m64 304s-8 0-8-8 8-8 8-8h-8s-16 0-16 16z" fill="#ffc263"/><path d="m456 320v-8a8 8 0 0 1 8-8h8s0-16-16-16h-16s-16 0-16 16h8a8 8 0 0 1 8 8v8z" fill="#fcaa40"/><path d="m440 440v8c0 8-8 8-8 8h-8s.00849 16 16 16h16c15.99156 0 16-16 16-16h-8c-8-.0085-8-8-8-8v-8z" fill="#f4791a"/><rect fill="#fcaa40" height="136" rx="16" width="48" x="424" y="312"/><path d="m448 312c8 0 8 8 8 8v120s0 8-8 8h8a16 16 0 0 0 16-16v-104a16 16 0 0 0 -16-16z" fill="#f4791a"/><path d="m448 40c-15.99072 0-16 16-16 16s8 0 8 8v8h16v-8s0-8 8-8c0 0-.00879-16-16-16z" fill="#f4791a"/><path d="m72 448h-8v8s8 0 8 8-8 8-8 8h8c15.9917 0 16-16 16-16h-8c-8-.00879-8-8-8-8z" fill="#f06000"/><path d="m456 448h-8v8s8 0 8 8-8 8-8 8h8c15.9917 0 16-16 16-16h-8c-8-.00879-8-8-8-8z" fill="#f06000"/><path d="m256 368c-40 0-80 16-152 16v32h304v-32c-72 0-112-16-152-16z" fill="#fcaa40"/><path d="m88 352s16 16 16 40-16 40-16 40z" fill="#f06000"/><path d="m80 304h-8c-8 0-8 8-8 8h8a8.00008 8.00008 0 0 1 8-8z" fill="#f06000"/><path d="m104 384s16 0 16 16-16 16-16 16z" fill="#ffc263"/><path d="m408 384s16 0 16 16-16 16-16 16z" fill="#f06000"/><path d="m88 352s40 16 168 16 168-16 168-16z" fill="#f88f19"/><path d="m256 368c-40 0-80 16-152 16v16c64 0 96-32 152-32s88 32 152 32v-16c-72 0-112-16-152-16z" fill="#ffc263"/><path d="m72 64v15.99609s15.99609 0 15.99805-15.998z" fill="#f4791a"/><path d="m71.99805 41.92969a16.39824 16.39824 0 0 0 -7.99805-1.92969c-15.99072 0-16 16-16 16h16s.12988-9.87012 7.99805-14.07031z" fill="#ffc263"/><path d="m456 41.92969a16.39824 16.39824 0 0 0 -7.998-1.92969c-15.99072 0-16 16-16 16h16s.12984-9.87012 7.998-14.07031z" fill="#ffc263"/><path d="m72 64s32 16 184 16 184-16 184-16z" fill="#fcaa40"/><path d="m456 288h-8s8 0 8 8-8 8-8 8-8 0-8 8h16a8.00008 8.00008 0 0 1 8-8h8s0-16-16-16z" fill="#f4791a"/><path d="m448 168c0-64-8-88-8-88-2.3125 16.8125-8 47.63379-8 96s5.6875 79.1875 8 96c0 0 8-40 8-104z" fill="#ffc263"/></g></svg>