<svg height="512" viewBox="0 0 512 512" width="512" xmlns="http://www.w3.org/2000/svg"><path d="m96 72h320a32 32 0 0 1 32 32v152a0 0 0 0 1 0 0h-384a0 0 0 0 1 0 0v-152a32 32 0 0 1 32-32z" fill="#525479"/><path d="m416 72h-320a31.99971 31.99971 0 0 0 -32 32v8q0-24 24-24h336q24 0 24 24v-8a31.99971 31.99971 0 0 0 -32-32z" fill="#7c7d98"/><path d="m88 96h336v112h-336z" fill="#2e305e"/><rect fill="#7c7d98" height="112" rx="16" width="112" x="88" y="96"/><path d="m197.78076 104a15.93162 15.93162 0 0 0 -13.78076-8h-80a15.99985 15.99985 0 0 0 -16 16v80a16.00016 16.00016 0 0 0 16 16h2.21924a15.83551 15.83551 0 0 1 -2.21924-8v-80a15.99985 15.99985 0 0 1 16-16h64s16 0 16 16v-8a15.83689 15.83689 0 0 0 -2.21924-8z" fill="#9fa0b3"/><path d="m128 136s8 8 16 8 16-8 16-8-8 8-8 16 8 16 8 16-8-8-16-8-16 8-16 8 8-8 8-16-8-16-8-16z" fill="#2e305e"/><path d="m88 112s16 16 16 40-16 40-16 40z" fill="#cbccd6"/><path d="m128 136v32s8-8 8-16-8-16-8-16z" fill="#cbccd6"/><rect fill="#7c7d98" height="112" rx="16" width="112" x="200" y="96"/><path d="m240 136v32s8-8 8-16-8-16-8-16z" fill="#cbccd6"/><path d="m309.78076 104a15.93162 15.93162 0 0 0 -13.78076-8h-80a15.99985 15.99985 0 0 0 -16 16v80a16.00016 16.00016 0 0 0 16 16h2.21924a15.83551 15.83551 0 0 1 -2.21924-8v-80a15.99985 15.99985 0 0 1 16-16h64s16 0 16 16v-8a15.83689 15.83689 0 0 0 -2.21924-8z" fill="#9fa0b3"/><path d="m200 112s16 16 16 40-16 40-16 40z" fill="#cbccd6"/><path d="m240 136s8 8 16 8 16-8 16-8-8 8-8 16 8 16 8 16-8-8-16-8-16 8-16 8 8-8 8-16-8-16-8-16z" fill="#2e305e"/><rect fill="#7c7d98" height="112" rx="16" width="112" x="312" y="96"/><path d="m352 136v32s8-8 8-16-8-16-8-16z" fill="#cbccd6"/><path d="m421.78076 104a15.93162 15.93162 0 0 0 -13.78076-8h-80a15.99985 15.99985 0 0 0 -16 16v80a16.00016 16.00016 0 0 0 16 16h2.21924a15.83551 15.83551 0 0 1 -2.21924-8v-80a15.99985 15.99985 0 0 1 16-16h64s16 0 16 16v-8a15.83689 15.83689 0 0 0 -2.21924-8z" fill="#9fa0b3"/><path d="m312 112s16 16 16 40-16 40-16 40z" fill="#cbccd6"/><path d="m352 136s8 8 16 8 16-8 16-8-8 8-8 16 8 16 8 16-8-8-16-8-16 8-16 8 8-8 8-16-8-16-8-16z" fill="#2e305e"/><path d="m32 408h448v32h-448z" fill="#7c7d98"/><path d="m480 408h-88s16 0 16 16-16 16-16 16h88z" fill="#525479"/><path d="m493.58691 327.99072a16.0184 16.0184 0 0 0 -13.86718-7.99072h-447.43946a16.0184 16.0184 0 0 0 -13.86718 7.99072 82.06858 82.06858 0 0 0 0 80.01856 16.01943 16.01943 0 0 0 13.86718 7.99072h447.43946a16.01943 16.01943 0 0 0 13.86718-7.99072 82.06858 82.06858 0 0 0 0-80.01856z" fill="#9fa0b3"/><path d="m479.71973 320a16.0184 16.0184 0 0 1 13.86718 7.99072 82.06858 82.06858 0 0 1 0 80.01856 16.01943 16.01943 0 0 1 -13.86718 7.99072h-64a16.01943 16.01943 0 0 0 13.86718-7.99072 82.06858 82.06858 0 0 0 0-80.01856 16.0184 16.0184 0 0 0 -13.86718-7.99072z" fill="#7c7d98"/><path d="m32.28027 320a16.0184 16.0184 0 0 0 -13.86718 7.99072 82.06858 82.06858 0 0 0 0 80.01856 16.01943 16.01943 0 0 0 13.86718 7.99072h64a16.01943 16.01943 0 0 1 -13.86718-7.99072 82.06858 82.06858 0 0 1 0-80.01856 16.0184 16.0184 0 0 1 13.86718-7.99072z" fill="#cbccd6"/><path d="m240 168s8 0 8-8-8-8-8-8-8 0-8 8c0 0-24-8-64-8s-64 8-64 8c0-8-8-8-8-8s-8 0-8 8 8 8 8 8-8 16-8 32 8 32 8 32-8 0-8 8 8 8 8 8 8 0 8-8c0 0 24 8 64 8s64-8 64-8c0 8 8 8 8 8s8 0 8-8-8-8-8-8 8-16 8-32-8-32-8-32z" fill="#cd2738"/><path d="m245.89648 245.57227c-6.85302-7.40821-31.23148-29.57227-77.89648-29.57227s-71.04346 22.16406-77.89648 29.57227a9.42768 9.42768 0 0 0 5.89648 2.42773s8 0 8-8c0 0 24 8 64 8s64-8 64-8c0 8 8 8 8 8a9.42768 9.42768 0 0 0 5.89648-2.42773z" fill="#b40011"/><path d="m248 160c0-8-8-8-8-8s-8 0-8 8c0 0-24-8-64-8s-64 8-64 8c0-8-8-8-8-8s-8 0-8 8 8 8 8 8-8 16-8 32a54.59713 54.59713 0 0 0 .42432 6.4834c2.28515-7.2085 15.85986-38.4834 79.57568-38.4834s77.29053 31.2749 79.57568 38.4834a54.59713 54.59713 0 0 0 .42432-6.4834c0-16-8-32-8-32s8 0 8-8z" fill="#e76b7e"/><path d="m112 160s16 8 56 8 56-8 56-8-16-8-56-8-56 8-56 8z" fill="#f59caa"/><path d="m416 168s8 0 8-8-8-8-8-8-8 0-8 8c0 0-24-8-64-8s-64 8-64 8c0-8-8-8-8-8s-8 0-8 8 8 8 8 8-8 16-8 32 8 32 8 32-8 0-8 8 8 8 8 8 8 0 8-8c0 0 24 8 64 8s64-8 64-8c0 8 8 8 8 8s8 0 8-8-8-8-8-8 8-16 8-32-8-32-8-32z" fill="#cd2738"/><path d="m421.89648 245.57227c-6.85302-7.40821-31.23148-29.57227-77.89648-29.57227s-71.04346 22.16406-77.89648 29.57227a9.42768 9.42768 0 0 0 5.89648 2.42773s8 0 8-8c0 0 24 8 64 8s64-8 64-8c0 8 8 8 8 8a9.42768 9.42768 0 0 0 5.89648-2.42773z" fill="#b40011"/><path d="m424 160c0-8-8-8-8-8s-8 0-8 8c0 0-24-8-64-8s-64 8-64 8c0-8-8-8-8-8s-8 0-8 8 8 8 8 8-8 16-8 32a54.59713 54.59713 0 0 0 .42432 6.4834c2.28515-7.2085 15.85986-38.4834 79.57568-38.4834s77.29053 31.2749 79.57568 38.4834a54.59713 54.59713 0 0 0 .42432-6.4834c0-16-8-32-8-32s8 0 8-8z" fill="#e76b7e"/><path d="m288 160s16 8 56 8 56-8 56-8-16-8-56-8-56 8-56 8z" fill="#f59caa"/><path d="m48 320v-42.51036a31.87592 31.87592 0 0 1 21.73493-30.32c28.46307-9.47175 86.81723-23.16964 186.26507-23.16964s157.802 13.69789 186.26507 23.16964a31.87592 31.87592 0 0 1 21.73493 30.32v42.51036" fill="#d94556"/><path d="m18.41309 327.99072a79.31794 79.31794 0 0 0 -10.38379 39.25244c.22119-4.63916 2.75341-31.24316 31.9707-31.24316h432c29.21729 0 31.74951 26.604 31.9707 31.24316a79.31794 79.31794 0 0 0 -10.38379-39.25244 16.0184 16.0184 0 0 0 -13.86718-7.99072h-447.43946a16.0184 16.0184 0 0 0 -13.86718 7.99072z" fill="#cbccd6"/><path d="m32.28027 416s63.71973-16 223.71973-16 223.71973 16 223.71973 16z" fill="#7c7d98"/><path d="m479.71973 416s-63.71973 16-223.71973 16-223.71973-16-223.71973-16z" fill="#525479"/><path d="m48 320s56-16 208-16 208 16 208 16z" fill="#cd2738"/><path d="m442.26514 247.16943c-28.46289-9.47168-86.81739-23.16943-186.26514-23.16943s-157.80225 13.69775-186.26514 23.16943a31.87648 31.87648 0 0 0 -21.73486 30.32032v2.51025s0-16 32-24c31.01318-7.75342 92.15527-15.48437 176-15.95459 83.84473.47022 144.98682 8.20117 176 15.95459 32 8 32 24 32 24v-2.51025a31.87648 31.87648 0 0 0 -21.73486-30.32032z" fill="#e76b7e"/><path d="m88 96s-16 24-16 56 16 56 16 56z" fill="#2e305e"/><path d="m424 96s16 24 16 56-16 56-16 56z" fill="#9fa0b3"/></svg>