<svg height="512" viewBox="0 0 512 512" width="512" xmlns="http://www.w3.org/2000/svg"><g id="Bedside_Table" data-name="Bedside Table"><path d="m416 24h-320v480h32v-56h255.218v56h32.782z" fill="#284881"/><path d="m96 32s16 56.00681 16 208-16 264-16 264z" fill="#4e6a9b"/><path d="m384 56s16 14.22222 16 48-16 48-16 48z" fill="#0c2b69"/><path d="m384 176s16 10.66667 16 36-16 36-16 36z" fill="#4e6a9b"/><path d="m384 264s16 10.66667 16 36-16 36-16 36z" fill="#4e6a9b"/><path d="m384 352s16 10.66667 16 36-16 36-16 36z" fill="#4e6a9b"/><path d="m128 56h256v96h-256z" fill="#4e6a9b"/><path d="m240 88h48v16h-48z" fill="#284881"/><path d="m128 56s16 14.4 16 48-16 48-16 48z" fill="#7a93bb"/><g fill="#0c2b69"><path d="m128 152h256s-40 16-128 16-128-16-128-16z"/><path d="m416 32s-63.60729 16-159.18118 16-160.81882-16-160.81882-16z"/><path d="m128 176h256v72h-256z"/><path d="m128 264h256v72h-256z"/><path d="m128 352h256v72h-256z"/></g><path d="m72 8h368v24h-368z" fill="#4e6a9b"/><path d="m72 8s64 16 192 16 176-16 176-16z" fill="#95adcf"/><path d="m232 80h48v16h-48z" fill="#0c2b69"/></g></svg>