<svg height="512" viewBox="0 0 512 512" width="512" xmlns="http://www.w3.org/2000/svg"><path d="m482.29932 156.57178a223.54819 223.54819 0 0 1 -34.29981-28.57178c-12-12-19.99219-25.958-24.98633-36.937a32.151 32.151 0 0 0 -29.1875-19.06348l-137.82568.00048-137.82617-.00049a32.151 32.151 0 0 0 -29.1875 19.06349c-4.99414 10.979-12.98633 24.937-24.98633 36.937a223.54867 223.54867 0 0 1 -34.2998 28.57178 48.12927 48.12927 0 0 0 -21.7012 40.13722l.001 131.291v112h24l21.13818-91.59766a15.99979 15.99979 0 0 1 15.58982-12.40234h374.544a15.99979 15.99979 0 0 1 15.58985 12.40234l21.13815 91.59766h23.99951v-112l.001-131.291a48.12926 48.12926 0 0 0 -21.70119-40.13722z" fill="#f06000"/><g fill="#f88f19"><path d="m448.33105 336h-5.05905a15.99979 15.99979 0 0 1 15.58985 12.40234l21.13815 91.59766-13.61768-88.51367a18.26313 18.26313 0 0 0 -18.05127-15.48633z"/><path d="m112 248h280a40 40 0 0 1 40 40 0 0 0 0 1 0 0h-360a0 0 0 0 1 0 0 40 40 0 0 1 40-40z"/><path d="m482.32129 156.58643a223.51778 223.51778 0 0 1 -34.32178-28.58643c-12.00146-12.00146-19.99463-25.96191-24.98828-36.94189a32.142 32.142 0 0 0 -29.17923-19.05811h-275.66452a32.142 32.142 0 0 0 -29.1792 19.05811c-4.99365 10.97998-12.98682 24.94043-24.98828 36.94189a223.51778 223.51778 0 0 1 -34.32178 28.58643 48.09775 48.09775 0 0 0 -21.67822 40.11474v243.29883h16l14.86377-237.81885a31.93671 31.93671 0 0 1 16.125-25.81494c9.71387-5.51121 22.47314-13.82812 33.01123-24.36621 13.40869-13.40869 23.22168-34.00977 28.2334-46.13184a15.95251 15.95251 0 0 1 14.77344-9.86816h249.98584a15.95251 15.95251 0 0 1 14.77343 9.86816c5.01172 12.12207 14.82471 32.72315 28.2334 46.13184 10.53809 10.53809 23.29737 18.855 33.01123 24.36621a31.93669 31.93669 0 0 1 16.125 25.81494l14.86377 237.81885h16v-243.29883a48.09772 48.09772 0 0 0 -21.67822-40.11474z"/></g><path d="m120 72s47.999 16 135.99951 16 136.00049-16 136.00049-16z" fill="#ffc263"/><path d="m256 128a954.00582 954.00582 0 0 1 -120-8s24 40 24 104c0 0 40-8 96-8s96 8 96 8c0-64 24-104 24-104a954.00582 954.00582 0 0 1 -120 8z" fill="#f88f19"/><path d="m136 120s40 32 120 32 120-32 120-32-48 8-120 8-120-8-120-8" fill="#fcaa40"/><path d="m56 192s16 15.98815 16 55.98812l24-15.98812s-8-32-40-40z" fill="#fcaa40"/><path d="m448 192s-16 15.98815-16 55.98812l-24-15.98812s8-32 40-40z" fill="#fcaa40"/><path d="m112 248s48 16 144 16 136-16 136-16z" fill="#ffc263"/></svg>