<svg height="512" viewBox="0 0 512 512" width="512" xmlns="http://www.w3.org/2000/svg"><rect fill="#fcaa40" height="432" rx="24" width="432" x="40" y="40"/><path d="m40 64s16 48 16 184-16 200-16 200z" fill="#ffc263"/><path d="m64 40s64 16 192 16 192-16 192-16z" fill="#ffc263"/><path d="m64.002 63.998h383.997v384h-383.997z" fill="#f4791a" transform="matrix(0 1 -1 0 511.998 -.002)"/><path d="m64 64.00007s64 39.99993 200 39.99993 184-39.99993 184-39.99993z" fill="#f06000"/><path d="m64 304s64 39.99993 200 39.99993 184-39.99993 184-39.99993z" fill="#f06000"/><path d="m244.002 99.998h23.997v384h-23.997z" fill="#fcaa40" transform="matrix(0 1 -1 0 547.998 35.998)"/><path d="m64 104h48v176h-48z" fill="#4e6a9b"/><path d="m64 280v-176s16 24 16 88-16 88-16 88z" fill="#284881"/><path d="m64 256h48v-16h-48zm0-136v16h48v-16z" fill="#95adcf"/><path d="m70.77686 120h-6.77686v16h10.93066a156.55047 156.55047 0 0 0 -4.1538-16z" fill="#7a93bb"/><path d="m76.40527 240h-12.40527v16h9.06055c1.18359-4.603 2.33105-9.89014 3.34472-16z" fill="#7a93bb"/><path d="m112 104h48v176h-48z" fill="#9fa0b3"/><path d="m112 104s16 24 16 88-16 88-16 88z" fill="#7c7d98"/><path d="m112 120h48v16h-48z" fill="#cbccd6"/><path d="m112 240h48v16h-48z" fill="#cbccd6"/><path d="m118.77686 120h-6.77686v16h10.93066a156.55047 156.55047 0 0 0 -4.1538-16z" fill="#9fa0b3"/><path d="m124.40527 240h-12.40527v16h9.06055c1.18359-4.603 2.33105-9.89014 3.34472-16z" fill="#9fa0b3"/><path d="m224 104h48v176h-48z" fill="#f88f19"/><path d="m224 120h48v16h-48z" fill="#ffc263"/><path d="m224 240h48v16h-48z" fill="#ffc263"/><path d="m224 104s16 24 16 88-16 88-16 88z" fill="#f4791a"/><path d="m230.77686 120h-6.77686v16h10.93066a156.55047 156.55047 0 0 0 -4.1538-16z" fill="#fcaa40"/><path d="m236.40527 240h-12.40527v16h9.06055c1.18359-4.603 2.33105-9.89014 3.34472-16z" fill="#fcaa40"/><path d="m272 136h48v144h-48z" fill="#525479"/><path d="m272 136s16 32 16 72-16 72-16 72z" fill="#2e305e"/><path d="m272 256h48v-16h-48zm0-104v16h48v-16z" fill="#9fa0b3"/><path d="m278.37988 152h-6.37988v16h11.01953c-1.47021-6.05273-3.09424-11.43994-4.63965-16z" fill="#7c7d98"/><path d="m284.75488 240h-12.75488v16h8.877c1.39058-4.79639 2.72993-10.16357 3.87788-16z" fill="#7c7d98"/><path d="m320 72h80v208h-80z" fill="#4260c9"/><path d="m320 72s16 40 16 104-16 104-16 104z" fill="#193fbe"/><path d="m320 256h80v-16h-80zm0-168v16h80v-16z" fill="#b7c3eb"/><path d="m325.05371 88h-5.05371v16h8.83838c-1.27783-6.13574-2.58154-11.55029-3.78467-16z" fill="#97a8e2"/><path d="m330.39062 240h-10.39062v16h7.063c1.11766-4.70508 2.249-10.0498 3.32762-16z" fill="#97a8e2"/><path d="m400 104h48v176h-48z" fill="#284881"/><path d="m400 120h48v16h-48z" fill="#7a93bb"/><path d="m400 240h48v16h-48z" fill="#7a93bb"/><path d="m400 104s16 24 16 88-16 88-16 88z" fill="#0c2b69"/><path d="m406.77686 120h-6.77686v16h10.93066a156.55047 156.55047 0 0 0 -4.1538-16z" fill="#4e6a9b"/><path d="m412.40527 240h-12.40527v16h9.06055c1.18359-4.603 2.33105-9.89014 3.34472-16z" fill="#4e6a9b"/><path d="m160 64h64v216h-64z" fill="#cd2738"/><path d="m160 256h64v-16h-64zm0-176v16h64v-16z" fill="#f59caa"/><path d="m160 64s16 32 16 104-16 112-16 112z" fill="#b40011"/><path d="m165.64893 80h-5.64893v16h9.53027c-1.28906-6.33057-2.62304-11.59326-3.88134-16z" fill="#d94556"/><path d="m170.08838 240h-10.08838v16h6.88672c1.06982-4.67139 2.15576-10.02441 3.20166-16z" fill="#d94556"/><path d="m408 448h-280a32 32 0 0 1 -32-32 32 32 0 0 1 32-32h280v16h-8s-16 0-16 16 16 16 16 16h7.99217z" fill="#525479"/><path d="m128 384s40 16 136 16 144-16 144-16z" fill="#284881"/><path d="m400 432h-272a16 16 0 0 1 -16-16 16 16 0 0 1 16-16h272s-16 0-16 16 16 16 16 16z" fill="#cbccd6"/><path d="m112 416a15.978 15.978 0 0 0 9.43262 14.55859 21.64267 21.64267 0 0 1 -1.43262-6.55859s0-16 16-16 264-8 264-8h-272a15.99985 15.99985 0 0 0 -16 16z" fill="#9fa0b3"/><path d="m152 384h192a32 32 0 0 0 32-32 32 32 0 0 0 -32-32h-192v16h8s16 0 16 16-16 16-16 16h-7.99217z" fill="#cd2738"/><path d="m160 368h184a16 16 0 0 0 16-16 16 16 0 0 0 -16-16h-184s16 0 16 16-16 16-16 16z" fill="#cbccd6"/><path d="m336 344c16 0 16 16 16 16a21.64267 21.64267 0 0 1 -1.43262 6.55859 15.9809 15.9809 0 0 0 -6.56738-30.55859h-184s.27393.00293.731.03662c11.15865.55664 159.87007 7.96338 175.269 7.96338z" fill="#9fa0b3"/><path d="m64 280v24l16-24z" fill="#f4791a"/><path d="m448 280v24l16-24z" fill="#ffc263"/></svg>