<svg height="512" viewBox="0 0 512 512" width="512" xmlns="http://www.w3.org/2000/svg"><path d="m64 104h384a32 32 0 0 1 32 32v40a0 0 0 0 1 0 0h-448a0 0 0 0 1 0 0v-40a32 32 0 0 1 32-32z" fill="#d94556"/><path d="m64 104s48 16 192 16 192-16 192-16z" fill="#f59caa"/><path d="m64 288h384a32 32 0 0 1 32 32v40a0 0 0 0 1 0 0h-448a0 0 0 0 1 0 0v-40a32 32 0 0 1 32-32z" fill="#d94556"/><path d="m480 336s-104-16-224-16-224 16-224 16z" fill="#cd2738"/><path d="m480 152s-104-16-224-16-224 16-224 16z" fill="#cd2738"/><path d="m56.2583 336h23.7417l-7.7417-48h-8.2583a31.76742 31.76742 0 0 0 -7.7417 1.05127z" fill="#cd2738"/><path d="m32 72a0 0 0 0 1 0 0v368a0 0 0 0 1 0 0h-24a0 0 0 0 1 0 0v-344a24 24 0 0 1 24-24z" fill="#525479"/><path d="m8 152h496v64h-496z" fill="#525479"/><path d="m56 152v48h8.258z" fill="#2e305e"/><path d="m8 336h496v64h-496z" fill="#525479"/><path d="m56 344v48h32l-8.258-48z" fill="#2e305e"/><path d="m167.742 152v64h8.258z" fill="#2e305e"/><path d="m168 336v64h32l-8.258-64z" fill="#2e305e"/><path d="m184 112h304v24h-304z" fill="#525479"/><path d="m480 72h-288a23.99994 23.99994 0 0 0 -24 24v64h24v-64h288v344h24v-344a23.99994 23.99994 0 0 0 -24-24z" fill="#525479"/><g fill="#7c7d98"><path d="m480 336v64s16-8 16-32-16-32-16-32z"/><path d="m480 96v120s16-17.14286 16-60-16-60-16-60z"/><path d="m32 152h24v288h-24z"/><path d="m144 152h24v288h-24z"/><path d="m48 264h104v16h-104z"/><path d="m48 200h104v16h-104z"/><path d="m48 328h104v16h-104z"/><path d="m48 392h104v16h-104z"/></g><path d="m184 288 7.742 48h-23.742v-48z" fill="#cd2738"/><path d="m32 152s16 56 16 144-16 144-16 144z" fill="#9fa0b3"/><path d="m144 152s16 56 16 144-16 144-16 144z" fill="#9fa0b3"/><path d="m56 216v-16h16z" fill="#2e305e"/><path d="m56 280v-16h16z" fill="#2e305e"/><path d="m56 344v-16h16z" fill="#2e305e"/><path d="m56 408v-16h16z" fill="#2e305e"/><path d="m192 112v24l16-24z" fill="#2e305e"/><path d="m192 72s48 16 144 16 144-16 144-16z" fill="#7c7d98"/></svg>