<svg height="512" viewBox="0 0 512 512" width="512" xmlns="http://www.w3.org/2000/svg"><path d="m72 8h368v496h-368z" fill="#284881"/><path d="m72 8s16 80.00681 16 232-16 264-16 264z" fill="#4e6a9b"/><path d="m408 40s16 64 16 216-16 216-16 216z" fill="#0c2b69"/><path d="m104 40h304v432h-304z" fill="#4e6a9b"/><path d="m104 40s16 64.8 16 216-16 216-16 216z" fill="#95adcf"/><g fill="#0c2b69"><path d="m104 136h304s-64 16-152 16-152-16-152-16z"/><path d="m104 248h304s-64 16-152 16-152-16-152-16z"/><path d="m104 360h304s-64 16-152 16-152-16-152-16z"/></g><path d="m408 8s-40 8-152 8-152-8-152-8z" fill="#95adcf"/><rect fill="#284881" height="32" rx="16" width="80" x="216" y="56"/><path d="m280 56h-48a15.93162 15.93162 0 0 0 -13.78076 8 15.93162 15.93162 0 0 0 13.78076 8h48a15.93162 15.93162 0 0 0 13.78076-8 15.93162 15.93162 0 0 0 -13.78076-8z" fill="#0c2b69"/><rect fill="#284881" height="32" rx="16" width="80" x="216" y="160"/><path d="m280 160h-48a15.93162 15.93162 0 0 0 -13.78076 8 15.93162 15.93162 0 0 0 13.78076 8h48a15.93162 15.93162 0 0 0 13.78076-8 15.93162 15.93162 0 0 0 -13.78076-8z" fill="#0c2b69"/><rect fill="#284881" height="32" rx="16" width="80" x="216" y="272"/><path d="m280 272h-48a15.93162 15.93162 0 0 0 -13.78076 8 15.93162 15.93162 0 0 0 13.78076 8h48a15.93162 15.93162 0 0 0 13.78076-8 15.93162 15.93162 0 0 0 -13.78076-8z" fill="#0c2b69"/><rect fill="#284881" height="32" rx="16" width="80" x="216" y="384"/><path d="m280 384h-48a15.93162 15.93162 0 0 0 -13.78076 8 15.93162 15.93162 0 0 0 13.78076 8h48a15.93162 15.93162 0 0 0 13.78076-8 15.93162 15.93162 0 0 0 -13.78076-8z" fill="#0c2b69"/></svg>