<svg height="512" viewBox="0 0 512 512" width="512" xmlns="http://www.w3.org/2000/svg"><path d="m231.999 8.977h48.001v24h-48.001z" fill="#b40011"/><path d="m280.001 72v-63.02344s-8.001 16-16.001 16-16-16-32-16v63.02344c0 112-160 112-160 248 0 112 72 128 88 176 0 0 24.00547 8 96.001 8s96-8 96-8c16-48 88-64 88-176 0-136-160-136-160-248z" fill="#cd2738"/><path d="m232.23633 72v-63.02344s7.84424 15.63379 15.76367 15.94532c0 199.07812-79.7627 178.8706-79.7627 295.07812 0 96 39.4336 112.14209 39.97461 182.56738-35.04052-2.29931-47.97558-6.56738-47.97558-6.56738-16-48-88-64-88-176 0-136 160-136 160-248z" fill="#d94556"/><path d="m248.58154 15.17969c-4.51416-3.3086-9.80517-6.20313-16.58154-6.20313v63.02344c0 111.65723-158.98242 112.0332-159.95508 246.79.49365-9.48385 9.18283-71.5713 95.95508-126.79 88-56 78.2334-106.76709 80.582-148.82812.01029-8.93653-.00046-18.15918-.00046-27.99219z" fill="#f59caa"/><path d="m280.001 72v-63.02344s-7.84424 15.63379-15.76368 15.94532c-.00002 199.07812 79.76268 178.8706 79.76268 295.07812 0 96-39.43359 112.14209-39.97461 182.56738 35.04053-2.29931 47.97561-6.56738 47.97561-6.56738 16-48 88-64 88-176 0-136-160-136-160-248z" fill="#b40011"/></svg>