<svg height="512" viewBox="0 0 512 512" width="512" xmlns="http://www.w3.org/2000/svg"><path d="m176 104h24v160h-24z" fill="#f88f19"/><path d="m312 104h24v160h-24z" fill="#f88f19"/><path d="m136 224h240a40 40 0 0 1 40 40 0 0 0 0 1 0 0h-320a0 0 0 0 1 0 0 40 40 0 0 1 40-40z" fill="#b40011"/><rect fill="#d94556" height="128" rx="24" width="264" x="128" y="8"/><rect fill="#b40011" height="112" rx="16" width="248" x="136" y="24"/><path d="m160 24s8 12.8 8 32-8 32-8 32h200s-8-12.8-8-32 8-32 8-32z" fill="#d94556"/><path d="m160 16a608.878 608.878 0 0 1 95.99924-8c51.50068 0 104.00076 8 104.00076 8a709.40837 709.40837 0 0 1 -104 8c-56 0-96-8-96-8z" fill="#f59caa"/><path d="m96 264a24 24 0 0 0 -24 24v216h24l15.3887-184.66436a8 8 0 0 1 7.97236-7.33564h273.27788a8 8 0 0 1 7.97236 7.33564l15.3887 184.66436h24v-216a24 24 0 0 0 -24-24z" fill="#f88f19"/><path d="m119.36084 312a7.99971 7.99971 0 0 0 -7.97217 7.33545l-15.38867 184.66455s8-160 8-176 15.36084-16 15.36084-16z" fill="#f06000"/><path d="m112 264h-16a23.99994 23.99994 0 0 0 -24 24v216h16s8-208 8-224 16-16 16-16z" fill="#ffc263"/><path d="m144 264s-16 0-16 16v16s0 16 16 16h224s16 0 16-16v-16s0-16-16-16z" fill="#ffc263"/><path d="m176 136 24 16v-16z" fill="#f06000"/><path d="m312 160 24 16v-40h-24z" fill="#f06000"/><path d="m136 224s32 16 120 16 120-16 120-16z" fill="#e76b7e"/><path d="m392.63916 312a7.99971 7.99971 0 0 1 7.97217 7.33545l15.38867 184.66455s-8-160-8-176-15.36084-16-15.36084-16z" fill="#ffc263"/></svg>