<svg height="512" viewBox="0 0 512 512" width="512" xmlns="http://www.w3.org/2000/svg"><g id="Classic_Buffets" data-name="Classic Buffets"><path d="m64 104h384v248h-384z" fill="#f4791a"/><path d="m448 104h-384l-16-16v-16h416v16z" fill="#f4791a"/><path d="m64 352h384l16 16v16h-416v-16z" fill="#f4791a"/><path d="m88 120h336v64h-336z" fill="#f88f19"/><path d="m104 136h304v32h-304z" fill="#ffc263"/><path d="m240 168a24 24 0 0 1 48 0z" fill="#f88f19"/><path d="m88 208h152v128h-152z" fill="#f88f19"/><path d="m208 224s8 16 24 16v64c-16 0-24 16-24 16z" fill="#f88f19"/><path d="m272 208h152v128h-152z" fill="#f88f19"/><path d="m392 224s8 16 24 16v64c-16 0-24 16-24 16z" fill="#f88f19"/><path d="m48 384-.54958-.00009a23.45135 23.45135 0 0 0 -23.45042 23.45216v.48246a16.00585 16.00585 0 0 1 -15.99523 16.06547h-.00477v16h72v-16h16a40 40 0 0 0 40-40" fill="#f4791a"/><path d="m464 384 .54958-.00009a23.45135 23.45135 0 0 1 23.45042 23.45216v.48246a16.00585 16.00585 0 0 0 15.99523 16.06547h.00477v16h-72v-16h-16a40 40 0 0 1 -40-40" fill="#f4791a"/><path d="m416 408s0-16 16-16h40c16 0 16 15.93457 16 15.93457v-.48242a23.45094 23.45094 0 0 0 -23.4502-23.45215h-88.5498a40.0001 40.0001 0 0 0 40 40h16s-16 0-16-16z" fill="#fcaa40"/><path d="m104 240s16 0 16-16h88s0 16 16 16v64s-16 0-16 16h-88s0-16-16-16z" fill="#ffc263"/><path d="m216 304a24 24 0 0 1 0-48z" fill="#f88f19"/><path d="m288 240s16 0 16-16h88s0 16 16 16v64s-16 0-16 16h-88s0-16-16-16z" fill="#ffc263"/><path d="m312 304a24 24 0 0 0 0-48z" fill="#f88f19"/><path d="m64 104c8-.0088 48 16 192 16s192-16 192-16z" fill="#f06000"/><path d="m48 72h416v16h-416z" fill="#fcaa40"/><path d="m48 72s32 16 208 16 208-16 208-16z" fill="#ffc263"/><path d="m48 368h416v16h-416z" fill="#f88f19"/><path d="m64 352s40 16 192 16 192-16 192-16z" fill="#fcaa40"/><path d="m64 352s16-48 16-120-16-128-16-128z" fill="#f88f19"/><path d="m88 120s16 8 16 32-16 32-16 32z" fill="#fcaa40"/><path d="m424 120s16 8 16 32-16 32-16 32z" fill="#f06000"/><path d="m88 208s16 16 16 64-16 64-16 64z" fill="#fcaa40"/><path d="m272 208s16 16 16 64-16 64-16 64z" fill="#ffc263"/><g fill="#f06000"><path d="m240 208s16 16 16 64-16 64-16 64z"/><path d="m424 208s16 16 16 64-16 64-16 64z"/><path d="m88 184s24 8 168 8 168-8 168-8z"/><path d="m88 336s24 8 72 8 80-8 80-8z"/><path d="m272 336s24 8 72 8 80-8 80-8z"/><path d="m64 424h16v16h-16z"/></g><path d="m432 424h16v16h-16z" fill="#f88f19"/><path d="m104 384h-56.5498a23.45094 23.45094 0 0 0 -23.4502 23.45215v.48242a16.00578 16.00578 0 0 1 -15.99512 16.06543h71.99512c24 0 24-40 24-40z" fill="#fcaa40"/><path d="m232 160a24 24 0 0 1 48 0z" fill="#2e305e"/><ellipse cx="248" cy="144" fill="#7c7d98" rx="10.117" ry="5.059" transform="matrix(.707 -.707 .707 .707 -29.186 217.539)"/><path d="m208 296a24 24 0 0 1 0-48z" fill="#2e305e"/><ellipse cx="192" cy="264" fill="#7c7d98" rx="10.117" ry="5.059" transform="matrix(.707 -.707 .707 .707 -130.441 213.088)"/><path d="m304 296a24 24 0 0 0 0-48z" fill="#2e305e"/><path d="m304 248s8 8 8 24-8 24-8 24z" fill="#525479"/></g></svg>