<svg height="512" viewBox="0 0 512 512" width="512" xmlns="http://www.w3.org/2000/svg"><g id="Classic_Dining_Table" data-name="Classic Dining Table"><path d="m288 248c0-24-16-24-16-32s8-8 8-8v-8h-48v8s8 0 8 8-16 8-16 32 16 24 16 32-8 8-8 8v8h48v-8s-8 0-8-8 16-8 16-32z" fill="#f88f19"/><path d="m256 104h-40v56l16 16h24 24l16-16v-56z" fill="#f06000"/><path d="m280 296h-24-24l-16 16v120l16 16h24 24l16-16v-120z" fill="#f06000"/><path d="m232 160v-56h-16v56l7.16455 7.16455c4.26318-.92432 8.83545-2.87988 8.83545-7.16455z" fill="#ffc263"/><path d="m223.16455 304.83545-7.16455 7.16455v120l7.16455 7.16455c4.26318-.92432 8.83545-2.87988 8.83545-7.16455v-120c0-4.28467-4.57227-6.24023-8.83545-7.16455z" fill="#ffc263"/><g fill="#f88f19"><path d="m256 104h24v56c0 8-24 8-24 8s-24 0-24-8v-56z"/><path d="m256 304s-24 0-24 8v120c0 8 24 8 24 8s24 0 24-8v-120c0-8-24-8-24-8z"/><path d="m280 176h-48a8 8 0 0 0 0 16h48a8 8 0 0 0 0-16z"/><path d="m280 448h-48a8 8 0 0 0 0 16h48a8 8 0 0 0 0-16z"/><path d="m280 192h-48a8 8 0 0 0 0 16h48a8 8 0 0 0 0-16z"/></g><path d="m104 488c0 16 16 16 16 16 8 0 24 0 32-32s8-64 48-64h24v-72c-72 0-88 48-88 112 0 3.06942 0 5.87447-.00263 8.43491a15.56755 15.56755 0 0 1 -15.61628 15.56509h-.38109s-16 0-16 16z" fill="#fcaa40"/><path d="m408 488c0 16-16 16-16 16-8 0-24 0-32-32s-8-64-48-64h-24v-72c72 0 88 48 88 112v7.99965a16.00035 16.00035 0 0 0 16 16.00035s16 0 16 16z" fill="#f06000"/><path d="m256 40h-184v80h184 184v-80z" fill="#f88f19"/><path d="m376 40h-64v80h64 64v-80z" fill="#f4791a"/><path d="m256 40h-184a32 32 0 0 0 -32 32h432a32 32 0 0 0 -32-32z" fill="#9fa0b3"/><path d="m72 40s48 16 184 16 184-16 184-16z" fill="#cbccd6"/><path d="m72 72s40 16 184 16 184-16 184-16z" fill="#f4791a"/><path d="m216 120s16 16 40 16 40-16 40-16z" fill="#f06000"/><path d="m248 176s-8 0-8 8 8 8 8 8h-16a8 8 0 0 1 -8-8 8 8 0 0 1 8-8z" fill="#ffc263"/><path d="m248 192s-8 0-8 8 8 8 8 8h-16a8 8 0 0 1 -8-8 8 8 0 0 1 8-8z" fill="#ffc263"/><path d="m272 176s8 0 8 8-8 8-8 8h8a8 8 0 0 0 8-8 8 8 0 0 0 -8-8z" fill="#f06000"/><path d="m264 192s8 0 8 8-8 8-8 8h16a8 8 0 0 0 8-8 8 8 0 0 0 -8-8z" fill="#f06000"/><path d="m264 448s8 0 8 8-8 8-8 8h16a8 8 0 0 0 8-8 8 8 0 0 0 -8-8z" fill="#f06000"/><path d="m232 288s16 0 16-8-8-8-8-32 8-24 8-32c0 0-.05762-7.79785-15.53467-7.96973 1.67041.13773 7.53467 1.10352 7.53467 7.96973 0 8-16 8-16 32s16 24 16 32-8 8-8 8z" fill="#ffc263"/><path d="m272 216c0-8 8-8 8-8h-24s8 0 8 8 8 8 8 32-8 24-8 32-8 8-8 8h24s-8 0-8-8 16-8 16-32-16-24-16-32z" fill="#f06000"/><path d="m256 288h24v8h-24z" fill="#f4791a"/><path d="m216 432 8-24h-8z" fill="#f06000"/><path d="m138.51709 410.38428c5.81591-25.55762 23.72412-58.38428 77.48291-58.38428h8v-16c-56.979 0-78.82178 30.12158-85.48291 74.38428z" fill="#ffc263"/></g></svg>