<svg height="512" viewBox="0 0 512 512" width="512" xmlns="http://www.w3.org/2000/svg"><g id="Classic_Vanity" data-name="Classic Vanity"><path d="m376 112h-240a15.99985 15.99985 0 0 0 -16 16c0 24 16 48 40 56v16h192v-16c24-8 40-32 40-56a15.99985 15.99985 0 0 0 -16-16z" fill="#9fa0b3"/><path d="m376 112a15.99985 15.99985 0 0 1 16 16c0 24-16 48-40 56h-48c24-8 40-32 40-56a15.99985 15.99985 0 0 0 -16-16z" fill="#7c7d98"/><path d="m136 112a15.99985 15.99985 0 0 0 -16 16c0 24 16 48 40 56h48c-24-8-40-32-40-56a15.99985 15.99985 0 0 1 16-16z" fill="#cbccd6"/><path d="m232 112 14.26456-64.19051a9.97291 9.97291 0 0 1 9.73544-7.80949 9.97291 9.97291 0 0 1 9.73543 7.80949l14.26457 64.19051z" fill="#f88f19"/><path d="m256 40v72h24l-14.26465-64.19043a9.9726 9.9726 0 0 0 -9.73535-7.80957z" fill="#f06000"/><path d="m248 60v-12h16v24h-16z" fill="#fcaa40"/><path d="m248 48 8 16h8v-16z" fill="#f88f19"/><rect fill="#fcaa40" height="32" rx="16" width="48" x="232" y="64"/><path d="m248 64s16 0 16 16-16 16-16 16h16a16 16 0 0 0 16-16 16 16 0 0 0 -16-16z" fill="#f88f19"/><path d="m256 80a8 8 0 0 1 8 8v16a0 0 0 0 1 0 0h-16a0 0 0 0 1 0 0v-16a8 8 0 0 1 8-8z" fill="#ffc263"/><path d="m304 48-64 8a16 16 0 0 1 16-16h48z" fill="#ffc263"/><path d="m40 184h432v240h-432z" fill="#f88f19"/><path d="m40 184s48 16 216 16 216-16 216-16z" fill="#fcaa40"/><path d="m240 208s16 24 16 96-16 96-16 96z" fill="#f4791a"/><path d="m448 208s16 24 16 96-16 96-16 96z" fill="#f4791a"/><path d="m336 184h-80" fill="#525479"/><path d="m64 208h176v192h-176z" fill="#fcaa40"/><path d="m88 224h128v160h-128z" fill="#f88f19"/><path d="m152 240c32 0 32 24 64 24v80c-32 0-32 24-64 24z" fill="#f4791a"/><path d="m272 208h176v192h-176z" fill="#fcaa40"/><path d="m104 424h-40v48h24a15.99985 15.99985 0 0 1 16-16h32c0-32 32-32 32-32z" fill="#f4791a"/><path d="m72 440a16.41049 16.41049 0 0 0 -8 1.9292v30.0708h24v-16s0-16-16-16z" fill="#fcaa40"/><path d="m408 424h40v48h-24a15.99985 15.99985 0 0 0 -16-16h-32c0-32-32-32-32-32z" fill="#f4791a"/><path d="m198.60266 264c-11.066 0-20.83537-5.9107-27.60335-14.66571a24.003 24.003 0 0 0 -37.99862 0c-6.76798 8.75501-16.53738 14.66571-27.60335 14.66571h-1.39734v80h1.39734c11.066 0 20.83537 5.9107 27.60335 14.66571a24.003 24.003 0 0 0 37.99862 0c6.76798-8.75501 16.53738-14.66571 27.60335-14.66571h1.39734v-80z" fill="#fcaa40"/><path d="m296 224h128v160h-128z" fill="#f88f19"/><path d="m360 240c32 0 32 24 64 24v80c-32 0-32 24-64 24z" fill="#f4791a"/><path d="m406.60266 264c-11.066 0-20.83537-5.9107-27.60335-14.66571a24.003 24.003 0 0 0 -37.99862 0c-6.76798 8.75501-16.53738 14.66571-27.60335 14.66571h-1.39734v80h1.39734c11.066 0 20.83537 5.9107 27.60335 14.66571a24.003 24.003 0 0 0 37.99862 0c6.76798-8.75501 16.53738-14.66571 27.60335-14.66571h1.39734v-80z" fill="#fcaa40"/><path d="m88 224s16 20 16 80-16 80-16 80z" fill="#f4791a"/><g fill="#ffc263"><path d="m216 224s16 20 16 80-16 80-16 80z"/><path d="m424 224s16 20 16 80-16 80-16 80z"/><path d="m64 208s16 24 16 96-16 96-16 96z"/><path d="m272 208s16 24 16 96-16 96-16 96z"/></g><path d="m296 224s16 20 16 80-16 80-16 80z" fill="#f4791a"/><path d="m64 400s24 16 88 16 88-16 88-16z" fill="#f4791a"/><path d="m272 400s24 16 88 16 88-16 88-16z" fill="#f4791a"/><path d="m133.00049 358.66553a23.92089 23.92089 0 0 0 14.8501 8.84668c-17.94336-4.51021-5.39649-39.51221-27.85059-39.51221v-56c22.22363 0 10.20752-27.39258 27.35449-31.45361a23.94364 23.94364 0 0 0 -14.354 8.78759c-6.76758 8.75538-16.53711 14.666-27.603 14.666h-1.39749v80h1.39746c11.06592.00002 20.83545 5.91066 27.60303 14.66555z" fill="#ffc263"/><path d="m341.00049 358.66553a23.92089 23.92089 0 0 0 14.8501 8.84668c-17.94336-4.51021-5.39649-39.51221-27.85059-39.51221v-56c22.22363 0 10.20752-27.39258 27.35449-31.45361a23.94364 23.94364 0 0 0 -14.354 8.78759c-6.76758 8.75538-16.53711 14.666-27.603 14.666h-1.39749v80h1.39746c11.06592.00002 20.83545 5.91066 27.60303 14.66555z" fill="#ffc263"/><path d="m139.60352 440h-19.60352a16 16 0 0 0 -16 16h32s.01416-.36768.05811-.90918a33.53054 33.53054 0 0 1 3.54541-15.09082z" fill="#fcaa40"/><path d="m416 440s-16 0-16 16h8a15.99985 15.99985 0 0 1 16 16h8v-16c0-16-16-16-16-16z" fill="#fcaa40"/><path d="m136 112s24 16 120 16 120-16 120-16z" fill="#cbccd6"/></g></svg>