<svg height="512" viewBox="0 0 512 512" width="512" xmlns="http://www.w3.org/2000/svg"><g id="Classsic_Dressing_Table" data-name="Classsic Dressing Table"><path d="m104 464v40h24v-24h16s16 0 16-16v-8h-56z" fill="#f4791a"/><path d="m408 464v40h-24v-24h-16s-16 0-16-16v-8h56z" fill="#f4791a"/><path d="m440 264h-368v16s16 0 16 16v168h336v-168s0-16 16-16z" fill="#f88f19"/><path d="m256.00391 8c-80.00539 0-80.01465 32-168.00391 32v232h336.00391v-232c-87.98926 0-87.99462-32-168-32z" fill="#fcaa40"/><path d="m256 24c88 0 96 24 168 24 0 0 0 112-16 200h-152" fill="#fcaa40"/><path d="m104 248v-192c37.72656-1.8125 59.08594-10.33594 78.19531-17.625 20.23438-7.71094 37.70313-14.375 73.80469-14.375 36.10938 0 53.57812 6.66406 73.8125 14.38281 19.10938 7.28125 40.46875 15.80469 78.1875 17.61719v192z" fill="#f4791a"/><ellipse cx="260" cy="140" fill="#f88f19" rx="132" ry="84"/><path d="m256 24c-36.10156 0-53.57031 6.66406-73.80469 14.375-19.10937 7.28906-40.46875 15.8125-78.19531 17.625v192h16v-184c72 0 96-40 136-40z" fill="#f06000"/><path d="m264 304h136v136h-136z" fill="#9fa0b3"/><path d="m112 304h136v136h-136z" fill="#fcaa40"/><path d="m128 320h104v104h-104z" fill="#f88f19"/><path d="m200 408h-40a16 16 0 0 0 -16-16v-40a16 16 0 0 0 16-16h40a16 16 0 0 0 16 16v40a16 16 0 0 0 -16 16z" fill="#fcaa40"/><path d="m160 336a16 16 0 0 1 -16 16v40a16 16 0 0 1 16 16h16a16 16 0 0 0 -16-16v-40a16 16 0 0 0 16-16z" fill="#ffc263"/><path d="m264 304h136v136h-136z" fill="#fcaa40"/><path d="m280 320h104v104h-104z" fill="#f88f19"/><path d="m352 408h-40a16 16 0 0 0 -16-16v-40a16 16 0 0 0 16-16h40a16 16 0 0 0 16 16v40a16 16 0 0 0 -16 16z" fill="#fcaa40"/><path d="m312 336a16 16 0 0 1 -16 16v40a16 16 0 0 1 16 16h16a16 16 0 0 0 -16-16v-40a16 16 0 0 0 16-16z" fill="#ffc263"/><path d="m72 264h368v16h-368z" fill="#fcaa40"/><ellipse cx="256" cy="140" fill="#9fa0b3" rx="128" ry="84"/><path d="m272 56c-70.69245 0-128 37.60808-128 84s57.30755 84 128 84h-16c-70.69245 0-128-37.60808-128-84s57.30755-84 128-84z" fill="#525479"/><path d="m256.00391 8c-80.00537 0-80.01465 32-168.00391 32v224c8-72 16-208 16-208 48 0 104-48 152.00391-48z" fill="#ffc263"/><path d="m145.61768 182.38232c20.374 22.79932 56.57177 38.73829 98.76709 41.23291l123.92041-123.92041c-19.40772-23.23828-55.08448-39.74658-96.96436-43.03564z" fill="#cbccd6"/><path d="m244.38477 223.61523 1.39355-1.39355c-41.06006-5.61133-74.86572-24.1377-91.19238-48.80762l-8.96826 8.96826c20.37402 22.79932 56.57177 38.73829 98.76709 41.23291z" fill="#9fa0b3"/><path d="m88 264s32 16 168 16 168-16 168-16z" fill="#ffc263"/><path d="m88 296s16 16 16 72-16 96-16 96z" fill="#fcaa40"/><g fill="#f4791a"><path d="m128 320s16 17.33333 16 52-16 52-16 52z"/><path d="m280 320s16 17.33333 16 52-16 52-16 52z"/><path d="m400 304s16 22.66667 16 68-16 68-16 68z"/><path d="m248 304s16 22.66667 16 68-16 68-16 68z"/><path d="m216 352a29 29 0 0 1 0 40z"/><path d="m368 352a29 29 0 0 1 0 40z"/><path d="m112 440s25.4999 16 68 16c42.4999 0 68-16 68-16z"/><path d="m264 440s25.49989 16 68 16c42.49989 0 68-16 68-16z"/><path d="m80 280s48 16 176 16 176-16 176-16z"/></g><path d="m112 304s16 25.5 16 68-16 68-16 68z" fill="#ffc263"/><path d="m264 304s16 25.5 16 68-16 68-16 68z" fill="#ffc263"/><path d="m384 320s16 19.5 16 52-16 52-16 52z" fill="#ffc263"/><path d="m232 320s16 19.5 16 52-16 52-16 52z" fill="#ffc263"/><path d="m104 480v24h16v-8s0-16-16-16z" fill="#f88f19"/><path d="m384 480v24h16v-8s0-16-16-16z" fill="#f88f19"/></g></svg>