<svg height="512" viewBox="0 0 512 512" width="512" xmlns="http://www.w3.org/2000/svg"><g id="Compact_Table_Lamp" data-name="Compact Table Lamp"><path d="m272 112 16-16 148.68109 148.68109a11.31371 11.31371 0 0 1 0 16l-1.18743-1.18742 1.18742 1.18743a11.31371 11.31371 0 0 1 -16 0z" fill="#646687"/><path d="m272 112 16-16 148.68109 148.68109a11.31371 11.31371 0 0 1 0 16l-1.18743-1.18742 1.18742 1.18743a11.31371 11.31371 0 0 1 -16 0z" fill="#525479"/><circle cx="136" cy="136" fill="#f06000" r="40"/><ellipse cx="112" cy="132" fill="#fcaa40" rx="16" ry="20"/><path d="m420.68629 211.31371-212.68616 212.68616 16 16 212.68616-212.68616a11.31369 11.31369 0 0 0 0-16 11.31369 11.31369 0 0 0 -16 0z" fill="#525479"/><g fill="#2e305e"><path d="m404 232a19.9082 19.9082 0 0 0 -4.5752.5752l-14.8496 14.8496a19.59694 19.59694 0 0 0 9.92626 22.07374l26.99708-26.99708a19.91518 19.91518 0 0 0 -17.49854-10.50146z"/><path d="m416 224v32l4.68115 4.68115a11.31371 11.31371 0 0 0 16-16z"/><path d="m436.686 211.31348a11.31369 11.31369 0 0 0 -15.99952 0l-4.68648 4.68652v32l20.68652-20.68652a11.31427 11.31427 0 0 0 0-16z"/><path d="m288 96-8 8v16l32 32v-32z"/><path d="m242.343 63.029h11.314v33.941h-11.314z" transform="matrix(.707 -.707 .707 .707 16.069 198.794)"/><path d="m254.15137 17.84863v-.00049a33.62573 33.62573 0 0 0 -47.55274 0l-29.46386 29.46436a90.18426 90.18426 0 0 0 -35.64454-7.3125h-.0039a90.50952 90.50952 0 0 0 -64 26.50977l-5.48633 5.48632 128.00049 128.00342 5.49023-5.49023a90.51634 90.51634 0 0 0 19.19678-99.644l29.46387-29.46386a33.62484 33.62484 0 0 0 0-47.55279z"/></g><path d="m101.48633 90.50977a90.5098 90.5098 0 0 1 64.00049-26.50977h.00341a90.18426 90.18426 0 0 1 35.64454 7.3125l29.46386-29.46387a33.48343 33.48343 0 0 1 32.19437-8.64163 33.28937 33.28937 0 0 0 -8.6416-15.3584v-.00049a33.62573 33.62573 0 0 0 -47.55274 0l-29.46389 29.46439a90.18426 90.18426 0 0 0 -35.64454-7.3125h-.0039a90.50952 90.50952 0 0 0 -64 26.50977l-5.48633 5.48632 24 24z" fill="#525479"/><path d="m256 96 16-16h24l16 16-40 40-16-16z" fill="#2e305e"/><path d="m256.686 75.029h22.627v33.941h-22.627z" fill="#525479" transform="matrix(.707 -.707 .707 .707 13.442 216.451)"/><circle cx="272" cy="96" fill="#9fa0b3" r="8"/><circle cx="412" cy="236" fill="#7c7d98" r="20"/><ellipse cx="404" cy="228" fill="#9fa0b3" rx="14.711" ry="8.455" transform="matrix(.707 -.707 .707 .707 -42.891 352.451)"/><path d="m220 407.99987a20.00012 20.00012 0 0 0 -20.00013 20.00013v43.99989h40.00026v-43.99989a20.00012 20.00012 0 0 0 -20.00013-20.00013z" fill="#2e305e"/><circle cx="220" cy="428" fill="#525479" r="12"/><ellipse cx="216" cy="424" fill="#7c7d98" rx="10.117" ry="5.058" transform="matrix(.707 -.707 .707 .707 -236.548 276.922)"/><path d="m104 488s32-32 96-32 96 32 96 32v16h-192z" fill="#2e305e"/><path d="m200 456c-64 0-96 32-96 32v16h32v-16s24-24 64-32z" fill="#525479"/></g></svg>