<svg height="512" viewBox="0 0 512 512" width="512" xmlns="http://www.w3.org/2000/svg"><g id="Cupboard_with_Mirror" data-name="Cupboard with Mirror"><path d="m416 464v24l-.18657 16h-31.81343v-16a23.99994 23.99994 0 0 1 -24-24v-8h56z" fill="#f88f19"/><path d="m96 464v40h32v-16a23.99994 23.99994 0 0 0 24-24v-8h-56z" fill="#f4791a"/><path d="m96 40h320v424h-320z" fill="#f88f19"/><path d="m96 40v424s16-109.92593 16-212-16-212-16-212z" fill="#fcaa40"/><path d="m120 64h152v192h-152z" fill="#9fa0b3"/><path d="m120 192 128-128h24v136l-56 56h-96z" fill="#cbccd6"/><path d="m136 256v-176h136v-16h-152v192z" fill="#525479"/><path d="m248 64-16 16h40v-16z" fill="#9fa0b3"/><path d="m120 192v64h16v-80z" fill="#9fa0b3"/><path d="m288 64h104v376h-104z" fill="#fcaa40"/><path d="m312 88h56v328h-56z" fill="#ffc263"/><path d="m392 64s16 64 16 184-16 192-16 192z" fill="#f4791a"/><path d="m288 64s16 56 16 176-16 200-16 200z" fill="#ffc263"/><path d="m120 272h152v168h-152z" fill="#fcaa40"/><g fill="#ffc263"><path d="m136 400h120v24h-120z"/><path d="m136 344h120v24h-120z"/><path d="m136 288h120v24h-120z"/><path d="m120 272s16 32 16 84-16 84-16 84z"/></g><path d="m272 272s16 32 16 84-16 84-16 84z" fill="#f4791a"/><path d="m272 64s16 36.57143 16 96-16 96-16 96z" fill="#fcaa40"/><path d="m120 328h152s-24 16-76 16-76-16-76-16z" fill="#f88f19"/><path d="m120 384h152s-24 16-76 16-76-16-76-16z" fill="#f88f19"/><path d="m120 440h152s-24 16-76 16-76-16-76-16z" fill="#f4791a"/><path d="m120 256h152s-24 16-76 16-76-16-76-16z" fill="#ffc263"/><path d="m288 440h104s-16.421 16-52 16-52-16-52-16z" fill="#f4791a"/><path d="m72 8v16h8a16 16 0 0 1 16 16h320a16 16 0 0 1 16-16h8v-16z" fill="#f88f19"/><path d="m96 40s48 16 160 16 160-16 160-16z" fill="#f4791a"/><path d="m96 472v32h16v-16s0-16-16-16z" fill="#f88f19"/><path d="m400 472v32h-16v-16s0-16 16-16z" fill="#fcaa40"/><path d="m360 464s8 16 32 16v8h-8s-24 0-24-24z" fill="#fcaa40"/><path d="m72 24h320l1.723-16h-321.723z" fill="#fcaa40"/></g></svg>