<svg height="512" viewBox="0 0 512 512" width="512" xmlns="http://www.w3.org/2000/svg"><path d="m504 120v-16h-128c-64 0-72.00293-31.937-120.00146-31.937s-55.99854 31.937-119.99854 31.937h-128v16s16 0 16 16v256s0 16-16 16v32h32a23.99994 23.99994 0 0 1 24-24h384a23.99994 23.99994 0 0 1 24 24h32v-32c-16 0-16-16-16-16v-256c0-16 16-16 16-16z" fill="#f88f19"/><path d="m16 136h480v16h-480z" fill="#fcaa40"/><path d="m16 376h480v16h-480z" fill="#fcaa40"/><path d="m456 136h40v16h-40z" fill="#f88f19"/><path d="m456 376h40v16h-40z" fill="#f88f19"/><path d="m40 168h96v192h-96z" fill="#fcaa40"/><path d="m88 184c32 0 24 16 48 16v128c-24 0-16 16-48 16z" fill="#f88f19"/><path d="m376 168h96v192h-96z" fill="#fcaa40"/><path d="m152 168h208v192h-208z" fill="#fcaa40"/><path d="m208 184c32 0 24 16 48 16v128c-24 0-16 16-48 16z" fill="#f88f19"/><path d="m312 184c32 0 24 16 48 16v128c-24 0-16 16-48 16z" fill="#f88f19"/><path d="m424 184c32 0 24 16 48 16v128c-24 0-16 16-48 16z" fill="#f88f19"/><path d="m243.9251 200c-9.46154 0-17.921-4.62359-24.61144-11.31384a16.0002 16.0002 0 0 0 -22.62732 0c-6.69034 6.69025-15.1499 11.31384-24.61144 11.31384h-4.0749v128h4.07553c9.46133 0 17.92064 4.62349 24.61081 11.31366a15.99977 15.99977 0 0 0 22.62732 0c6.69017-6.69017 15.14948-11.31366 24.61081-11.31366h4.07553v-128z" fill="#ffc263"/><path d="m117.89952 200c-6.91544 0-12.89819-3.87209-16.98663-9.44955a16.0028 16.0028 0 0 0 -25.82578 0c-4.08844 5.57746-10.07119 9.44955-16.98663 9.44955h-2.10048v128h2.10088c6.91528 0 12.89791 3.872 16.98623 9.44934a16.0025 16.0025 0 0 0 25.82578 0c4.08832-5.57734 10.07095-9.44934 16.98623-9.44934h2.10088v-128z" fill="#ffc263"/><path d="m453.89952 200c-6.91544 0-12.89819-3.87209-16.98663-9.44955a16.0028 16.0028 0 0 0 -25.82578 0c-4.08844 5.57746-10.07119 9.44955-16.98663 9.44955h-2.10048v128h2.10088c6.91528 0 12.89791 3.872 16.98623 9.44934a16.0025 16.0025 0 0 0 25.82578 0c4.08832-5.57734 10.07095-9.44934 16.98623-9.44934h2.10088v-128z" fill="#ffc263"/><path d="m339.92462 200c-9.46124 0-17.92064-4.62327-24.61062-11.3135a16.0002 16.0002 0 0 0 -22.628 0c-6.69 6.69023-15.14938 11.3135-24.61062 11.3135h-4.07538v128h4.07553c9.46133 0 17.92064 4.62349 24.61081 11.31366a15.99977 15.99977 0 0 0 22.62732 0c6.69017-6.69017 15.14948-11.31366 24.61081-11.31366h4.07553v-128z" fill="#ffc263"/><path d="m136 168s16 32 16 96-16 96-16 96z" fill="#f4791a"/><path d="m24 168s16 32 16 96-16 96-16 96z" fill="#fcaa40"/><path d="m40 168s16 32 16 96-16 96-16 96z" fill="#ffc263"/><path d="m152 168s16 32 16 96-16 96-16 96z" fill="#ffc263"/><path d="m376 168s16 32 16 96-16 96-16 96z" fill="#ffc263"/><path d="m248 168s16 32 16 96-16 96-16 96z" fill="#f4791a"/><path d="m360 168s16 32 16 96-16 96-16 96z" fill="#f4791a"/><path d="m472 168s16 32 16 96-16 96-16 96z" fill="#f4791a"/><path d="m376 104c-64 0-72.00293-31.937-120.00146-31.937s-55.99854 31.937-119.99854 31.937h-128v16h424v-16z" fill="#fcaa40"/><path d="m24 440h16a23.99994 23.99994 0 0 1 24-24s-40 0-40 24z" fill="#f4791a"/><path d="m488 440h-16a23.99994 23.99994 0 0 0 -24-24s40 0 40 24z" fill="#fcaa40"/><g fill="#f4791a"><path d="m40 360s16 16 48 16 48-16 48-16z"/><path d="m376 360s16 16 48 16 48-16 48-16z"/><path d="m152 360s34.66667 16 104 16 104-16 104-16z"/><path d="m24 152s64 16 232 16 232-16 232-16z"/><path d="m24 392s64 16 232 16 232-16 232-16z"/></g></svg>