<svg height="512" viewBox="0 0 512 512" width="512" xmlns="http://www.w3.org/2000/svg"><g id="Decorative_Mirror" data-name="Decorative Mirror"><path d="m256 8c-80.00732 0-96.00732 64-183.62061 64v368c87.61329 0 103.99268 64 184 64s96.00733-64 183.62061-64v-368c-87.61328 0-103.99268-64-184-64z" fill="#fcaa40"/><path d="m256 32c88 0 96 48 176 48v352c-72 0-95.23438 48-175.61719 48z" fill="#ffc263"/><path d="m256.38281 480c-32.07812 0-50.80469-11.97656-74.51562-27.13281-22.57031-14.42969-48.03907-31.96875-85.86719-36.86719v-320c37.82031-4.90625 63.20312-22.45312 85.70312-36.89062 23.60157-15.14844 42.24219-27.10938 74.29688-27.10938 32.07812 0 50.80469 11.97656 74.51562 27.13281 22.57032 14.42969 47.65626 31.96875 85.48438 36.86719v320c-37.82031 4.90625-62.82031 22.45312-85.32031 36.89063-23.60157 15.14843-42.24219 27.10937-74.29688 27.10937z" fill="#f4791a"/><path d="m256 72s152 8 152 184-152 184-152 184z" fill="#f06000"/><ellipse cx="256" cy="256" fill="#fcaa40" rx="136" ry="184"/><path d="m256 96s128-8 128 160-128 160-128 160z" fill="#ffc263"/><ellipse cx="256" cy="256" fill="#9fa0b3" rx="112" ry="160"/><path d="m160 256c0-144 96-160 96-160-61.856 0-112 71.63428-112 160 0 88.36523 50.144 160 112 160 0 0-96-16-96-160z" fill="#525479"/><path d="m148.33154 299.66846c12.66162 63.811 52.28369 111.26806 100.207 115.793l114.9849-114.9849a224.134 224.134 0 0 0 4.47656-44.47656c0-53.35352-18.35156-100.477-46.45264-129.54736z" fill="#cbccd6"/><path d="m248.53857 415.46143 1.08543-1.08543c-19.51806-5.9834-77.72607-31.835-88.00781-127.99219l-13.28467 13.28467c12.66164 63.81101 52.28371 111.26804 100.20705 115.79295z" fill="#9fa0b3"/><path d="m256 32c-32.05469 0-50.69531 11.96094-74.29688 27.10938-22.5 14.4375-47.88281 31.98437-85.70312 36.89062v320c37.82812 4.89844 63.29688 22.4375 85.86719 36.86719 22.042 14.08935 39.9165 25.29931 68.07373 26.82617-57.84863-5.19436-68.4502-79.69336-137.94092-79.69336v-296c72 0 88-72 144-72z" fill="#f06000"/><path d="m256 8c-80.00732 0-96.00732 64-183.62061 64v368c83.40674 0 102.37793 57.87793 173.02344 63.44775-72.15332-6.74075-73.47949-79.44775-157.40283-79.44775v-344c96 0 72-64 168-72z" fill="#ffc263"/></g></svg>