<svg height="512" viewBox="0 0 512 512" width="512" xmlns="http://www.w3.org/2000/svg"><g id="Deer_Head_Wall_Decoration" data-name="Deer Head Wall Decoration"><path d="m289.33333 312h-66.66666l-46.66667 128s8 64 80 64 80-64 80-64z" fill="#b40011"/><path d="m232 456 24-80v-32h-44.99951l-35.00049 96s8 64 80 64c0 0-24-8-24-48z" fill="#cd2738"/><path d="m328 216-24-24s-20 4-32 16h-32c-12-12-32-16-32-16l-24 24s-27.45947-40-80-40c0 0 0 72 56 72h16c8 0 8 8 8 8 0 24 16 24 16 24v32c0 32 16 40 16 40 0 24 24 32 40 32s40-8 40-32c0 0 16-8 16-40v-32s16 0 16-24c0 0 0-8 8-8h16c56 0 56-72 56-72-52.54053 0-80 40-80 40z" fill="#cd2738"/><path d="m288 296-16 48v37.51709c12.42871-3.91455 24-12.85352 24-29.51709 0 0 16-8 16-40v-32c-16 0-24 16-24 16z" fill="#b40011"/><path d="m224 296 16 48v37.51709c-12.42871-3.91455-24-12.85352-24-29.51709 0 0-16-8-16-40v-32c16 0 24 16 24 16z" fill="#e76b7e"/><path d="m200.50977 240.04346c-.30518-.03516-.50977-.04346-.50977-.04346.18506 0 .32666.0415.50977.04346z" fill="#d94556"/><path d="m311.49023 240.04346c.18311-.002.32471-.04346.50977-.04346 0 0-.20459.0083-.50977.04346z" fill="#d94556"/><path d="m239.99993 375.99994h32.00007a0 0 0 0 1 0 0v16a16 16 0 0 1 -16 16 16 16 0 0 1 -16-16v-16a0 0 0 0 1 -.00007 0z" fill="#2e305e"/><path d="m240 344h32a8 8 0 0 1 8 8v16a24 24 0 0 1 -24 24 24 24 0 0 1 -24-24v-16a8 8 0 0 1 8-8z" fill="#7c7d98"/><path d="m272 344h-24s16 0 16 16v24s0 8-8 8a23.99994 23.99994 0 0 0 24-24v-16a7.99977 7.99977 0 0 0 -8-8z" fill="#525479"/><path d="m192 248s16 0 16 24c0 0-16 0-16-8s8-8 8-8z" fill="#2e305e"/><path d="m320 248s-16 0-16 24c0 0 16 0 16-8s-8-8-8-8z" fill="#2e305e"/><ellipse cx="240" cy="364" fill="#2e305e" rx="8" ry="12"/><ellipse cx="272" cy="364" fill="#2e305e" rx="8" ry="12"/><g fill="#e76b7e"><path d="m216 216s8-8 24-8c-12-12-32-16-32-16v8z"/><path d="m296 216s-8-8-24-8c12-12 32-16 32-16v8z"/><path d="m192 240s24 8 24 32c0 0 8-16 8-24s-32-8-32-8z"/><path d="m320 240s-24 8-24 32c0 0-8-16-8-24s32-8 32-8z"/></g><path d="m112 184s8 48 48 48c0 0 0-48-48-48z" fill="#b40011"/><path d="m400 184s-8 48-48 48c0 0 0-48 48-48z" fill="#b40011"/><path d="m304 192s8-16 24-24v-40h8l8 32c8-8 40-16 40-40s-24-32-24-32v-8c16 0 32 8 32 8 .00359-48-40-72-40-72l-.00038-8s40.00038 8 63.99984 64c.00054-40-23.99946-56-23.99946-56l-.00039-8s48.00039 16 48.00039 64c0 47.99024-24 72-72 96-30.35787 15.17893-48 40-48 40h-8l-8-8z" fill="#f88f19"/><path d="m320 208s17.64209-24.82129 48-40c48-24 72-48.00977 72-96 0-48-48.00049-64-48.00049-64s40.00049 24 40.00049 64-24 64-72 88-56 40-56 40l8 8z" fill="#f4791a"/><path d="m392 88s-16-8-32-8v8s24 8 24 32a24.48682 24.48682 0 0 1 -2.48438 10.74414c4.62793-6.08447 10.48438-18.52783 10.48438-42.74414z" fill="#f4791a"/><path d="m408 88s7.99951-8 7.99951-16l-7.50146-15.00342c-24.75993-43.72004-54.11876-48.51087-56.49854-48.99658 0 0 40.00049 16 56.00049 80z" fill="#f06000"/><path d="m344 160-8-32v32z" fill="#f06000"/><path d="m208 192s-8-16-24-24v-40h-8l-8 32c-8-8-40-16-40-40s24-32 24-32v-8c-16 0-32 8-32 8-.00359-48 40-72 40-72l.00038-8s-40.00038 8-63.99984 64c-.00054-40 23.99946-56 23.99946-56l.00039-8s-48.00039 16-48.00039 64c0 47.99024 24 72 72 96 30.35787 15.17893 48 40 48 40h8l8-8z" fill="#f88f19"/><path d="m192 208s-17.64209-24.82129-48-40c-48-24-72-48.00977-72-96 0-48 48.00049-64 48.00049-64s-40.00049 24-40.00049 64 24 64 72 88 56 40 56 40l-8 8z" fill="#fcaa40"/><path d="m120 88s16-8 32-8v8s-24 8-24 32a24.48682 24.48682 0 0 0 2.48438 10.74414c-4.62793-6.08447-10.48438-18.52783-10.48438-42.74414z" fill="#f4791a"/><path d="m104 88s-7.99951-8-7.99951-16l7.50146-15.00342c24.75993-43.72004 54.11876-48.51087 56.49854-48.99658 0 0-40.00049 16-56.00049 80z" fill="#f06000"/><path d="m168 160 8-32v32z" fill="#f06000"/></g></svg>