<svg height="512" viewBox="0 0 512 512" width="512" xmlns="http://www.w3.org/2000/svg"><path d="m24 104v336h24l14.72922-217.38607a16 16 0 0 1 15.93985-14.61393h354.66186a16 16 0 0 1 15.93985 14.61393l14.72922 217.38607h24v-336z" fill="#525479"/><path d="m56 344h-32l24 96z" fill="#2e305e"/><path d="m24 104s96 16 232 16 232-16 232-16z" fill="#2e305e"/><path d="m8 72h496v32h-496z" fill="#7c7d98"/><path d="m232 128h208v64h-208z" fill="#2e305e"/><path d="m40 120h192a0 0 0 0 1 0 0v192a32 32 0 0 1 -32 32h-160a0 0 0 0 1 0 0v-224a0 0 0 0 1 0 0z" fill="#525479"/><path d="m48 120h160v200h-160z" fill="#7c7d98"/><path d="m48 120s16 32 16 96-16 104-16 104z" fill="#9fa0b3"/><g fill="#2e305e"><path d="m48 184h160s-32 16-80 16-80-16-80-16z"/><path d="m48 256h160s-32 16-80 16-80-16-80-16z"/><path d="m208 120s8 40 8 96a709.40837 709.40837 0 0 1 -8 104z"/></g><rect fill="#525479" height="24" rx="8" width="48" x="104" y="128"/><rect fill="#2e305e" height="16" rx="8" width="48" x="104" y="128"/><rect fill="#525479" height="24" rx="8" width="48" x="104" y="200"/><rect fill="#2e305e" height="16" rx="8" width="48" x="104" y="200"/><rect fill="#525479" height="24" rx="8" width="48" x="104" y="272"/><rect fill="#2e305e" height="16" rx="8" width="48" x="104" y="272"/><path d="m24 440 16-336h-16z" fill="#7c7d98"/><path d="m440 128s8 16 8 32-8 31.99442-8 31.99442z" fill="#7c7d98"/><path d="m232 104v104s16-8 16-48-16-56-16-56z" fill="#2e305e"/><path d="m8 72s72 16 256 16 240-16 240-16z" fill="#9fa0b3"/><path d="m439.55078 209.2876a15.97975 15.97975 0 0 1 9.72022 13.32617l14.729 217.38623-7.17285-208.01416a24.761 24.761 0 0 0 -17.27637-22.69824z" fill="#7c7d98"/></svg>