<svg height="512" viewBox="0 0 512 512" width="512" xmlns="http://www.w3.org/2000/svg"><g id="Dining_Table" data-name="Dining Table"><path d="m400 96v-8h-96v8a23.087 23.087 0 0 0 14.98145 21.61768l38.39843 14.3999a23.99768 23.99768 0 0 1 14.28512 14.71582l100.14311 293.2666h16.19189z" fill="#f06000"/><path d="m112 88v8l-88 344h16.19189l100.14311-293.2666a23.99768 23.99768 0 0 1 14.28516-14.71582l38.39843-14.3999a23.087 23.087 0 0 0 14.98141-21.61768v-8z" fill="#f06000"/><path d="m8 72h496v24h-496z" fill="#f88f19"/><path d="m8 72s104 16 248 16 248-16 248-16z" fill="#ffc263"/><g fill="#f88f19"><path d="m368 136 104 304-80-320c-24 0-24 16-24 16z"/><path d="m104.54834 125.12842-80.54834 314.87158 104-320a67.578 67.578 0 0 0 -23.45166 5.12842z"/></g></g></svg>