<svg height="512" viewBox="0 0 512 512" width="512" xmlns="http://www.w3.org/2000/svg"><g id="Director_Chair" data-name="Director Chair"><rect fill="#f4791a" height="32" rx="16" width="160" x="176" y="272"/><rect fill="#f88f19" height="32" rx="16" width="96" x="240" y="272"/><circle cx="264" cy="296" fill="#f06000" r="8"/><path d="m256 272a16 16 0 0 0 0 32s-8-8-8-16 8-16 8-16z" fill="#fcaa40"/><circle cx="256" cy="288" fill="#ffc263" r="8"/><path d="m108 8a12 12 0 0 1 12 12v180a0 0 0 0 1 0 0h-24a0 0 0 0 1 0 0v-180a12 12 0 0 1 12-12z" fill="#284881"/><path d="m96 24h24v96h-24z" fill="#0c2b69"/><path d="m404 8a12 12 0 0 1 12 12v180a0 0 0 0 1 0 0h-24a0 0 0 0 1 0 0v-180a12 12 0 0 1 12-12z" fill="#284881"/><path d="m392 24h24v96h-24z" fill="#0c2b69"/><path d="m96 24v88s58.94737 8 160 8 160-8 160-8v-88s-50.52632 8-160 8-160-8-160-8z" fill="#cd2738"/><path d="m96 24v88s58.94737 8 160 8 160-8 160-8v-88s-50.52632 8-160 8-160-8-160-8z" fill="#cd2738"/><path d="m392 32s16 8 16 32-16 40-16 40z" fill="#d94556"/><path d="m96 24s16 16 16 40-16 48-16 48z" fill="#e76b7e"/><path d="m88 96h24v80h-24z" fill="#7a93bb"/><path d="m400 96h24v80h-24z" fill="#4e6a9b" transform="matrix(-1 0 0 -1 824 272)"/><rect fill="#e76b7e" height="24" rx="8" width="40" x="80" y="168"/><rect fill="#e76b7e" height="24" rx="8" transform="matrix(-1 0 0 -1 824 360)" width="40" x="392" y="168"/><path d="m88 208s0-24 24-24h288c24 0 24 24 24 24z" fill="#cd2738"/><path d="m410.893 220.969-285.9801 278.25088a16.87453 16.87453 0 0 1 -11.76754 4.78012h-.27083a16.87452 16.87452 0 0 1 -16.87453-16.87453 16.87455 16.87455 0 0 1 5.107-12.09442l285.9801-278.25093a16.87453 16.87453 0 0 1 11.76754-4.78012h.27083a16.87452 16.87452 0 0 1 16.87453 16.87453 16.87455 16.87455 0 0 1 -5.107 12.09447z" fill="#284881"/><path d="m410.893 220.969-285.9801 278.25088a16.87453 16.87453 0 0 1 -11.76754 4.78012h-.27083a16.87452 16.87452 0 0 1 -16.87453-16.87453 16.87455 16.87455 0 0 1 5.107-12.09442l285.9801-278.25093a16.87453 16.87453 0 0 1 11.76754-4.78012h.27083a16.87452 16.87452 0 0 1 16.87453 16.87453 16.87455 16.87455 0 0 1 -5.107 12.09447z" fill="#284881"/><path d="m328 288a7.99977 7.99977 0 0 0 -8 8 7.89 7.89 0 0 0 5.97559 7.59131l9.65966-9.39893a7.88573 7.88573 0 0 0 -7.63525-6.19238z" fill="#0c2b69"/><path d="m104 480s52-28 152-128 136-152 136-152z" fill="#0c2b69"/><path d="m399.72217 192.06006c-.20264-.00733-.39258-.06006-.59668-.06006h-.271a16.87591 16.87591 0 0 0 -11.76758 4.77979l-285.98 278.251a16.87467 16.87467 0 0 0 -5.10691 12.0947c0 .272.06738.52539.08008.79443l7.91992-7.91992z" fill="#7a93bb"/><path d="m101.107 220.969 285.9801 278.25088a16.87453 16.87453 0 0 0 11.76754 4.78012h.27083a16.87452 16.87452 0 0 0 16.87453-16.87453 16.87455 16.87455 0 0 0 -5.107-12.09442l-285.9801-278.25093a16.87453 16.87453 0 0 0 -11.76754-4.78012h-.27083a16.87452 16.87452 0 0 0 -16.87453 16.87453 16.87455 16.87455 0 0 0 5.107 12.09447z" fill="#284881"/><path d="m101.107 220.969 285.9801 278.25088a16.87453 16.87453 0 0 0 11.76754 4.78012h.27083a16.87452 16.87452 0 0 0 16.87453-16.87453 16.87455 16.87455 0 0 0 -5.107-12.09442l-285.9801-278.25093a16.87453 16.87453 0 0 0 -11.76754-4.78012h-.27083a16.87452 16.87452 0 0 0 -16.87453 16.87453 16.87455 16.87455 0 0 0 5.107 12.09447z" fill="#4e6a9b"/><circle cx="112" cy="208" fill="#284881" r="16"/><path d="m120 200s36.00573 60.00574 128 152 160 128 160 128z" fill="#284881"/><circle cx="200" cy="296" fill="#0c2b69" r="8"/><path d="m124.91309 196.77979a16.87591 16.87591 0 0 0 -11.76758-4.77979h-.271c-.208 0-.40039.05371-.60644.061l303.6333 296.043c.019-.33007.09863-.64355.09863-.97851a16.87467 16.87467 0 0 0 -5.10693-12.09473z" fill="#95adcf"/><circle cx="260" cy="356" fill="#284881" r="12"/><circle cx="104" cy="208" fill="#7a93bb" r="16"/><circle cx="408" cy="208" fill="#4e6a9b" r="16"/><rect fill="#cd2738" height="24" rx="8" width="56" x="72" y="80"/><path d="m120 104a8 8 0 0 0 8-8v-8a8 8 0 0 0 -8-8h-8a8 8 0 0 1 8 8v8a8 8 0 0 1 -8 8" fill="#b40011"/><circle cx="252" cy="348" fill="#f4791a" r="12"/><ellipse cx="248" cy="344" fill="#ffc263" rx="10.117" ry="5.059" transform="matrix(.707 -.707 .707 .707 -170.607 276.118)"/><path d="m112 184s48 16 144 16 144-16 144-16z" fill="#e76b7e"/><path d="m88 104s8 16 8 32-8 32-8 32z" fill="#95adcf"/><path d="m400 104s8 16 8 32-8 32-8 32z" fill="#7a93bb"/><path d="m88 104 24 16v-16z" fill="#4e6a9b"/><path d="m400 104 24 16v-16z" fill="#284881"/><path d="m80 96v-8c0-8 8-8 8-8h-8a7.99977 7.99977 0 0 0 -8 8v8a8.00008 8.00008 0 0 0 8 8h8c-8 0-8-8-8-8z" fill="#d94556"/><path d="m80 80s0 8 16 8 16-8 16-8z" fill="#e76b7e"/><rect fill="#cd2738" height="24" rx="8" transform="matrix(-1 0 0 -1 824 184)" width="56" x="384" y="80"/><path d="m392 104a8 8 0 0 1 -8-8v-8a8 8 0 0 1 8-8h8a8 8 0 0 0 -8 8v8a8 8 0 0 0 8 8" fill="#d94556"/><path d="m392 80s0 8 16 8 16-8 16-8z" fill="#f59caa"/><path d="m432 104a8 8 0 0 0 8-8v-8a8 8 0 0 0 -8-8h-8a8 8 0 0 1 8 8v8a8 8 0 0 1 -8 8" fill="#b40011"/><path d="m416 24s-50.52637 8-160 8-160-8-160-8 56.001 24 160 24 160-24 160-24z" fill="#e76b7e"/><path d="m103.63184 223.96289c-1.56006-.22998-7.63184-2.0166-7.63184-15.96289s6.07178-15.73291 7.63184-15.96289a15.9664 15.9664 0 0 0 0 31.92578z" fill="#95adcf"/><path d="m407.63184 223.96289c-1.56006-.22999-7.63184-2.01661-7.63184-15.96289s6.07178-15.73291 7.63184-15.96289a15.9664 15.9664 0 0 0 0 31.92579z" fill="#95adcf"/><g fill="#f4791a"><circle cx="192" cy="288" r="8"/><circle cx="320" cy="288" r="8"/></g></g></svg>