<svg height="512" viewBox="0 0 512 512" width="512" xmlns="http://www.w3.org/2000/svg"><g id="Double_Doors" data-name="Double Doors"><path d="m32 40h224v432h-224z" fill="#7c7d98"/><path d="m64 272h160v160h-160z" fill="#525479"/><path d="m96 272v160s16-25.26316 16-75.78947-16-84.21053-16-84.21053" fill="#2e305e"/><path d="m136 272v160s16-25.26316 16-75.78947-16-84.21053-16-84.21053" fill="#2e305e"/><path d="m176 272v160s16-25.26316 16-75.78947-16-84.21053-16-84.21053" fill="#2e305e"/><path d="m224 288h-144v144h-16v-160h160z" fill="#2e305e"/><path d="m64 80h160v152h-160z" fill="#525479"/><path d="m192 432h32v-32l-128-128h-32v32z" fill="#7c7d98"/><path d="m224 304v-32h-32l-128 128v32h32z" fill="#7c7d98"/><path d="m256 40h224v432h-224z" fill="#7c7d98"/><path d="m288 272h160v160h-160z" fill="#525479"/><path d="m448 288h-144v144h-16v-160h160z" fill="#2e305e"/><path d="m328 272v160s16-25.26316 16-75.78947-16-84.21053-16-84.21053" fill="#2e305e"/><path d="m368 272v160s16-25.26316 16-75.78947-16-84.21053-16-84.21053" fill="#2e305e"/><path d="m408 272v160s16-25.26316 16-75.78947-16-84.21053-16-84.21053" fill="#2e305e"/><path d="m288 80h160v152h-160z" fill="#525479"/><path d="m416 432h32v-32l-128-128h-32v32z" fill="#7c7d98"/><path d="m448 304v-32h-32l-128 128v32h32z" fill="#7c7d98"/><path d="m96 80v152s16-24 16-72-16-80-16-80" fill="#2e305e"/><path d="m136 80v152s16-24 16-72-16-80-16-80" fill="#2e305e"/><path d="m176 80v152s16-24 16-72-16-80-16-80" fill="#2e305e"/><g fill="#9fa0b3"><path d="m224 80v152s16-24 16-72-16-80-16-80z"/><path d="m32 40s16 48 16 224-16 208-16 208z"/><path d="m448 80v152s16-24 16-72-16-80-16-80"/><path d="m224 272v160s16-25.26316 16-75.78947-16-84.21053-16-84.21053z"/><path d="m448 272v160s16-25.26316 16-75.78947-16-84.21053-16-84.21053"/></g><path d="m328 80v152s16-24 16-72-16-80-16-80" fill="#2e305e"/><path d="m368 80v152s16-24 16-72-16-80-16-80" fill="#2e305e"/><path d="m408 80v152s16-24 16-72-16-80-16-80" fill="#2e305e"/><path d="m64 232s24 16 80 16 80-16 80-16z" fill="#9fa0b3"/><path d="m288 232s24 16 80 16 80-16 80-16z" fill="#9fa0b3"/><path d="m64 432s24 16 80 16 80-16 80-16z" fill="#9fa0b3"/><path d="m288 432s24 16 80 16 80-16 80-16z" fill="#9fa0b3"/><path d="m144 320 32 32s4-12-8-24-24-8-24-8z" fill="#525479"/><path d="m112 352 32 32s0-16-8-24-24-8-24-8z" fill="#9fa0b3"/><path d="m368 320 32 32s4-12-8-24-24-8-24-8z" fill="#525479"/><path d="m336 352 32 32s0-16-8-24-24-8-24-8z" fill="#9fa0b3"/><path d="m64 272v32s16-8 16-16-16-16-16-16z" fill="#525479"/><path d="m64 400v32s16-8 16-16-16-16-16-16z" fill="#525479"/><path d="m288 272v32s16-8 16-16-16-16-16-16z" fill="#525479"/><path d="m288 400v32s16-8 16-16-16-16-16-16z" fill="#525479"/><path d="m32 40s64 16 224 16 224-16 224-16z" fill="#9fa0b3"/><path d="m448 96h-144v136h-16v-152h160z" fill="#2e305e"/><path d="m224 96h-144v136h-16v-152h160z" fill="#2e305e"/></g></svg>