<svg height="512" viewBox="0 0 512 512" width="512" xmlns="http://www.w3.org/2000/svg"><g id="Double_Windows" data-name="Double Windows"><path d="m8 72h496v368h-496z" fill="#f88f19"/><path d="m8 72s16 72 16 184-16 184-16 184z" fill="#fcaa40"/><path d="m48 112h416v288h-416z" fill="#9fa0b3"/><path d="m440 112h-160l-232 232v56h104z" fill="#cbccd6"/><path d="m360 400 104-104v-88l-192 192z" fill="#cbccd6"/><path d="m424 248v-120h40v-16h-416v288h16v-120h216v120h16v-120h168v-16h-168-16-216v-136h48v120h16v-120h48v120h16v-120h88v120h16v-120h48v120h16v-120h48v120z" fill="#525479"/><path d="m392 280h72v-16h-56z" fill="#9fa0b3"/><path d="m280 392v8h16v-24z" fill="#9fa0b3"/><path d="m192 200-16 16v32h16z" fill="#9fa0b3"/><path d="m48 344v56h16v-72z" fill="#9fa0b3"/><path d="m280 128v120h16v-120h48v80l16-16v-64h48v16l32-32h-160l-16 16z" fill="#9fa0b3"/><path d="m288 264h-160l-16 16h160z" fill="#9fa0b3"/><path d="m392 280h72v-16h-56z" fill="#9fa0b3"/><path d="m232 72h48v368h-48z" fill="#f88f19"/><path d="m232 72s16 72 16 184-16 184-16 184z" fill="#fcaa40"/><path d="m464 72s16 72 16 184-16 184-16 184z" fill="#fcaa40"/><path d="m176 112h-16v136h-48v-136h-16v136h-48v16h184v-16h-56z" fill="#f88f19"/><path d="m408 248v-136h-16v136h-48v-136h-16v136h-48v16h184v-16z" fill="#f88f19"/><path d="m8 72s56 16 248 16 248-16 248-16z" fill="#ffc263"/><g fill="#f06000"><path d="m48 112v-40s8 10 8 20-8 20-8 20z"/><path d="m48 440v-40s8 10 8 20-8 20-8 20z"/><path d="m280 112v-40s8 10 8 20-8 20-8 20z"/><path d="m280 440v-40s8 10 8 20-8 20-8 20z"/><path d="m48 264 16-16h-16z"/><path d="m280 264 16-16h-16z"/><path d="m408 112-16 16v-16z"/><path d="m344 112-16 16v-16z"/><path d="m176 112-16 16v-16z"/><path d="m112 112-16 16v-16z"/><path d="m96 248 16-16v16z"/><path d="m160 248 16-16v16z"/><path d="m328 248 16-16v16z"/><path d="m392 248 16-16v16z"/></g><path d="m48 400s32 16 96 16 88-16 88-16z" fill="#ffc263"/><path d="m280 400s32 16 96 16 88-16 88-16z" fill="#ffc263"/><path d="m464 112s-32-16-96-16-88 16-88 16z" fill="#f06000"/><path d="m232 112s-32-16-96-16-88 16-88 16z" fill="#f06000"/></g></svg>