<svg height="512" viewBox="0 0 512 512" width="512" xmlns="http://www.w3.org/2000/svg"><g id="Dressing_Table" data-name="Dressing Table"><path d="m160 8h192v256h-192z" fill="#cbccd6"/><path d="m184 32h144v208h-144z" fill="#9fa0b3"/><path d="m184 160 128-128h16v112l-96 96h-48z" fill="#cbccd6"/><path d="m184 32h16v208h-16z" fill="#525479"/><path d="m184 160v80h16v-96z" fill="#9fa0b3"/><path d="m72 264h368v216h-368z" fill="#9fa0b3"/><path d="m104 264h304s-64 16-152 16-152-16-152-16z" fill="#cbccd6"/><path d="m96 288h320v192h-320z" fill="#cbccd6"/><g fill="#9fa0b3"><path d="m164 316h48v16h-48z"/><path d="m164 388h48v16h-48z"/><path d="m164 452h48v16h-48z"/><path d="m324 316h48v16h-48z"/><path d="m324 388h48v16h-48z"/><path d="m324 452h48v16h-48z"/></g><path d="m256 288s16 13.33333 16 32-16 32-16 32z" fill="#7c7d98"/><path d="m256 352s16 13.33333 16 32-16 32-16 32z" fill="#7c7d98"/><path d="m256 416s16 13.33333 16 32-16 32-16 32z" fill="#7c7d98"/><path d="m72 456h24v48h-24z" fill="#9fa0b3"/><path d="m416 456h24v48h-24z" fill="#9fa0b3"/><path d="m96 352h160s-32 16-80 16-80-16-80-16z" fill="#9fa0b3"/><path d="m96 416h160s-32 16-80 16-80-16-80-16z" fill="#9fa0b3"/><path d="m256 352h160s-32 16-80 16-80-16-80-16z" fill="#9fa0b3"/><path d="m256 416h160s-32 16-80 16-80-16-80-16z" fill="#9fa0b3"/><path d="m416 288s16 40 16 96-16 96-16 96z" fill="#525479"/><path d="m152 304h48v16h-48z" fill="#7c7d98"/><path d="m152 376h48v16h-48z" fill="#7c7d98"/><path d="m152 440h48v16h-48z" fill="#7c7d98"/><path d="m312 304h48v16h-48z" fill="#7c7d98"/><path d="m312 376h48v16h-48z" fill="#7c7d98"/><path d="m312 440h48v16h-48z" fill="#7c7d98"/><path d="m72 264s16 56 16 120-16 120-16 120z" fill="#cbccd6"/><path d="m192 32h136v16h-136z" fill="#525479"/><path d="m312 32-16 16h32v-16z" fill="#9fa0b3"/><path d="m160 264s40-16 96-16 96 16 96 16z" fill="#9fa0b3"/></g></svg>