<svg height="512" viewBox="0 0 512 512" width="512" xmlns="http://www.w3.org/2000/svg"><path d="m40 72h432v368h-432z" fill="#f4791a"/><path d="m104 200s32 16 152 16 152-16 152-16z" fill="#f06000"/><path d="m136 96v16h-16v328h-16v-344z" fill="#f06000"/><path d="m40 88h64v288h-64z" fill="#f88f19"/><path d="m40 88h16v288h-16z" fill="#ffc263"/><path d="m40 112 48 16v72h-48l48 16v144h16v-248z" fill="#f4791a"/><path d="m408 88h64v288h-64z" fill="#f88f19"/><path d="m408 112 48 16v72h-48l48 16v144h16v-248z" fill="#f06000"/><path d="m24 176h464v24h-464z" fill="#f88f19"/><g fill="#fcaa40"><path d="m24 88h96v24h-96z"/><path d="m392 88h96v24h-96z"/><path d="m8 72h496v24h-496z"/><path d="m8 160h496v24h-496z"/></g><path d="m392 440h-272v-192s56-32 136-32 136 32 136 32z" fill="#4e6a9b"/><path d="m360 272s16 24 16 72-16 72-16 72z" fill="#7a93bb"/><path d="m152 272h208v144h-208z" fill="#284881"/><path d="m24 360h80v80h-80z" fill="#fcaa40"/><path d="m72 360h32v80h-32z" fill="#f88f19"/><path d="m408 360h80v80h-80z" fill="#fcaa40"/><path d="m456 360h32v80h-32z" fill="#f4791a"/><path d="m424 360v80s16-16 16-40-16-40-16-40z" fill="#f88f19"/><path d="m456 360v80s16-16 16-40-16-40-16-40z" fill="#f06000"/><path d="m128 120h256v24h-256z" fill="#f88f19"/><path d="m128 120s40 16 128 16 128-16 128-16z" fill="#fcaa40"/><path d="m24 96s16 16 48 16 48-16 48-16z" fill="#f88f19"/><path d="m392 96s16 16 48 16 48-16 48-16z" fill="#f88f19"/><path d="m8 72s48 16 248 16 248-16 248-16z" fill="#ffc263"/><path d="m8 160s48 16 248 16 248-16 248-16z" fill="#ffc263"/><path d="m40 360v80s16-16 16-40-16-40-16-40z" fill="#f88f19"/><path d="m72 360v80s16-16 16-40-16-40-16-40z" fill="#f4791a"/><path d="m152 416s32-32 104-32 104 32 104 32z" fill="#0c2b69"/><path d="m152 416h208s-40 16-104 16-104-16-104-16z" fill="#95adcf"/><path d="m256 216c-80 0-136 32-136 32v192h16v-184s40-24 120-40z" fill="#284881"/></svg>