<svg height="512" viewBox="0 0 512 512" width="512" xmlns="http://www.w3.org/2000/svg"><g id="Floor_Lamp" data-name="Floor Lamp"><path d="m248 72h16v432h-16z" fill="#2e305e"/><path d="m304.00586 488h-8.00586s0-16-16-16h-48c-16 0-16 16-16 16h-8.00586c-15.99951 0-15.99414 16-15.99414 16h128s.00537-16-15.99414-16z" fill="#525479"/><path d="m256 8c-56.01172 0-88 8-88 8s0 16 24 16c0 0 8 40 56 40h16c48 0 56-40 56-40 24 0 24-16 24-16s-31.98828-8-88-8z" fill="#fcaa40"/><path d="m344 16s-14.1582-3.51563-40-5.88574v5.88574c0 16-16 16-16 16h32c24 0 24-16 24-16z" fill="#f88f19"/><path d="m208.14746 10.10059c.64697 5.83593 4.20801 21.89941 23.85254 21.89941 0 0-8-8-8-16v-7.0752q-8.53711.49806-15.85254 1.17579z" fill="#ffc263"/><path d="m256 72h-8c-48 0-56-40-56-40h24c0 40 40 40 40 40z" fill="#ffc263"/><path d="m184.79834 12.88721c-10.95947 1.66308-16.79834 3.11279-16.79834 3.11279s0 16 24 16h24c-22.748 0-29.30029-12.1001-31.20166-19.11279z" fill="#ffc263"/><circle cx="256" cy="56" fill="#f88f19" r="16"/><ellipse cx="248" cy="48" fill="#ffc263" rx="9.669" ry="5.871" transform="matrix(.707 -.707 .707 .707 38.696 189.421)"/><path d="m256 72h-24s0 16 16 16-8 0-8 8 8 8 8 8h16s8 0 8-8-8-8-8-8 16 0 16-16z" fill="#525479"/><path d="m232 480h48v-8s0-16-16-16 8 0 8-8-8-8-8-8h-16s-8 0-8 8 8 8 8 8-16 0-16 16z" fill="#525479"/><path d="m264 456h-8s8 0 8 8-8 8-8 8h24s0-16-16-16z" fill="#2e305e"/><rect fill="#525479" height="16" rx="8" width="32" x="240" y="248"/><path d="m192 32s24-8 64-8 64 8 64 8z" fill="#f88f19"/><path d="m256 72h8c48 0 56-40 56-40h-24c0 40-40 40-40 40z" fill="#f88f19"/><g fill="#2e305e"><path d="m264 88h-16s16 0 16 8-8 8-8 8h8s8 0 8-8-8-8-8-8z"/><path d="m264 80c0 8-8 8-8 8h8s16 0 16-16h-32s16 0 16 8z"/><path d="m264 248h-8s8 0 8 8-8 8-8 8h8a8 8 0 0 0 0-16z"/><path d="m264 440h-8s8 0 8 8-8 8-8 8h8a8 8 0 0 0 0-16z"/><path d="m256 480v8h40s0-16-16-16h-32s8 0 8 8z"/><path d="m304.00586 488h-64.00586s8 0 8 8v8h72s.00537-16-15.99414-16z"/></g><path d="m216 488h-8.00586c-15.99951 0-15.99414 16-15.99414 16h16v-8c-.00586-8 8-8 8-8z" fill="#7c7d98"/><path d="m240 472h-8.00586c-15.99951 0-15.99414 16-15.99414 16h16v-8c-.00586-8 8-8 8-8z" fill="#7c7d98"/><path d="m240 472v-8c0-7 6.125-7.875 7.65625-7.98438-1.75781.0586-15.65625.98438-15.65625 15.98438z" fill="#7c7d98"/></g></svg>