<svg height="512" viewBox="0 0 512 512" width="512" xmlns="http://www.w3.org/2000/svg"><g id="Folding_Chair" data-name="Folding Chair"><path d="m408 392h16l-11.82551-76.86583a32 32 0 0 0 -31.6279-27.13417h-249.09318a32 32 0 0 0 -31.6279 27.13417l-11.82551 76.86583h16l12.38772-74.6203a16 16 0 0 1 15.78398-13.3797h247.6566a16 16 0 0 1 15.784 13.3797z" fill="#2e305e"/><path d="m416 504a8 8 0 0 1 -8-8v-16c0-8 8-8 8-8h16c7.99661 0 8 8 8 8v16a8 8 0 0 1 -8 8z" fill="#2e305e"/><path d="m416 472h16l-32-344h-16l22.25671 239.259a8 8 0 0 1 -7.96561 8.741h-284.07625a8 8 0 0 1 -7.96714-8.72428l21.75229-239.27572h-16l-32 344h16l7.2796-72.796a8 8 0 0 1 7.9603-7.204h290.02786a8 8 0 0 1 7.96561 7.259z" fill="#7c7d98"/><path d="m401.43748 143.4541-1.43748-15.4541h-16l.86182 9.26367a37.33112 37.33112 0 0 0 16.57566 6.19043z" fill="#525479"/><path d="m126.85742 140.56787 1.14258-12.56787h-16s4.11768 7.875 14.85742 12.56787z" fill="#525479"/><path d="m412.5293 360.38086-11.88916-53.5 5.6167 60.37793a7.87411 7.87411 0 0 1 -6.25684 8.375v.36621a12.83494 12.83494 0 0 0 12.5293-15.61914z" fill="#9fa0b3"/><path d="m409.57959 230.98193c-5.85107-5.709-13.94678-6.76172-16.64551-6.94043l7.33057 78.80079c9.10156-2.76075 12.9414-9.96436 14.55224-15.562z" fill="#525479"/><path d="m104 248h304a0 0 0 0 1 0 0v24a16 16 0 0 1 -16 16h-272a16 16 0 0 1 -16-16v-24a0 0 0 0 1 0 0z" fill="#9fa0b3"/><path d="m104 248s0-24 24-24h256c24 0 24 24 24 24z" fill="#284881"/><path d="m104 248s40 16 152 16 152-16 152-16z" fill="#cbccd6"/><path d="m80 504a8 8 0 0 1 -8-8v-16c0-8 8-8 8-8h16c7.99661 0 8 8 8 8v16a8 8 0 0 1 -8 8z" fill="#2e305e"/><path d="m128 224s40 16 128 16 128-16 128-16z" fill="#7a93bb"/><path d="m392 48s-7.99316-40-47.99316-40h-176.01368c-40 0-47.99316 40-47.99316 40l-8 80s32 8 144 8 144-8 144-8z" fill="#284881"/><path d="m344.00684 8h-176.01368c-40 0-47.99316 40-47.99316 40l-8 80s8-56 16-80 32-24 32-24h192s24 0 32 24 16 80 16 80l-8-80s-7.99316-40-47.99316-40z" fill="#4e6a9b"/><path d="m167.99316 16s24.00684 8 88.00684 8 88.00684-8 88.00684-8-32.00684-8-88.00684-8-88.00684 8-88.00684 8z" fill="#95adcf"/><path d="m112 128s16-24 16-48-8-32-8-32z" fill="#7a93bb"/><path d="m88 504s-8 0-8-8v-16c0-8 8-8 8-8h-8s-8 0-8 8v16a8 8 0 0 0 8 8z" fill="#525479"/><path d="m424 504s-8 0-8-8v-16c0-8 8-8 8-8h-8s-8 0-8 8v16a8 8 0 0 0 8 8z" fill="#525479"/><path d="m402.71094 392.27344a8.06118 8.06118 0 0 1 .88965.16845c-.29395-.06789-.58985-.11718-.88965-.16845z" fill="#7c7d98"/><path d="m404.43311 392.7002a7.96851 7.96851 0 0 1 4.80029 6.55859l6.7666 72.74121v-64a15.94875 15.94875 0 0 0 -11.56689-15.2998z" fill="#9fa0b3"/><g fill="#525479"><path d="m99.4707 360.38086 11.88916-53.5-5.6167 60.37793a7.87411 7.87411 0 0 0 6.25684 8.375v.36621a12.83494 12.83494 0 0 1 -12.5293-15.61914z"/><path d="m109.28906 392.27344a8.06118 8.06118 0 0 0 -.88965.16845c.29395-.06789.58985-.11718.88965-.16845z"/><path d="m107.56689 392.7002a7.96851 7.96851 0 0 0 -4.80029 6.55859l-6.7666 72.74121v-64a15.94875 15.94875 0 0 1 11.56689-15.2998z"/></g><path d="m384 120-8-64s0-24-24-24z" fill="#4e6a9b"/><path d="m136 112s40 8 120 8 112-8 112-8z" fill="#4e6a9b"/></g></svg>