<svg height="512" viewBox="0 0 512 512" width="512" xmlns="http://www.w3.org/2000/svg"><g id="Hanging_Lamp" data-name="Hanging Lamp"><path d="m248 8h16v248h-16z" fill="#2e305e"/><rect fill="#2e305e" height="32" rx="8" width="32" x="240" y="240"/><circle cx="256" cy="456" fill="#f06000" r="48"/><circle cx="248" cy="448" fill="#fcaa40" r="40"/><path d="m224 456 64 16v-16z" fill="#f06000"/><path d="m432 440h-8l-120-64v-32h-96v32l-120 64h-8a8 8 0 0 0 0 16h352a8 8 0 0 0 0-16z" fill="#2e305e"/><rect fill="#9fa0b3" height="16" rx="8" width="368" x="72" y="440"/><path d="m307.31348 315.31348-16.97022-16.97022a7.99988 7.99988 0 0 1 -2.34326-5.65726v-20.686a15.99985 15.99985 0 0 0 -16-16h-32a15.99985 15.99985 0 0 0 -16 16v20.686a7.99988 7.99988 0 0 1 -2.34326 5.65722l-16.97022 16.97022a15.99867 15.99867 0 0 0 -4.68652 11.314v17.37256a8.00008 8.00008 0 0 0 8 8h96a8.00008 8.00008 0 0 0 8-8v-17.37256a15.99867 15.99867 0 0 0 -4.68652-11.31396z" fill="#2e305e"/><path d="m216 344v-16c0-8 16-16 16-16s8-8 8-24v-16c0-16 16-16 16-16h-16a15.99985 15.99985 0 0 0 -16 16v20.686a7.99988 7.99988 0 0 1 -2.34326 5.65722l-16.97022 16.97022a15.99867 15.99867 0 0 0 -4.68652 11.314v17.37256a8.00008 8.00008 0 0 0 8 8h16c-8 0-8-8-8-8z" fill="#9fa0b3"/><path d="m232 376c0-24 16-24 16-24h-40v24z" fill="#525479"/><path d="m256 440s-8 0-8 8 8 8 8 8h-176a8 8 0 0 1 -8-8 8 8 0 0 1 8-8z" fill="#cbccd6"/><path d="m232 424v-48h-24l-120 64h160c-16 0-16-16-16-16z" fill="#525479"/></g></svg>