<svg height="512" viewBox="0 0 512 512" width="512" xmlns="http://www.w3.org/2000/svg"><g id="Infant_Bed" data-name="Infant Bed"><path d="m64 256h384a32 32 0 0 1 32 32v40a0 0 0 0 1 0 0h-448a0 0 0 0 1 0 0v-40a32 32 0 0 1 32-32z" fill="#f88f19"/><path d="m32 312s88-16 240-16 208 16 208 16z" fill="#f06000"/><path d="m88 256c0 24-8 32-8 56h-16v-56z" fill="#f06000"/><path d="m64 256s40 16 200 16 184-16 184-16z" fill="#ffc263"/><g fill="#f06000"><path d="m144 256c0 24-8 32-8 56h-16v-56z"/><path d="m200 256c0 24-8 32-8 56h-16v-56z"/><path d="m256 256c0 24-8 32-8 56h-16v-56z"/><path d="m312 256c0 24-8 32-8 56h-16v-56z"/><path d="m368 256c0 24-8 32-8 56h-16v-56z"/><path d="m424 256c0 24-8 32-8 56h-16v-56z"/><path d="m456 257.13135v54.86865h16c0-15.69482 3.39746-24.59473 5.76562-35.55371a31.92578 31.92578 0 0 0 -21.76562-19.31494z"/></g><path d="m256 72c-123.15077 0-199.01028 17.19329-230.73989 26.37447a23.92825 23.92825 0 0 0 -17.26011 23.04069v46.58484h496v-46.58484a23.92825 23.92825 0 0 0 -17.26011-23.04069c-31.72961-9.18118-107.58912-26.37447-230.73989-26.37447z" fill="#4260c9"/><path d="m232 168h-8c0 24-8 42-8 72s8 48 8 72h8c0-24 8-42 8-72s-8-48-8-72z" fill="#6d86d6"/><path d="m288 168h-8c0 24-8 42-8 72s8 48 8 72h8c0-24 8-42 8-72s-8-48-8-72z" fill="#6d86d6"/><path d="m344 168h-8c0 24-8 42-8 72s8 48 8 72h8c0-24 8-42 8-72s-8-48-8-72z" fill="#6d86d6"/><path d="m400 168h-8c0 24-8 42-8 72s8 48 8 72h8c0-24 8-42 8-72s-8-48-8-72z" fill="#6d86d6"/><path d="m456 184h-8c0 21.33333-8 37.33333-8 64s8 42.66667 8 64h8c0-21.33333 8-37.33333 8-64s-8-42.66667-8-64z" fill="#6d86d6"/><path d="m176 168h-8c0 24-8 42-8 72s8 48 8 72h8c0-24 8-42 8-72s-8-48-8-72z" fill="#6d86d6"/><path d="m120 168h-8c0 24-8 42-8 72s8 48 8 72h8c0-24 8-42 8-72s-8-48-8-72z" fill="#6d86d6"/><path d="m120 168h-8c0 3.04883-.13281 5.99854-.3584 8.89062-.03076.38868-.09033.76124-.124 1.14795-.21875 2.51026-.48145 4.99463-.81836 7.4458l-.00049.00342c4.38865 1.75684 9.30125 5.62598 9.30125 14.51221v80c0 8.88623-4.9126 12.75537-9.30127 14.51221a126.81428 126.81428 0 0 1 1.30127 17.48779h8c0-24 8-42 8-72s-8-48-8-72z" fill="#4260c9"/><path d="m176 168h-8c0 3.04883-.13281 5.99854-.3584 8.89062-.03076.38868-.09033.76124-.124 1.14795-.21875 2.51026-.48145 4.99463-.81836 7.4458l-.00049.00342c4.38865 1.75684 9.30125 5.62598 9.30125 14.51221v80c0 8.88623-4.9126 12.75537-9.30127 14.51221a126.81428 126.81428 0 0 1 1.30127 17.48779h8c0-24 8-42 8-72s-8-48-8-72z" fill="#4260c9"/><path d="m232 168h-8c0 3.04883-.13281 5.99854-.3584 8.89062-.03076.38868-.09033.76124-.124 1.14795-.21875 2.51026-.48145 4.99463-.81836 7.4458l-.00049.00342c4.38865 1.75684 9.30125 5.62598 9.30125 14.51221v80c0 8.88623-4.9126 12.75537-9.30127 14.51221a126.81428 126.81428 0 0 1 1.30127 17.48779h8c0-24 8-42 8-72s-8-48-8-72z" fill="#4260c9"/><path d="m288 168h-8c0 3.04883-.13281 5.99854-.3584 8.89062-.03076.38868-.09033.76124-.124 1.14795-.21875 2.51026-.48145 4.99463-.81836 7.4458l-.00049.00342c4.38865 1.75684 9.30125 5.62598 9.30125 14.51221v80c0 8.88623-4.9126 12.75537-9.30127 14.51221a126.81428 126.81428 0 0 1 1.30127 17.48779h8c0-24 8-42 8-72s-8-48-8-72z" fill="#4260c9"/><path d="m344 168h-8c0 3.04883-.13281 5.99854-.3584 8.89062-.03076.38868-.09033.76124-.124 1.14795-.21875 2.51026-.48145 4.99463-.81836 7.4458l-.00049.00342c4.38865 1.75684 9.30125 5.62598 9.30125 14.51221v80c0 8.88623-4.9126 12.75537-9.30127 14.51221a126.81428 126.81428 0 0 1 1.30127 17.48779h8c0-24 8-42 8-72s-8-48-8-72z" fill="#4260c9"/><path d="m400 168h-8c0 3.04883-.13281 5.99854-.3584 8.89062-.03076.38868-.09033.76124-.124 1.14795-.21875 2.51026-.48145 4.99463-.81836 7.4458l-.00049.00342c4.38865 1.75684 9.30125 5.62598 9.30125 14.51221v80c0 8.88623-4.9126 12.75537-9.30127 14.51221a126.81428 126.81428 0 0 1 1.30127 17.48779h8c0-24 8-42 8-72s-8-48-8-72z" fill="#4260c9"/><path d="m64 184h-8c0 21.33333-8 37.33333-8 64s8 42.66667 8 64h8c0-21.33333 8-37.33333 8-64s-8-42.66667-8-64z" fill="#6d86d6"/><path d="m24 344h464v56h-464z" fill="#97a8e2"/><path d="m32 136v47.99951s16.859.00041 28.68687.00043a27.31175 27.31175 0 0 0 19.31291-8 27.31459 27.31459 0 0 1 19.314-8h313.37239a27.31459 27.31459 0 0 1 19.314 8 27.31175 27.31175 0 0 0 19.31291 8c11.8279 0 28.68687-.00043 28.68687-.00043v-47.99951z" fill="#6d86d6"/><path d="m24 312h464v32h-464z" fill="#6d86d6"/><path d="m32 136a0 0 0 0 1 0 0v304a0 0 0 0 1 0 0h-24a0 0 0 0 1 0 0v-280a24 24 0 0 1 24-24z" fill="#97a8e2"/><path d="m504 440h-24v-304a24 24 0 0 1 24 24z" fill="#97a8e2"/><path d="m32 136s16 8 16 24-16 24-16 24z" fill="#4260c9"/><path d="m32 312s16 5.33333 16 16-16 16-16 16z" fill="#4260c9"/><path d="m32 344s16 9.33333 16 28-16 28-16 28z" fill="#6d86d6"/><path d="m480 136s16 50.66667 16 152-16 152-16 152z" fill="#b7c3eb"/><path d="m8 160s16 46.66667 16 140-16 140-16 140z" fill="#b7c3eb"/><path d="m64 184h-8c0 2.96924-.18018 5.82324-.44678 8.62891-.04394.4497-.11279.88916-.16211 1.33642q-.40429 3.73755-1.00976 7.39746c4.46484 1.69141 9.61865 5.53521 9.61865 14.63721v64c0 9.10205-5.15381 12.9458-9.61865 14.63721q.60938 3.65625 1.00976 7.39746c.04932.44726.11817.88672.16211 1.33642.2666 2.80567.44678 5.65967.44678 8.62891h8c0-21.3335 8-37.3335 8-64 0-26.667-8-42.667-8-64z" fill="#4260c9"/><path d="m456 184h-8c0 2.96924-.18018 5.82324-.44678 8.62891-.04394.4497-.11279.88916-.16211 1.33642q-.4043 3.73755-1.00976 7.39746c4.46484 1.69141 9.61865 5.53521 9.61865 14.63721v64c0 9.10205-5.15381 12.9458-9.61865 14.63721q.60938 3.65625 1.00976 7.39746c.04932.44726.11817.88672.16211 1.33642.2666 2.80567.44678 5.65967.44678 8.62891h8c0-21.3335 8-37.3335 8-64 0-26.667-8-42.667-8-64z" fill="#4260c9"/><path d="m32 136s72 16 224 16 224-16 224-16z" fill="#97a8e2"/><path d="m32 344s56 16 224 16 224-16 224-16z" fill="#b7c3eb"/><path d="m486.73975 98.37451c-31.7295-9.18115-107.58887-26.37451-230.73975-26.37451s-199.01025 17.19336-230.73975 26.37451a23.92759 23.92759 0 0 0 -17.26025 23.04049v14.585c0-16 16-24 16-24s84.94482-23.13818 232-23.96094c147.05518.82276 232 23.96094 232 23.96094s16 8 16 24v-14.585a23.92759 23.92759 0 0 0 -17.26025-23.04049z" fill="#6d86d6"/></g></svg>