<svg height="512" viewBox="0 0 512 512" width="512" xmlns="http://www.w3.org/2000/svg"><g id="Kitchen_Set" data-name="Kitchen Set"><path d="m8 231.384h496v208h-496z" fill="#7c7d98"/><path d="m160 256h192v160h-192z" fill="#2e305e"/><path d="m160 392 104-104h80l-128 128h-56z" fill="#7c7d98"/><path d="m160 256h192v32h-192z" fill="#525479"/><circle cx="272" cy="280" fill="#2e305e" r="8"/><circle cx="192" cy="280" fill="#2e305e" r="8"/><circle cx="304" cy="280" fill="#2e305e" r="8"/><circle cx="336" cy="280" fill="#2e305e" r="8"/><path d="m184 328h144v48h-144z" fill="#7c7d98"/><path d="m304 328h-80l-40 40v8h72z" fill="#cbccd6"/><circle cx="264" cy="272" fill="#cbccd6" r="8"/><circle cx="184" cy="272" fill="#cbccd6" r="8"/><circle cx="296" cy="272" fill="#cbccd6" r="8"/><circle cx="328" cy="272" fill="#cbccd6" r="8"/><path d="m24 256h120v160h-120z" fill="#9fa0b3"/><path d="m368 256h120v160h-120z" fill="#9fa0b3"/><path d="m124 324h16v48h-16z" fill="#7c7d98"/><path d="m396 324h16v48h-16z" fill="#7c7d98"/><path d="m112 312h16v48h-16z" fill="#cbccd6"/><path d="m384 312h16v48h-16z" fill="#cbccd6"/><path d="m144 256s16 24 16 80-16 80-16 80z" fill="#525479"/><path d="m24 256s16 24 16 80-16 80-16 80z" fill="#cbccd6"/><path d="m368 256s16 24 16 80-16 80-16 80z" fill="#cbccd6"/><g fill="#525479"><path d="m352 256s16 24 16 80-16 80-16 80z"/><path d="m488 256s16 24 16 80-16 80-16 80z"/><path d="m160 416s24 16 96 16 96-16 96-16z"/><path d="m24 416s20 16 60 16 60-16 60-16z"/><path d="m368 416s20 16 60 16 60-16 60-16z"/></g><path d="m8 231.38386s56 16.61614 248 16.61614 248-16.61614 248-16.61614z" fill="#9fa0b3"/><path d="m304 104v-32h-96v32l-48 24v24h192v-24z" fill="#7c7d98"/><path d="m304 72h-32v32l24 24v24h56v-24l-48-24z" fill="#2e305e"/><path d="m208 72h32v32l-24 24v24h-56v-24l48-24z" fill="#cbccd6"/><path d="m208 72h32v32h-32z" fill="#9fa0b3"/><path d="m296 128h56v24h-56z" fill="#525479"/></g></svg>