<svg height="512" viewBox="0 0 512 512" width="512" xmlns="http://www.w3.org/2000/svg"><g id="Minimalist_Buffets" data-name="Minimalist Buffets"><path d="m72 360.513v-8.513h-32v88h16z" fill="#7c7d98"/><path d="m448 360.513v-8.513h32v88h-16z" fill="#7c7d98"/><path d="m8 72h496v288h-496z" fill="#9fa0b3"/><path d="m336 96h144v120h-144z" fill="#cbccd6"/><path d="m336 216h144v120h-144z" fill="#cbccd6"/><path d="m32 216h144v120h-144z" fill="#cbccd6"/><path d="m176 96h160v240h-160z" fill="#525479"/><path d="m176 208h160v16h-160z" fill="#9fa0b3"/><path d="m176 144h160v16h-160z" fill="#9fa0b3"/><path d="m176 272h160v16h-160z" fill="#9fa0b3"/><path d="m176 224.513v-16.513h16z" fill="#7c7d98"/><path d="m176 160v-16h16z" fill="#7c7d98"/><path d="m176 288v-16h16z" fill="#7c7d98"/><path d="m32 96h144v120h-144z" fill="#cbccd6"/><g fill="#7c7d98"><circle cx="152" cy="168" r="12"/><circle cx="384" cy="168" r="12"/><circle cx="152" cy="288" r="12"/><circle cx="384" cy="288" r="12"/></g><circle cx="140" cy="156" fill="#9fa0b3" r="12"/><circle cx="372" cy="156" fill="#9fa0b3" r="12"/><circle cx="140" cy="276" fill="#9fa0b3" r="12"/><circle cx="372" cy="276" fill="#9fa0b3" r="12"/><path d="m176 96.5128s16 7.4872 16 23.4872-16 24-16 24z" fill="#2e305e"/><path d="m176 160s16 7.56805 16 23.74083-16 24.25917-16 24.25917z" fill="#2e305e"/><path d="m176 224s16 7.56805 16 23.74083-16 24.25917-16 24.25917z" fill="#2e305e"/><path d="m176 288s16 7.4872 16 23.4872-16 24-16 24z" fill="#2e305e"/><path d="m8 72s16 48.17063 16 144-16 144-16 144z" fill="#cbccd6"/><path d="m40 376v64h8l8-56s-8-8-16-8z" fill="#9fa0b3"/><path d="m456 376a15.00608 15.00608 0 0 0 -4.70459.8833l12.70459 63.1167h8v-56s-8-8-16-8z" fill="#9fa0b3"/><path d="m32 208h144s-24 16-72 16-72-16-72-16z" fill="#9fa0b3"/><path d="m32 336h144s-24 16-72 16-72-16-72-16z" fill="#7c7d98"/><path d="m336 336h144s-24 16-72 16-72-16-72-16z" fill="#7c7d98"/><path d="m336 208h144s-24 16-72 16-72-16-72-16z" fill="#9fa0b3"/><path d="m480 96s16 39.65667 16 128.03433-16 111.96567-16 111.96567z" fill="#7c7d98"/><path d="m24 72s54.13333 16 232 16 232-16 232-16z" fill="#cbccd6"/></g></svg>