<svg height="512" viewBox="0 0 512 512" width="512" xmlns="http://www.w3.org/2000/svg"><g id="Minimalist_Sofa" data-name="Minimalist Sofa"><path d="m424 400h48v40h-48z" fill="#7c7d98"/><path d="m40 400h48v40h-48z" fill="#7c7d98"/><path d="m40 440s7.37429-8 24-8 24 8 24 8v-24h-48z" fill="#2e305e"/><path d="m424 440s7.37429-8 24-8 24 8 24 8v-24h-48z" fill="#2e305e"/><path d="m72 72h368a32 32 0 0 1 32 32v224a0 0 0 0 1 0 0h-432a0 0 0 0 1 0 0v-224a32 32 0 0 1 32-32z" fill="#d94556"/><path d="m80 88h352a16 16 0 0 1 16 16v232a0 0 0 0 1 0 0h-384a0 0 0 0 1 0 0v-232a16 16 0 0 1 16-16z" fill="#cd2738"/><path d="m352 80h-208s-16 16-16 64 16 64 16 64h208s-16-24-16-64 16-64 16-64z" fill="#d94556"/><path d="m344 136s-32 16-96 16-96-16-96-16z" fill="#e76b7e"/><path d="m416 144v176h-320v-176a32 32 0 0 0 -32-32h-24a32 32 0 0 0 -32 32v240a32 32 0 0 0 32 32h431.6501a32 32 0 0 0 32-32l.30469-239.9548a32 32 0 0 0 -32-32.04515h-23.95479a32 32 0 0 0 -32 31.99995z" fill="#cd2738"/><path d="m72 144v64h24v-64a32 32 0 0 0 -32-32h-24s32 0 32 32z" fill="#e76b7e"/><path d="m440 144v72h-24v-72a32 32 0 0 1 32-32h24s-32 0-32 32z" fill="#e76b7e"/><path d="m72 320.00008s40 15.99992 184 15.99992 192-16 192-16z" fill="#b40011"/><path d="m88 264h344a16 16 0 0 1 16 16v40a0 0 0 0 1 0 0h-376a0 0 0 0 1 0 0v-40a16 16 0 0 1 16-16z" fill="#d94556"/><path d="m88 264s48 16 168 16 176-16 176-16z" fill="#e76b7e"/><path d="m72 416.00007v-96s16 16 16 48-16 48-16 48z" fill="#b40011"/><path d="m448 320v96s16-16 16-48-16-48-16-48z" fill="#d94556"/><circle cx="120" cy="216" fill="#d34251" r="48"/><circle cx="104" cy="224" fill="#b40011" r="16"/><path d="m120 168a47.99987 47.99987 0 0 0 -48 48s8-40 48-40c24 0 48 24 48 40a47.99987 47.99987 0 0 0 -48-48z" fill="#f59caa"/><circle cx="392" cy="216" fill="#d34251" r="48"/><circle cx="408" cy="224" fill="#b40011" r="16"/><path d="m392 168a47.99987 47.99987 0 0 1 48 48s-8-40-48-40c-24 0-48 24-48 40a47.99987 47.99987 0 0 1 48-48z" fill="#f59caa"/></g></svg>