<svg height="512" viewBox="0 0 512 512" width="512" xmlns="http://www.w3.org/2000/svg"><g id="Minimalist_Vanity" data-name="Minimalist Vanity"><path d="m231.06569 112 14.26456-64.19051a9.97292 9.97292 0 0 1 9.73544-7.80949 9.97293 9.97293 0 0 1 9.73544 7.80949l14.26456 64.19051z" fill="#f88f19"/><path d="m255.06569 40v72h24l-14.26469-64.19043a9.9726 9.9726 0 0 0 -9.73531-7.80957z" fill="#f06000"/><path d="m247.066 60v-12h16v24h-16z" fill="#fcaa40"/><path d="m247.066 48 8 16h8v-16z" fill="#f88f19"/><rect fill="#fcaa40" height="32" rx="16" width="48" x="231.066" y="64"/><path d="m247.06568 64s16 0 16 16-16 16-16 16h16a16 16 0 0 0 16-16 16 16 0 0 0 -16-16z" fill="#f88f19"/><path d="m255.06569 80a8 8 0 0 1 8 8v16a0 0 0 0 1 0 0h-16a0 0 0 0 1 0 0v-16a8 8 0 0 1 8-8z" fill="#ffc263"/><path d="m303.06569 48-64 8a16 16 0 0 1 16-16h48z" fill="#ffc263"/><path d="m55.066 424h400v48h-400z" fill="#525479"/><path d="m423.066 424h32v48h-32z" fill="#2e305e"/><path d="m55.066 424h32v48h-32z" fill="#7c7d98"/><path d="m39.066 184h432v256h-432z" fill="#525479"/><path d="m335.066 184h-80" fill="#525479"/><path d="m71.066 216h168v192h-168z" fill="#7c7d98"/><path d="m191.06569 248 24 16s8 16 8 48-8 48-8 48l-24 16z" fill="#525479"/><path d="m271.066 216h168v192h-168z" fill="#7c7d98"/><path d="m391.06569 248 24 16s8 16 8 48-8 48-8 48l-24 16z" fill="#525479"/><path d="m191.06569 376h-72l-16-16v-96l16-16h72l16 16v96z" fill="#9fa0b3"/><path d="m391.06569 376h-72l-16-16v-96l16-16h72l16 16v96z" fill="#9fa0b3"/><rect fill="#9fa0b3" height="72" rx="16" width="272" x="119.066" y="112"/><path d="m135.06569 112a16 16 0 0 0 -16 16v40a16 16 0 0 0 16 16h32a16 16 0 0 1 -16-16v-40a16 16 0 0 1 16-16z" fill="#cbccd6"/><path d="m375.06569 112a16 16 0 0 1 16 16v40a16 16 0 0 1 -16 16h-32a16 16 0 0 0 16-16v-40a16 16 0 0 0 -16-16z" fill="#7c7d98"/><path d="m135.06569 112s32 16 120 16 120-16 120-16z" fill="#cbccd6"/><path d="m47.06569 184s48 16 208 16 208-16 208-16z" fill="#7c7d98"/><path d="m55.06569 440s46.15385 16 200 16 200-16 200-16z" fill="#2e305e"/><path d="m239.06569 216s16 32 16 96-16 96-16 96z" fill="#2e305e"/><path d="m71.06569 216s16 32 16 96-16 96-16 96z" fill="#9fa0b3"/><path d="m271.06569 216s16 32 16 96-16 96-16 96z" fill="#9fa0b3"/><path d="m39.06569 184s16 42.66667 16 128-16 128-16 128z" fill="#7c7d98"/><g fill="#2e305e"><path d="m439.06569 216s16 32 16 96-16 96-16 96z"/><path d="m71.06569 408s20 16 84 16 84-16 84-16z"/><path d="m271.06569 408s20 16 84 16 84-16 84-16z"/></g><path d="m119.06569 248-8 16s8 24 8 48-8 48-8 48l8 16-16-16v-96z" fill="#cbccd6"/><path d="m319.06569 248-8 16s8 24 8 48-8 48-8 48l8 16-16-16v-96z" fill="#cbccd6"/></g></svg>