<svg height="512" viewBox="0 0 512 512" width="512" xmlns="http://www.w3.org/2000/svg"><g id="Office_Chair" data-name="Office Chair"><g fill="#2e305e"><path d="m352 296h-40v8a8.00008 8.00008 0 0 0 8 8h32a8 8 0 0 0 0-16z"/><path d="m224 64h64v184h-64z"/><path d="m240 472h8a0 0 0 0 1 0 0v32a0 0 0 0 1 0 0h-8a8 8 0 0 1 -8-8v-16a8 8 0 0 1 8-8z"/><path d="m272 472h8a0 0 0 0 1 0 0v32a0 0 0 0 1 0 0h-8a8 8 0 0 1 -8-8v-16a8 8 0 0 1 8-8z" transform="matrix(-1 0 0 -1 544 976)"/></g><path d="m264 504s8-8 8-16-8-16-8-16z" fill="#525479"/><path d="m248 472h16v24h-16z" fill="#2e305e"/><path d="m80 440h8a0 0 0 0 1 0 0v32a0 0 0 0 1 0 0h-8a8 8 0 0 1 -8-8v-16a8 8 0 0 1 8-8z" fill="#2e305e"/><path d="m112 440h8a0 0 0 0 1 0 0v32a0 0 0 0 1 0 0h-8a8 8 0 0 1 -8-8v-16a8 8 0 0 1 8-8z" fill="#2e305e" transform="matrix(-1 0 0 -1 224 912)"/><path d="m88 440h16v24h-16z" fill="#2e305e"/><path d="m248 272h16v88h-16z" fill="#9fa0b3"/><rect fill="#525479" height="88" rx="16" width="48" x="232" y="336"/><path d="m256 336s8 0 8 16v56c0 16-8 16-8 16h8a16 16 0 0 0 16-16v-56a16 16 0 0 0 -16-16z" fill="#2e305e"/><path d="m392 160v64c0 24-24 24-24 24v16s40 8 40-40v-64z" fill="#2e305e"/><path d="m392 160v64c0 24-24 24-24 24v16s40 8 40-40v-64z" fill="#8788a1"/><path d="m400 160v64c0 24-24 24-24 24h-16v16h16c40 0 40-40 40-40v-64z" fill="#9fa0b3"/><path d="m376 248s24 0 24-24v-64h8v64c0 24-32 24-32 24z" fill="#cbccd6"/><path d="m440 160c0 7.99266-10.66667 8-32 8s-32 0-32-8 10.66667-16 32-16 32 8.00734 32 16z" fill="#2e305e"/><path d="m120 160v64c0 24 24 24 24 24v16s-40 8-40-40v-64z" fill="#2e305e"/><path d="m120 160v64c0 24 24 24 24 24v16s-40 8-40-40v-64z" fill="#646687"/><path d="m112 160v64c0 24 24 24 24 24h16v16h-16c-40 0-40-40-40-40v-64z" fill="#9fa0b3"/><path d="m136 248s-24 0-24-24v-64h-8v64c0 24 32 24 32 24z" fill="#7c7d98"/><rect fill="#525479" height="32" rx="16" width="144" x="184" y="272"/><path d="m192 280s16 24 64 24 64-24 64-24z" fill="#2e305e"/><path d="m256 288c-61.47738 0-98.851-7.53242-116.25547-12.2608a15.93865 15.93865 0 0 1 -11.74453-15.43102v-4.30818a16 16 0 0 1 16-16h224a16 16 0 0 1 16 16v4.30818a15.93865 15.93865 0 0 1 -11.74453 15.431c-17.40447 4.7284-54.77809 12.26082-116.25547 12.26082z" fill="#cd2738"/><path d="m345.49254 12.05518c-20.36447-2.01807-50.56222-4.05518-89.49254-4.05518s-69.12807 2.03711-89.49254 4.05518c-17.38508 1.72314-30.50746 15.49023-30.50746 31.80761v4.13721c1.80588 30.24114 5.09133 102.48431 6.8371 141.66a32.03025 32.03025 0 0 0 28.66318 30.38652c18.36324 1.98438 46.22743 3.95348 84.49972 3.95348 38.28407 0 66.15364-1.97031 84.51668-3.9553a32.01135 32.01135 0 0 0 28.64545-30.3675c1.74557-39.17175 5.03173-111.43163 6.83787-141.6772v-4.13721c0-16.31738-13.12238-30.08447-30.50746-31.80761z" fill="#cd2738"/><path d="m152 48s24 24 24 80-16 72-16 72z" fill="#d94556"/><path d="m360 48s-24 24-24 80 16 72 16 72z" fill="#d94556"/><path d="m136 48v-.32275c-.00195.19287 0 .32275 0 .32275z" fill="#284881"/><path d="m376 47.67725v.32275s.002-.12988 0-.32275z" fill="#284881"/><path d="m72 160c0 7.99266 10.66667 8 32 8s32 0 32-8-10.66667-16-32-16-32 8.00734-32 16z" fill="#2e305e"/><path d="m232 376-138.89957 54.0165a8 8 0 0 0 -5.10043 7.45604v10.52746h16v-8l128-32z" fill="#7c7d98"/><path d="m432 440h8a0 0 0 0 1 0 0v32a0 0 0 0 1 0 0h-8a8 8 0 0 1 -8-8v-16a8 8 0 0 1 8-8z" fill="#2e305e" transform="matrix(-1 0 0 -1 864 912)"/><path d="m400 440h8a0 0 0 0 1 0 0v32a0 0 0 0 1 0 0h-8a8 8 0 0 1 -8-8v-16a8 8 0 0 1 8-8z" fill="#2e305e"/><path d="m408 440h16v24h-16z" fill="#2e305e" transform="matrix(-1 0 0 -1 832 904)"/><path d="m280 376 138.89957 54.0165a8 8 0 0 1 5.10043 7.45604v10.52746h-16v-8l-128-32z" fill="#525479"/><path d="m256 480a8.639 8.639 0 0 0 8.61356-7.97643l7.38644-96.02357h-32l7.38643 96.02357a8.639 8.639 0 0 0 8.61357 7.97643z" fill="#7c7d98"/><path d="m264 376 .614 96.024 7.386-96.024z" fill="#525479"/><path d="m144 240s40 16 112 16 112-16 112-16z" fill="#e76b7e"/><path d="m136 43.86279v4.13721c.19189 3.21191.40576 6.94482.6333 11.01416 1.54248-7.60498 6.69287-21.45654 23.3667-27.01416 24-8 72-8 96-8s72 0 96 8c16.67383 5.55762 21.82422 19.40918 23.3667 27.01416.22754-4.06934.44141-7.80225.6333-11.01416v-4.13721c0-16.31738-13.12256-30.08447-30.50732-31.80761-20.36475-2.01807-50.5625-4.05518-89.49268-4.05518s-69.12793 2.03711-89.49268 4.05518c-17.38476 1.72314-30.50732 15.49023-30.50732 31.80761z" fill="#d94556"/><path d="m168 16s24-8 88-8 88 8 88 8-24 8-88 8-88-8-88-8z" fill="#f59caa"/><path d="m248 304h8v32h-8z" fill="#cbccd6"/><path d="m248 304 16 16v-16z" fill="#9fa0b3"/><path d="m232 360h48s-8 8-24 8-24-8-24-8z" fill="#2e305e"/><path d="m248 376 8 104 8-104z" fill="#9fa0b3"/><path d="m93.10059 430.0166a7.83 7.83 0 0 0 -1.16846.67285l140.06787-46.68945v-8z" fill="#9fa0b3"/><path d="m418.89941 430.0166a7.83 7.83 0 0 1 1.16846.67285l-140.06787-46.68945v-8z" fill="#7c7d98"/><path d="m280 376v32l11.636 2.909z" fill="#2e305e"/><path d="m424 440s8 8 8 16-8 15.97643-8 15.97643z" fill="#525479"/><path d="m104 440s8 8 8 16-8 16-8 16z" fill="#525479"/></g></svg>