<svg height="512" viewBox="0 0 512 512" width="512" xmlns="http://www.w3.org/2000/svg"><g id="Painting_Frame" data-name="Painting Frame"><path d="m8 72h496v368h-496z" fill="#f4791a"/><g fill="#f06000"><path d="m448 88s56 0 56 40-24 32-24 64 24 32 24 56-24 40-24 72 24 40 24 72-56 32-56 32z"/><path d="m64 88c64 0 72 24 88 24h-88z"/><path d="m256 88c88 0 85.09091 24 104 24h-104z"/><path d="m64 424c64 0 72-24 88-24h-88z"/><path d="m256 424c88 0 85.09091-24 104-24h-104z"/></g><path d="m464 192c0-32 24-33.12354 24-64 0 0 0-40-40-40s-56 24-88 24-56-24-104-24-72 24-104 24-48-24-88-24-40 40-40 40c0 30.87646 24 32 24 64s-24 32-24 64 24 32 24 64-24 33.12354-24 64c0 0 0 40 40 40s56-24 88-24 56 24 104 24 72-24 104-24 48 24 88 24 40-40 40-40c0-30.87646-24-32-24-64s24-32 24-64-24-32-24-64z" fill="#fcaa40"/><path d="m64 128h384v256h-384z" fill="#fcaa40"/><path d="m88 152h336v208h-336z" fill="#7c7d98"/><path d="m88 152s16 32 16 104-16 104-16 104z" fill="#525479"/><path d="m424 152s16 32 16 104-16 104-16 104z" fill="#fcaa40"/><path d="m448 128s16 32 16 128-16 128-16 128z" fill="#f4791a"/><path d="m64 128s16 32 16 128-16 128-16 128z" fill="#ffc263"/><path d="m64 128s48 16 200 16 184-16 184-16z" fill="#ffc263"/><path d="m88 360s54 16 175 16 161-16 161-16z" fill="#ffc263"/><path d="m64 384h384s-80 16-192 16-192-16-192-16z" fill="#f4791a"/><path d="m40 384c0-32 24-32 24-64s-24-32-24-64 24-32 24-64-24-32-24-64 24-40 24-40c-40 0-40 40-40 40 0 30.87646 24 32 24 64s-24 32-24 64 24 32 24 64-24 33.12354-24 64c0 0 0 40 40 40 0 0-24-8-24-40z" fill="#ffc263"/><path d="m8 72s16 72 16 192-16 176-16 176z" fill="#f88f19"/><path d="m8 72s104 16 248 16 248-16 248-16z" fill="#fcaa40"/><path d="m88 152s70.45161 16 168 16 168-16 168-16z" fill="#525479"/></g></svg>