<svg height="512" viewBox="0 0 512 512" width="512" xmlns="http://www.w3.org/2000/svg"><path d="m104 280h24v88h-24z" fill="#7a93bb"/><path d="m384 280h24v88h-24z" fill="#4e6a9b"/><path d="m360.08492 136h-208.16984a15.9577 15.9577 0 0 1 -15.91508-16v-72.5385a31.827 31.827 0 0 1 24.50954-31.1545c17.84271-4.09971 54.688-8.307 95.49046-8.307s77.64775 4.20729 95.49046 8.307a31.827 31.827 0 0 1 24.50954 31.1545v72.5385a15.9577 15.9577 0 0 1 -15.91508 16z" fill="#0c2b69"/><path d="m151.95748 136h208.085a15.95748 15.95748 0 0 1 15.95752 15.95748v152.04252a0 0 0 0 1 0 0h-240a0 0 0 0 1 0 0v-152.04252a15.95748 15.95748 0 0 1 15.95748-15.95748z" fill="#0c2b69"/><path d="m390.08326 336h-268.16652a32 32 0 0 0 -31.30164 25.35114l-18.6151 87.63662a31.79774 31.79774 0 0 0 20.22708 35.50915c24.83392 8.97783 76.59858 19.50309 163.77246 19.50309 87.17416 0 138.93919-10.52533 163.77328-19.50317a31.79778 31.79778 0 0 0 20.22718-35.50919l-18.6151-87.6365a32 32 0 0 0 -31.30164-25.35114z" fill="#284881"/><path d="m104 224h24a32 32 0 0 1 32 32v32a0 0 0 0 1 0 0h-56a32 32 0 0 1 -32-32 32 32 0 0 1 32-32z" fill="#0c2b69"/><path d="m384 224h24a32 32 0 0 1 32 32 32 32 0 0 1 -32 32h-56a0 0 0 0 1 0 0v-32a32 32 0 0 1 32-32z" fill="#0c2b69"/><path d="m136 280h240a24 24 0 0 1 24 24v24a8 8 0 0 1 -8 8h-272a8 8 0 0 1 -8-8v-24a24 24 0 0 1 24-24z" fill="#284881"/><path d="m168 48s8 12.8 8 32-8 40-8 40 32-8 88-8 88 8 88 8-8.00094-20.8-8.00094-40 8.00094-32 8.00094-32-32.00008-8-88-8-88 8-88 8z" fill="#284881"/><path d="m160 152a202.36652 202.36652 0 0 1 8 56 202.36652 202.36652 0 0 1 -8 56s40-16 96-16 96 16 96 16a200 200 0 0 1 0-112s-32 16-96 16-96-16-96-16z" fill="#284881"/><path d="m351.49023 16.30664c-17.84223-4.09964-54.68798-8.30664-95.49023-8.30664s-77.648 4.207-95.49023 8.30664a31.82715 31.82715 0 0 0 -24.50977 31.15479v72.53857a15.91449 15.91449 0 0 0 14.689 15.87549c-1.77152-.41749-6.689-2.72656-6.689-15.87549v-74.32861a15.94357 15.94357 0 0 1 13.75488-15.84375c17.39844-2.36914 50.90479-5.82764 98.24512-5.82764s80.84668 3.4585 98.24512 5.82764a15.94356 15.94356 0 0 1 13.75488 15.84375v74.32861c0 13.14893-4.91748 15.458-6.689 15.87549a15.91449 15.91449 0 0 0 14.689-15.87549v-72.53857a31.82715 31.82715 0 0 0 -24.50977-31.15479z" fill="#4e6a9b"/><path d="m351.49023 16.30664c-17.84223-4.09964-54.68798-8.30664-95.49023-8.30664s-77.648 4.207-95.49023 8.30664c0 0 39.49023 7.69336 95.49023 7.69336s95.49023-7.69336 95.49023-7.69336z" fill="#95adcf"/><path d="m144 152c0-16 16-16 16-16h-8.04248a15.95734 15.95734 0 0 0 -15.95752 15.95752v80.04248h8z" fill="#284881"/><path d="m368 152c0-16-16-16-16-16h8.04248a15.95734 15.95734 0 0 1 15.95752 15.95752v80.04248h-8z" fill="#284881"/><g fill="#4e6a9b"><path d="m160 256a32 32 0 0 0 -32-32h-24a32 32 0 0 1 32 32z"/><path d="m352.00006 256a32 32 0 0 1 32-32h24a32 32 0 0 0 -32 32z"/><path d="m191.98783 72h144.01217s-16 16-72 16-72.01217-16-72.01217-16z"/><path d="m191.98783 200h144.01217s-16 16-72 16-72.01217-16-72.01217-16z"/></g><path d="m136 280s32 16 120 16 120-16 120-16z" fill="#7a93bb"/><path d="m120 336s64-16 136-16 136 16 136 16z" fill="#0c2b69"/><path d="m104 368a28.41914 28.41914 0 0 1 24-16c32 0 64 16 128 16s96-16 128-16a28.41914 28.41914 0 0 1 24 16c8 16 32 87.9873 32 88v-7.0127l-18.61523-87.63623a32 32 0 0 0 -31.30127-25.35107h-268.167a32 32 0 0 0 -31.30127 25.35107l-18.61523 87.63672v7.01221c0-.0127 24-72 32-88z" fill="#4e6a9b"/><path d="m128 336s40 16 128 16 128-16 128-16z" fill="#7a93bb"/><path d="m415.23975 424-7.23975-32c0 16-8.68018 24-16.64014 24-23.87986 0-87.60009-8-135.35986-8s-111.48 8-135.35986 8c-7.95996 0-16.64014-8-16.64014-24l-7.23975 32s-6.03857 16 15.91993 24 71.31982 16 143.31982 16 121.36133-8 143.31982-16 15.91993-24 15.91993-24z" fill="#4e6a9b"/></svg>