<svg height="512" viewBox="0 0 512 512" width="512" xmlns="http://www.w3.org/2000/svg"><g id="Retro_Arm_Chair" data-name="Retro Arm Chair"><path d="m72 176h24v120h-24z" fill="#f06000"/><path d="m416 176h24v120h-24z" fill="#f06000"/><path d="m388.35791 74.00977a47.83823 47.83823 0 0 0 -45.92285-34.00977h-172.87012a47.83823 47.83823 0 0 0 -45.92285 34.00977c-11.75 39.34814-27.64209 114.00634-27.64209 229.99023h320c0-115.98389-15.89209-190.64209-27.64209-229.99023z" fill="#193fbe"/><path d="m176 56h160c19.69434 0 40 8 48 32 24.54395 73.63232 32 216 32 216l-2.02295-68.77637c-4.627-77.45117-16.38574-130.29248-25.61914-161.21386a47.83823 47.83823 0 0 0 -45.92285-34.00977h-172.87012a47.83823 47.83823 0 0 0 -45.92285 34.00977c-9.2334 30.92138-20.99219 83.76269-25.61914 161.21386l-2.02295 68.77637s7.45605-142.36768 32-216c8-24 28.30566-32 48-32z" fill="#6d86d6"/><path d="m169.56494 40s22.43506 16 86.43506 16 86.43506-16 86.43506-16z" fill="#97a8e2"/><path d="m64 280h384v48h-384z" fill="#f4791a"/><path d="m72 327.997 16-31.997h-16z" fill="#f06000"/><rect fill="#fcaa40" height="32" rx="8" width="320" x="96" y="296"/><path d="m96 160h-56a16.00016 16.00016 0 0 0 16 16l-16 296h16l32-296h8a8 8 0 0 0 0-16z" fill="#f88f19"/><path d="m96 160h-56a16.00016 16.00016 0 0 0 16 16h40a8 8 0 0 0 0-16z" fill="#fcaa40"/><path d="m472 160h-56a8 8 0 0 0 0 16h8l32 296h16l-16-296a16.00016 16.00016 0 0 0 16-16z" fill="#f88f19"/><path d="m472 160h-56a8 8 0 0 0 0 16h40a16.00016 16.00016 0 0 0 16-16z" fill="#fcaa40"/><path d="m456 472-16-296h-16z" fill="#fcaa40"/><path d="m176 80s-16 21.6-24 64.8a485.41447 485.41447 0 0 0 -8 79.2s24-28.8 32-72 0-72 0-72z" fill="#4260c9"/><path d="m336 80s16 21.6 24 64.8a485.41447 485.41447 0 0 1 8 79.2s-24-28.8-32-72 0-72 0-72z" fill="#4260c9"/><path d="m96 160h-8a7.99977 7.99977 0 0 1 8 8s0 8-8 8h8a8 8 0 0 0 0-16z" fill="#f4791a"/><path d="m416 168a7.99977 7.99977 0 0 1 8-8h-8a8 8 0 0 0 0 16h8c-8 0-8-8-8-8z" fill="#ffc263"/><path d="m432 296h-352a16 16 0 0 1 -16-16v-19.78334a15.96915 15.96915 0 0 1 12.5301-15.62538c21.20454-4.69854 72.71264-12.59128 179.4699-12.59128s158.26536 7.89274 179.4699 12.59128a15.96915 15.96915 0 0 1 12.5301 15.62538v19.78334a16 16 0 0 1 -16 16z" fill="#4260c9"/><path d="m256 232c-75.208 0-122.90967 3.917-152 7.875v.125s56 8 152 8 152-8 152-8v-.125c-29.09033-3.958-76.792-7.875-152-7.875z" fill="#97a8e2"/><path d="m85.6 198.2 2.4-22.2h-32z" fill="#f06000"/><path d="m456 176h-32l33.073 19.844z" fill="#f4791a"/></g></svg>