<svg id="Capa_1" enable-background="new 0 0 512 512" height="512" viewBox="0 0 512 512" width="512" xmlns="http://www.w3.org/2000/svg"><path d="m384 144c-71.111 0-85.333 16-128 16s-64-16-128-16v-120h256z" fill="#cbccd6"/><path d="m248 112c0-13.255 10.745-24 24-24s24 10.745 24 24z" fill="#9fa0b3"/><path d="m128 144c0 48-16 72-16 112 0 56 24 72 24 152 0 64-16 96-16 96h-24s16-40 16-80c0-56-40-96-40-176.008 0-47.999 16-71.992 16-103.992v-120h40z" fill="#cbccd6"/><path d="m384 144c0 48 16 72 16 112 0 56-24 72-24 152 0 64 16 96 16 96h24s-16-40-16-80c0-56 40-96 40-176.008 0-48-16-71.992-16-103.992v-120h-40z" fill="#cbccd6"/><path d="m232 96c0-13.255 10.745-24 24-24s24 10.745 24 24z" fill="#525479"/><path d="m384 32s16 16 16 56-16 56-16 56z" fill="#9fa0b3"/><path d="m96 8h320c13.255 0 24 10.745 24 24h-368c0-13.255 10.745-24 24-24z" fill="#cbccd6"/><g fill="#9fa0b3"><path d="m88 32s64 16 168 16 168-16 168-16z"/><path d="m112 256c0-40 16-64 16-112v-112s-16 8-16 56v56c0 32-16 64-16 120s32 104 32 152-16 88-16 88h8s16-32 16-96c0-80-24-96-24-152z"/><path d="m440 247.992c0-48-16-71.992-16-103.992v-112s-16 16-16 80c0 96 16 96 16 152 0 80-32 96-32 152s16 88 16 88h8s-16-40-16-80c0-56 40-96 40-176.008z"/><ellipse cx="247.587" cy="80.413" rx="10.73" ry="3.577" transform="matrix(.707 -.707 .707 .707 15.656 198.623)"/></g></svg>