<svg height="512" viewBox="0 0 512 512" width="512" xmlns="http://www.w3.org/2000/svg"><g id="Retro_Chair" data-name="Retro Chair"><path d="m216 16c0 143.42188 23.28906 230.46875 24.28125 234.10547l15.4375-4.207c-.23437-.87113-23.71875-88.82034-23.71875-229.89847zm-48.00781 24c0 128.73438 47.14062 208.77344 49.14843 212.11719l13.72657-8.22656c-.46875-.78516-46.875-79.85938-46.875-203.89063zm-40 48c0 81.86719 63.07812 161.64063 65.75781 164.99609l12.5-9.99218c-.625-.77735-62.25781-78.81641-62.25781-155.00391zm240.00781 0c0 76.1875-61.63281 154.22656-62.25781 155.00391l12.5 9.99218c2.67969-3.35546 65.75781-83.1289 65.75781-164.99609zm-88.00781-72c0 141.07813-23.48438 229.02734-23.71875 229.89844l15.4375 4.207c.99218-3.63672 24.28125-90.68359 24.28125-234.10547zm48.00781 24c0 124.03125-46.40625 203.10547-46.875 203.89063l13.72656 8.22656c2.00782-3.34375 49.14844-83.38281 49.14844-212.11719z" fill="#9fa0b3"/><g fill="#7c7d98"><path d="m376 141.06348v-53.06348h-8a156.453 156.453 0 0 1 -1.65869 21.30615 110.28868 110.28868 0 0 1 9.18408 33.45362c.16309-.56299.31494-1.13086.47461-1.69629z"/><path d="m279.72021 42.15283a124.70926 124.70926 0 0 1 15.91846 3.749q.24537-10.70655.313-21.90186h-16.0005c-.03857 6.14603-.10742 12.22024-.23096 18.15286z"/><path d="m344 40h-16c0 7.39014-.17529 14.60889-.48535 21.67285a113.22067 113.22067 0 0 1 15.21142 12.99215c.74903-11.164 1.27393-22.62643 1.27393-34.665z"/><path d="m136 141.09131c.15869.562.30957 1.12744.47217 1.687a110.25963 110.25963 0 0 1 9.18066-33.4585 156.5058 156.5058 0 0 1 -1.66064-21.31981h-7.99219z"/><path d="m183.99219 40h-16c0 12.041.5249 23.50635 1.27441 34.67236a113.27327 113.27327 0 0 1 15.21094-12.99463c-.31006-7.06543-.48535-14.28613-.48535-21.67773z"/><path d="m232.041 24h-16.00047q.06812 11.18994.313 21.90381a124.62672 124.62672 0 0 1 15.91847-3.74951c-.12356-5.93311-.19241-12.00782-.231-18.1543z"/></g><path d="m376 256h-240s-64 0-64 71.99951c0 59.86035 56 80.61572 56 176.00049h15.99365c0-111.17236-39.99365-120-39.99365-168 0-25.65527 16-48 40-48h224c24 0 40 22.34473 40 48 0 48-39.99365 56.82764-39.99365 168h15.99365c0-95.38477 56-116.14844 56-176.0083 0-71.99658-64-71.9917-64-71.9917z" fill="#9fa0b3"/><path d="m342.39844 276.80078-12.80469-9.59765c.46875-.62113 46.40625-62.82032 46.40625-131.20313 0-69.08594-45.98438-112-120-112s-120 42.91406-120 112c0 68.53906 45.9375 130.582 46.39844 131.19922l-12.79688 9.60156c-2.02344-2.69922-49.60156-66.98437-49.60156-140.80078 0-77.75781 53.38281-128 136-128s136 50.24219 136 128c0 73.81641-47.57812 138.10156-49.60156 140.80078z" fill="#9fa0b3"/><rect fill="#f88f19" height="32" rx="16" width="272" x="120" y="224"/><path d="m127.77588 88.60107c24.68555-66.97461 101.51412-72.60107 128.22412-72.60107s103.53857 5.62646 128.22412 72.60107c-17.52051-50.10546-63.95801-80.60107-128.22412-80.60107s-110.70361 30.49561-128.22412 80.60107z" fill="#cbccd6"/><path d="m125.17969 96.55615q.50318-1.75562 1.05224-3.45849c-.354 1.15134-.72754 2.28808-1.05224 3.45849z" fill="#cbccd6"/><path d="m120.57471 122.78467c.0581-.729.12988-1.44238.19726-2.16113-.06885.71875-.13818 1.43701-.19726 2.16113z" fill="#cbccd6"/><path d="m391.42529 122.78467c-.05908-.72412-.12841-1.44238-.19726-2.16113.06738.71875.13916 1.43212.19726 2.16113z" fill="#cbccd6"/><path d="m386.82031 96.55615c-.3247-1.17041-.69824-2.30713-1.05224-3.45849q.54711 1.7058 1.05224 3.45849z" fill="#cbccd6"/><path d="m136 224s52.5 16 120 16 120-16 120-16z" fill="#ffc263"/><path d="m136 272v-16s-64 0-64 71.99951c0 59.86035 56 80.61572 56 176.00049 0-112-40-136-40-176s32-56 48-56z" fill="#cbccd6"/><path d="m376 272v-16s64 0 64 71.99951c0 59.86035-56 80.61572-56 176.00049 0-112 40-136 40-176s-32-56-48-56z" fill="#cbccd6"/><path d="m136 256h240v16h-240z" fill="#cbccd6"/><path d="m368 280h-216c-32 0-48 16-48 56 0-25.65527 16-48 40-48h224c24 0 40 22.34473 40 48 0-40-16-56-40-56z" fill="#7c7d98"/></g></svg>