<svg height="512" viewBox="0 0 512 512" width="512" xmlns="http://www.w3.org/2000/svg"><g id="Retro_Office_Chair" data-name="Retro Office Chair"><path d="m352 296h-40v8a8.00008 8.00008 0 0 0 8 8h32a8 8 0 0 0 0-16z" fill="#2e305e"/><path d="m240 472h8a0 0 0 0 1 0 0v32a0 0 0 0 1 0 0h-8a8 8 0 0 1 -8-8v-16a8 8 0 0 1 8-8z" fill="#2e305e"/><path d="m272 472h8a0 0 0 0 1 0 0v32a0 0 0 0 1 0 0h-8a8 8 0 0 1 -8-8v-16a8 8 0 0 1 8-8z" fill="#2e305e" transform="matrix(-1 0 0 -1 544 976)"/><path d="m264 504s8-8 8-16-8-16-8-16z" fill="#525479"/><g fill="#2e305e"><path d="m248 472h16v24h-16z"/><path d="m80 440h8a0 0 0 0 1 0 0v32a0 0 0 0 1 0 0h-8a8 8 0 0 1 -8-8v-16a8 8 0 0 1 8-8z"/><path d="m112 440h8a0 0 0 0 1 0 0v32a0 0 0 0 1 0 0h-8a8 8 0 0 1 -8-8v-16a8 8 0 0 1 8-8z" transform="matrix(-1 0 0 -1 224 912)"/><path d="m88 440h16v24h-16z"/></g><path d="m248 272h16v88h-16z" fill="#9fa0b3"/><rect fill="#525479" height="88" rx="16" width="48" x="232" y="336"/><path d="m256 336s8 0 8 16v56c0 16-8 16-8 16h8a16 16 0 0 0 16-16v-56a16 16 0 0 0 -16-16z" fill="#2e305e"/><rect fill="#525479" height="32" rx="16" width="144" x="184" y="272"/><path d="m192 280s16 24 64 24 64-24 64-24z" fill="#2e305e"/><path d="m232 376-138.89957 54.0165a8 8 0 0 0 -5.10043 7.45604v10.52746h16v-8l128-32z" fill="#7c7d98"/><path d="m432 440h8a0 0 0 0 1 0 0v32a0 0 0 0 1 0 0h-8a8 8 0 0 1 -8-8v-16a8 8 0 0 1 8-8z" fill="#2e305e" transform="matrix(-1 0 0 -1 864 912)"/><path d="m400 440h8a0 0 0 0 1 0 0v32a0 0 0 0 1 0 0h-8a8 8 0 0 1 -8-8v-16a8 8 0 0 1 8-8z" fill="#2e305e"/><path d="m408 440h16v24h-16z" fill="#2e305e" transform="matrix(-1 0 0 -1 832 904)"/><path d="m280 376 138.89957 54.0165a8 8 0 0 1 5.10043 7.45604v10.52746h-16v-8l-128-32z" fill="#525479"/><path d="m256 480a8.639 8.639 0 0 0 8.61356-7.97643l7.38644-96.02357h-32l7.38643 96.02357a8.639 8.639 0 0 0 8.61357 7.97643z" fill="#7c7d98"/><path d="m264 376 .614 96.024 7.386-96.024z" fill="#525479"/><path d="m248 304h8v32h-8z" fill="#cbccd6"/><path d="m248 304 16 16v-16z" fill="#9fa0b3"/><path d="m232 360h48s-8 8-24 8-24-8-24-8z" fill="#2e305e"/><path d="m248 376 8 104 8-104z" fill="#9fa0b3"/><path d="m93.10059 430.0166a7.83 7.83 0 0 0 -1.16846.67285l140.06787-46.68945v-8z" fill="#9fa0b3"/><path d="m418.89941 430.0166a7.83 7.83 0 0 1 1.16846.67285l-140.06787-46.68945v-8z" fill="#7c7d98"/><path d="m280 376v32l11.636 2.909z" fill="#2e305e"/><path d="m424 440s8 8 8 16-8 15.97643-8 15.97643z" fill="#525479"/><path d="m104 440s8 8 8 16-8 16-8 16z" fill="#525479"/><path d="m376 48c-15.99023-40-16-40-120-40s-104.00977 0-120 40c-6.64014 16.61035-24 96-24 120s8 32 16 40 40 32 40 32h176s32-24 40-32 16-16 16-40-17.35986-103.38965-24-120z" fill="#f4791a"/><path d="m408 192.07178c-24 0-43.50009 22.45962-51.75 33.68944a34.56253 34.56253 0 0 1 -27.67649 14.23827q-.30282.00076-.57351.00051h-144q-.27034 0-.57351-.00051a34.56253 34.56253 0 0 1 -27.67649-14.23827c-8.25009-11.22982-27.75-33.68944-51.75-33.68944-12.12256 0-24.6123 4.84668-32 15.92822l64 56c16 16 40 16 40 16h160s24 0 40-16l64-56c-7.3877-11.08154-19.87744-15.92822-32-15.92822z" fill="#f88f19"/><path d="m356.25 225.76123a34.56336 34.56336 0 0 1 -27.67627 14.23828q-.30323.00074-.57373.00049h-144q-.27027 0-.57373-.00049a34.56336 34.56336 0 0 1 -27.67627-14.23828c-8.25009-11.23-27.75-33.68945-51.75-33.68945 40 15.92822 24 71.92822 80 71.92822h144c56 0 40-56 80-71.92822-24 0-43.50009 22.45947-51.75 33.68945z" fill="#fcaa40"/><path d="m184 240s16 16 72 16 72-16 72-16z" fill="#ffc263"/><path d="m376 48c-15.99023-40-16-40-120-40s-104.00977 0-120 40c-6.64014 16.61035-24 96-24 120s24 24 24 24-8-8-8-24 15.9917-96 24-120c0 0 8-24 32-24h144c24 0 32 24 32 24 8.0083 24 24 104 24 120s-8 24-8 24 24 0 24-24-17.35986-103.38965-24-120z" fill="#fcaa40"/><path d="m184 16s18-8 72-8 72 8 72 8-18 8-72 8-72-8-72-8z" fill="#ffc263"/><path d="m184 48a330.10008 330.10008 0 0 0 72 8 330.10008 330.10008 0 0 0 72-8s-16 23.52941-16 80 16 80 16 80-24-16-72-16-72 16-72 16 16-32.94118 16-80-16-80-16-80z" fill="#f06000"/></g></svg>