<svg height="512" viewBox="0 0 512 512" width="512" xmlns="http://www.w3.org/2000/svg"><g id="Rocking_Chair" data-name="Rocking Chair"><path d="m440 448h-32v-56h-32l.00308 80c-.00308 24 7.99692 32 7.99692 32h24a32 32 0 0 0 32-32z" fill="#7c7d98"/><path d="m72 448h32v-56h32l-.00308 80c.00308 24-7.99692 32-7.99692 32h-24a32 32 0 0 1 -32-32z" fill="#7c7d98"/><path d="m96 208h24v248h-24z" fill="#9fa0b3"/><path d="m136 8h24v296h-24z" fill="#9fa0b3"/><path d="m136 8v272s16-72 16-128-16-144-16-144z" fill="#cbccd6"/><path d="m352 8h24v296h-24z" fill="#9fa0b3"/><path d="m256 8c-48 0-57 24-96 24v32h192v-32c-39 0-48-24-96-24z" fill="#9fa0b3"/><path d="m160 32v16c48 0 56-40 96-40-48 0-57 24-96 24z" fill="#cbccd6"/><g fill="#7c7d98"><path d="m352 32v16c-48 0-56-40-96-40 48 0 57 24 96 24z"/><path d="m200 64h-8c0 40-8 70-8 120s8 80 8 120h8c0-40 8-70 8-120s-8-80-8-120z"/><path d="m240 64h-8c0 40-8 70-8 120s8 80 8 120h8c0-40 8-70 8-120s-8-80-8-120z"/><path d="m280 64h-8c0 40-8 70-8 120s8 80 8 120h8c0-40 8-70 8-120s-8-80-8-120z"/><path d="m320 64h-8c0 40-8 70-8 120s8 80 8 120h8c0-40 8-70 8-120s-8-80-8-120z"/></g><path d="m96 304h320v40h-320z" fill="#9fa0b3"/><path d="m144 280h224a24 24 0 0 1 24 24 0 0 0 0 1 0 0h-272a0 0 0 0 1 0 0 24 24 0 0 1 24-24z" fill="#f4791a"/><path d="m392 208h24v248h-24z" fill="#9fa0b3"/><path d="m80 192h56v16h-56z" fill="#9fa0b3"/><path d="m120 192h16v16h-16z" fill="#525479"/><path d="m376 192h56v16h-56z" fill="#9fa0b3"/><path d="m376 192h16v16h-16z" fill="#cbccd6"/><path d="m72 448h32v24h-32z" fill="#7c7d98"/><path d="m104 472s.00312 32 24 32h-24a32 32 0 0 1 -32-32z" fill="#cbccd6"/><path d="m104 448v24s.00312 32 24 32c0 0 7.99692-8 7.99692-32 0 0 .00308 8-7.99692 8s-8-8-8-8v-16z" fill="#525479"/><path d="m408 448h32v24h-32z" fill="#7c7d98" transform="matrix(-1 0 0 -1 848 920)"/><path d="m408 472s-.00312 32-24 32h24a32 32 0 0 0 32-32z" fill="#cbccd6"/><path d="m408 448v24s-.00312 32-24 32c0 0-7.99692-8-7.99692-32 0 0-.00308 8 7.99692 8s8-8 8-8v-16z" fill="#525479"/><path d="m112 416h288v24h-288z" fill="#9fa0b3"/><path d="m112 368h288v24h-288z" fill="#9fa0b3"/><path d="m352 8v272s16-72 16-128-16-144-16-144z" fill="#cbccd6"/><path d="m160 32v32s16 0 16-16-16-16-16-16z" fill="#7c7d98"/><path d="m200 184c0-66.56006-8-112-8-112s-.05908.22363-.12891.49219c-.99316 35.92481-7.87109 65.11133-7.87109 111.50781 0 35.54932 4.03418 60.99316 6.37207 87.10449.98293 5.51123 1.62793 8.89551 1.62793 8.89551s8-29.43994 8-96z" fill="#cbccd6"/><path d="m240 184c0-66.56006-8-112-8-112s-.05908.22363-.12891.49219c-.99316 35.92481-7.87109 65.11133-7.87109 111.50781 0 35.54932 4.03418 60.99316 6.37207 87.10449.98293 5.51123 1.62793 8.89551 1.62793 8.89551s8-29.43994 8-96z" fill="#cbccd6"/><path d="m280 184c0-66.56006-8-112-8-112s-.05908.22363-.12891.49219c-.99316 35.92481-7.87109 65.11133-7.87109 111.50781 0 35.54932 4.03418 60.99316 6.37207 87.10449.98293 5.51123 1.62793 8.89551 1.62793 8.89551s8-29.43994 8-96z" fill="#cbccd6"/><path d="m320 184c0-66.56006-8-112-8-112s-.05908.22363-.12891.49219c-.99316 35.92481-7.87109 65.11133-7.87109 111.50781 0 35.54932 4.03418 60.99316 6.37207 87.10449.98293 5.51123 1.62793 8.89551 1.62793 8.89551s8-29.43994 8-96z" fill="#cbccd6"/><path d="m392 224 24 24v-40h-24z" fill="#525479"/><path d="m96 224 24 24v-40h-24z" fill="#7c7d98"/><path d="m392 208v240s16-56 16-120-16-120-16-120z" fill="#cbccd6"/><path d="m120 304v40s16 0 16-20-16-20-16-20z" fill="#7c7d98"/><path d="m120 392v-24h16z" fill="#7c7d98"/><path d="m120 440v-24h16z" fill="#7c7d98"/><path d="m120 304s56 16 136 16 136-16 136-16z" fill="#cbccd6"/><path d="m144 280s32 16 112 16 112-16 112-16z" fill="#fcaa40"/></g></svg>