<svg height="512" viewBox="0 0 512 512" width="512" xmlns="http://www.w3.org/2000/svg"><g id="Room_Divider" data-name="Room Divider"><path d="m68 72a59.99984 59.99984 0 0 0 -60 60v308h16v-24a23.99994 23.99994 0 0 0 24-24h40a23.99994 23.99994 0 0 0 24 24v24h16v-308a59.99984 59.99984 0 0 0 -60-60zm-44 328v-8h8a8.00008 8.00008 0 0 1 -8 8zm88 0a8.00008 8.00008 0 0 1 -8-8h8zm-88-264c0-48 40-48 44-48s44 0 44 48z" fill="#4e6a9b"/><path d="m24 416 24-24a24 24 0 0 1 -24 24z" fill="#0c2b69"/><path d="m88 392 24 24a24 24 0 0 1 -24-24z" fill="#7a93bb"/><path d="m112 416h8v24h-8z" fill="#7a93bb"/><path d="m24 152h88v224h-88z" fill="#ffc263"/><path d="m24 152s16 32 16 112-16 112-16 112z" fill="#f88f19"/><path d="m68 72a59.99984 59.99984 0 0 0 -60 60v308h8v-304s0-56 56-56 56 56 56 56v-4a59.99984 59.99984 0 0 0 -60-60z" fill="#95adcf"/><path d="m72 88v.1792c11.09668.90625 40 6.9707 40 47.8208 0 0 8-48-40-48z" fill="#284881"/><path d="m24 136s16 8 44 8 44-8 44-8z" fill="#95adcf"/><path d="m24 152s8 16 44 16 44-16 44-16z" fill="#f4791a"/><path d="m24 192s8 16 44 16 44-16 44-16z" fill="#fcaa40"/><path d="m112 152s8 48 8 112-8 112-8 112z" fill="#95adcf"/><path d="m24 384a597.71643 597.71643 0 0 0 88-8h-88z" fill="#7a93bb"/><path d="m316 72a59.99984 59.99984 0 0 0 -60 60v308h16v-24a23.99994 23.99994 0 0 0 24-24h40a23.99994 23.99994 0 0 0 24 24v24h16v-308a59.99984 59.99984 0 0 0 -60-60zm-44 328v-8h8a8.00008 8.00008 0 0 1 -8 8zm88 0a8.00008 8.00008 0 0 1 -8-8h8zm-88-264c0-48 40-48 44-48s44 0 44 48z" fill="#4e6a9b"/><path d="m272 416 24-24a24 24 0 0 1 -24 24z" fill="#0c2b69"/><path d="m336 392 24 24a24 24 0 0 1 -24-24z" fill="#7a93bb"/><path d="m360 416h8v24h-8z" fill="#7a93bb"/><path d="m272 152h88v224h-88z" fill="#ffc263"/><path d="m272 152s16 32 16 112-16 112-16 112z" fill="#f88f19"/><g fill="#fcaa40"><path d="m272 192s8 16 44 16 44-16 44-16z"/><path d="m24 240s8 16 44 16 44-16 44-16z"/><path d="m272 240s8 16 44 16 44-16 44-16z"/><path d="m24 288s8 16 44 16 44-16 44-16z"/><path d="m272 288s8 16 44 16 44-16 44-16z"/><path d="m24 336s8 16 44 16 44-16 44-16z"/><path d="m272 336s8 16 44 16 44-16 44-16z"/></g><path d="m316 72a59.99984 59.99984 0 0 0 -60 60v308h8v-304s0-56 56-56 56 56 56 56v-4a59.99984 59.99984 0 0 0 -60-60z" fill="#95adcf"/><path d="m320 88v.1792c11.09668.90625 40 6.9707 40 47.8208 0 0 8-48-40-48z" fill="#284881"/><path d="m272 136s16 8 44 8 44-8 44-8z" fill="#95adcf"/><path d="m272 152s8 16 44 16 44-16 44-16z" fill="#f4791a"/><path d="m360 152s8 48 8 112-8 112-8 112z" fill="#95adcf"/><path d="m272 384a597.71643 597.71643 0 0 0 88-8h-88z" fill="#7a93bb"/><path d="m192 72a64 64 0 0 0 -64 64v304h16v-24a23.99994 23.99994 0 0 0 24-24h48a23.99994 23.99994 0 0 0 24 24v24h16v-304a64 64 0 0 0 -64-64zm-48 328v-8h8a8.00008 8.00008 0 0 1 -8 8zm96 0a8.00008 8.00008 0 0 1 -8-8h8zm-96-264a48 48 0 0 1 96 0z" fill="#4e6a9b"/><path d="m144 416 24-24a24 24 0 0 1 -24 24z" fill="#0c2b69"/><path d="m216 392 24 24a24 24 0 0 1 -24-24z" fill="#7a93bb"/><path d="m240 416h8v24h-8z" fill="#7a93bb"/><path d="m144 136s16 8 48 8 48-8 48-8z" fill="#95adcf"/><path d="m240 152s8 48 8 112-8 112-8 112z" fill="#95adcf"/><path d="m144 152h96v224h-96z" fill="#ffc263"/><path d="m144 152s16 32 16 112-16 112-16 112z" fill="#f88f19"/><path d="m144 192s8.72727 16 48 16 48-16 48-16z" fill="#fcaa40"/><path d="m144 152s8.72727 16 48 16 48-16 48-16z" fill="#f4791a"/><path d="m144 384a710.06751 710.06751 0 0 0 96-8h-96z" fill="#7a93bb"/><path d="m192 80c56.70264 0 63.15674 43.88135 63.894 53.90576a63.96358 63.96358 0 0 0 -127.894 2.09424v304h8v-304c0-56 56-56 56-56z" fill="#95adcf"/><path d="m197.14209 88.28369a47.99863 47.99863 0 0 1 42.85791 47.71631s7.30225-44.76221-42.85791-47.71631z" fill="#284881"/><path d="m440 72a64 64 0 0 0 -64 64v304h16v-24a23.99994 23.99994 0 0 0 24-24h48a23.99994 23.99994 0 0 0 24 24v24h16v-304a64 64 0 0 0 -64-64zm-48 328v-8h8a8.00008 8.00008 0 0 1 -8 8zm96 0a8.00008 8.00008 0 0 1 -8-8h8zm-96-264a48 48 0 0 1 96 0z" fill="#4e6a9b"/><path d="m392 416 24-24a24 24 0 0 1 -24 24z" fill="#0c2b69"/><path d="m464 392 24 24a24 24 0 0 1 -24-24z" fill="#7a93bb"/><path d="m488 416h8v24h-8z" fill="#7a93bb"/><path d="m392 136s16 8 48 8 48-8 48-8z" fill="#95adcf"/><path d="m488 152s8 48 8 112-8 112-8 112z" fill="#95adcf"/><path d="m392 152h96v224h-96z" fill="#ffc263"/><path d="m392 152s16 32 16 112-16 112-16 112z" fill="#f88f19"/><path d="m392 192s8.72727 16 48 16 48-16 48-16z" fill="#fcaa40"/><path d="m144 240s8.72727 16 48 16 48-16 48-16z" fill="#fcaa40"/><path d="m392 240s8.72727 16 48 16 48-16 48-16z" fill="#fcaa40"/><path d="m144 288s8.72727 16 48 16 48-16 48-16z" fill="#fcaa40"/><path d="m392 288s8.72727 16 48 16 48-16 48-16z" fill="#fcaa40"/><path d="m144 336s8.72727 16 48 16 48-16 48-16z" fill="#fcaa40"/><path d="m392 336s8.72727 16 48 16 48-16 48-16z" fill="#fcaa40"/><path d="m392 152s8.72727 16 48 16 48-16 48-16z" fill="#f4791a"/><path d="m392 384a710.06751 710.06751 0 0 0 96-8h-96z" fill="#7a93bb"/><path d="m440 80c56.70264 0 63.15674 43.88135 63.894 53.90576a63.96358 63.96358 0 0 0 -127.894 2.09424v304h8v-304c0-56 56-56 56-56z" fill="#95adcf"/><path d="m445.14209 88.28369a47.99863 47.99863 0 0 1 42.85791 47.71631s7.30225-44.76221-42.85791-47.71631z" fill="#284881"/></g></svg>