<svg height="512" viewBox="0 0 512 512" width="512" xmlns="http://www.w3.org/2000/svg"><path d="m480 352 8 96h-16l-24-96v-8h32z" fill="#f06000"/><path d="m32 352-8 96h16l24-96v-8h-32z" fill="#f4791a"/><path d="m456 104c-40-24-151.99756-32-200-32s-160 8-200 32c-15.33838 9.20313-16 15.99952-16 32.00245v127.99755h432v-127.99753c0-16.00293-.66162-22.79932-16-32.00247z" fill="#4260c9"/><path d="m392 104c0 112 48 160 48 160v-152z" fill="#6d86d6"/><path d="m112 104c0 112-48 160-48 160v-152z" fill="#193fbe"/><path d="m456 104c-40-24-151.99756-32-200-32s-160 8-200 32c-12.47119 7.48291-15.20068 13.45654-15.80029 24h31.80029s40-40 184-40 184 40 184 40h31.80029c-.59961-10.54346-3.3291-16.51709-15.80029-24z" fill="#6d86d6"/><path d="m56 112a16 16 0 0 1 16 16v136a0 0 0 0 1 0 0h-32a0 0 0 0 1 0 0v-136a16 16 0 0 1 16-16z" fill="#4260c9"/><path d="m456 112a16 16 0 0 1 16 16v136a0 0 0 0 1 0 0h-32a0 0 0 0 1 0 0v-136a16 16 0 0 1 16-16z" fill="#4260c9"/><path d="m488 352h-464a16 16 0 0 1 -16-16v-61.09813a16.0301 16.0301 0 0 1 12.03861-15.504c24.98379-6.51567 92.51739-19.39787 235.96139-19.39787s210.9776 12.8822 235.96139 19.39791a16.0301 16.0301 0 0 1 12.03861 15.50396v61.09813a16 16 0 0 1 -16 16z" fill="#6d86d6"/><path d="m240 104s8 8 16 8 16-8 16-8-8 8-8 16 8 16 8 16-8-8-16-8-16 8-16 8 8-8 8-16-8-16-8-16z" fill="#193fbe"/><path d="m280 144s8 8 16 8 16-8 16-8-8 8-8 16 8 16 8 16-8-8-16-8-16 8-16 8 8-8 8-16-8-16-8-16z" fill="#193fbe"/><path d="m240 184s8 8 16 8 16-8 16-8-8 8-8 16 8 16 8 16-8-8-16-8-16 8-16 8 8-8 8-16-8-16-8-16z" fill="#193fbe"/><path d="m200 144s8 8 16 8 16-8 16-8-8 8-8 16 8 16 8 16-8-8-16-8-16 8-16 8 8-8 8-16-8-16-8-16z" fill="#193fbe"/><path d="m320 104s8 8 16 8 16-8 16-8-8 8-8 16 8 16 8 16-8-8-16-8-16 8-16 8 8-8 8-16-8-16-8-16z" fill="#193fbe"/><path d="m360 144s8 8 16 8 16-8 16-8-8 8-8 16 8 16 8 16-8-8-16-8-16 8-16 8 8-8 8-16-8-16-8-16z" fill="#193fbe"/><path d="m320 184s8 8 16 8 16-8 16-8-8 8-8 16 8 16 8 16-8-8-16-8-16 8-16 8 8-8 8-16-8-16-8-16z" fill="#193fbe"/><path d="m160 104s8 8 16 8 16-8 16-8-8 8-8 16 8 16 8 16-8-8-16-8-16 8-16 8 8-8 8-16-8-16-8-16z" fill="#193fbe"/><path d="m160 184s8 8 16 8 16-8 16-8-8 8-8 16 8 16 8 16-8-8-16-8-16 8-16 8 8-8 8-16-8-16-8-16z" fill="#193fbe"/><path d="m120 144s8 8 16 8 16-8 16-8-8 8-8 16 8 16 8 16-8-8-16-8-16 8-16 8 8-8 8-16-8-16-8-16z" fill="#193fbe"/><path d="m256 264c157.80176 0 212.66943-6.42725 222.33643-7.75732-32.45606-6.80616-99.50831-16.24268-222.33643-16.24268s-189.88037 9.43652-222.33643 16.24268c9.667 1.33007 64.53467 7.75732 222.33643 7.75732z" fill="#97a8e2"/><path d="m24 352s72-16 232-16 232 16 232 16z" fill="#4260c9"/><g fill="#6d86d6"><path d="m160 104v32s8-8 8-16-8-16-8-16z"/><path d="m120 144v32s8-8 8-16-8-16-8-16z"/><path d="m200 144v32s8-8 8-16-8-16-8-16z"/><path d="m280 144v32s8-8 8-16-8-16-8-16z"/><path d="m360 144v32s8-8 8-16-8-16-8-16z"/><path d="m240 104v32s8-8 8-16-8-16-8-16z"/><path d="m320 104v32s8-8 8-16-8-16-8-16z"/><path d="m160 184v32s8-8 8-16-8-16-8-16z"/><path d="m240 184v32s8-8 8-16-8-16-8-16z"/><path d="m320 184v32s8-8 8-16-8-16-8-16z"/></g><path d="m256 72c-25.686 0-69.67139 2.32617-111.16846 8.13281 6.34619 1.00489 51.84717 7.86719 111.16846 7.86719s104.82227-6.8623 111.16846-7.86719c-41.49707-5.80664-85.48246-8.13281-111.16846-8.13281z" fill="#b7c3eb"/><path d="m30.61621 368.60791-6.61621 79.39209 24-72c-4.67822-4.67822-12.03369-6.58545-17.38379-7.39209z" fill="#fcaa40"/><path d="m453.481 373.9248 18.519 74.0752v-80a30.81 30.81 0 0 0 -18.519 5.9248z" fill="#f88f19"/></svg>