<svg height="512" viewBox="0 0 512 512" width="512" xmlns="http://www.w3.org/2000/svg"><g id="Single_Door" data-name="Single Door"><path d="m72 8h368v496h-368z" fill="#4e6a9b"/><g fill="#284881"><circle cx="412" cy="212" r="12"/><path d="m408 240h8s8 16 8 48-8 48-8 48h-8s-8-16-8-48 8-48 8-48z"/><path d="m120 40h256v416h-256z"/></g><path d="m160 312c32 0 40 24 88 24v96h-88z" fill="#0c2b69"/><path d="m248 64c72 0 48 40 120 40v176c-72 0-40 40-120 40z" fill="#0c2b69"/><path d="m329.88355 104.00005a31.83742 31.83742 0 0 1 -25.42675-12.60616c-8.87667-11.72435-26.3628-27.39389-56.4568-27.39389s-47.58082 15.66963-56.45754 27.394a31.83734 31.83734 0 0 1 -25.42667 12.60607l-22.11579-.00007v176h22.11828a31.836 31.836 0 0 1 25.42464 12.60339c8.87808 11.72461 26.3667 27.39661 56.45708 27.39661s47.57835-15.67193 56.45634-27.39656a31.83609 31.83609 0 0 1 25.42472-12.60344h22.11894v-176z" fill="#4e6a9b"/><path d="m248 96s72-.16734 72 91.91633-72 91.91314-72 91.91314z" fill="#7a93bb"/><path d="m248 96s-72-.16734-72 91.91633 72 91.91314 72 91.91314z" fill="#284881"/><ellipse cx="248" cy="188" fill="#9fa0b3" rx="56" ry="92"/><path d="m232 344c-30 0-51-18-59.625-27a15.9526 15.9526 0 0 0 -11.49838-5h-16.87662v120h88z" fill="#4e6a9b"/><path d="m264 344c30 0 51-18 59.625-27a15.9526 15.9526 0 0 1 11.49838-5h16.87662v120h-88z" fill="#4e6a9b"/><circle cx="404" cy="196" fill="#f4791a" r="12"/><path d="m400 224h8s8 16 8 48-8 48-8 48h-8s-8-16-8-48 8-48 8-48z" fill="#f4791a"/><ellipse cx="400" cy="272" fill="#ffc263" rx="8" ry="32"/><path d="m120 40s16 88 16 208-16 208-16 208z" fill="#0c2b69"/><path d="m208 184c0-79.061 32.269-87.08691 38.82812-87.90283-30.38134 1.03515-54.82812 41.74219-54.82812 91.90283 0 50.81006 25.07227 92 56 92 0 0-40-8-40-96z" fill="#525479"/><path d="m160 264v-144c52.54346 0 34.66357-49.29688 78.51221-55.38281a67.76278 67.76278 0 0 0 -46.96973 26.77681 31.8383 31.8383 0 0 1 -25.42676 12.606h-22.11572v176h22.11816a31.83532 31.83532 0 0 1 25.42484 12.603c8.8779 11.72464 26.36667 27.397 56.457 27.397-48 0-40-56-88-56z" fill="#7a93bb"/><path d="m376 40s16 56 16 208-16 208-16 208z" fill="#7a93bb"/><path d="m72 8s16 66.76923 16 248-16 248-16 248z" fill="#7a93bb"/><path d="m266.6582 101.3418-74.07373 74.07373c-.34424 4.125-.58447 8.3042-.58447 12.58447 0 28.78857 8.05859 54.46924 20.66113 71.33887l90.15772-90.15772c-4.0044-31.64306-17.92285-57.23681-36.16065-67.83935z" fill="#cbccd6"/><path d="m208 184a232.77655 232.77655 0 0 1 1.30469-25.30469l-16.72022 16.72022c-.34472 4.12447-.58447 8.30371-.58447 12.58447 0 28.78857 8.05859 54.46924 20.66113 71.33887l7.45655-7.45655c-6.77442-14.30517-12.11768-35.74023-12.11768-67.88232z" fill="#9fa0b3"/><path d="m120 40s32 16 128 16 128-16 128-16z" fill="#0c2b69"/><path d="m120 456s32 16 128 16 128-16 128-16z" fill="#7a93bb"/><path d="m72 8s56 16 184 16 184-16 184-16z" fill="#7a93bb"/><path d="m352 312s16 24 16 64-16 56-16 56z" fill="#0c2b69"/><path d="m144 312s16 24 16 64-16 56-16 56z" fill="#7a93bb"/><path d="m280 416v-56c32 0 40-48 55.12354-48a15.95187 15.95187 0 0 0 -11.49854 5c-8.625 9-29.625 27-59.625 27v88s16 0 16-16z" fill="#7a93bb"/></g></svg>