<svg height="512" viewBox="0 0 512 512" width="512" xmlns="http://www.w3.org/2000/svg"><g id="Standing_Hanger" data-name="Standing Hanger"><path d="m256 128a7.9954 7.9954 0 0 1 -8-8c0-25.22656 27.78906-29.32813 52.30469-32.9375 32.16406-4.74219 51.69531-9.19531 51.69531-31.0625a8 8 0 0 1 16 0c0 37.25781-37.78125 42.82812-65.36719 46.89062-24.03906 3.54688-38.63281 6.46094-38.63281 17.10938a7.9954 7.9954 0 0 1 -8 8z" fill="#646687"/><path d="m368 56a8 8 0 0 0 -16 0c0 5.71289-1.36377 10.21533-3.90674 13.8667a28.528 28.528 0 0 0 13.21826 9.0503c4.16948-5.89942 6.68848-13.35011 6.68848-22.917z" fill="#2e305e"/><path d="m300.30469 87.0625c-9.55762 1.40723-19.59278 2.90771-28.30469 5.687v17.1065c4.08936-1.92041 9.63477-3.38086 16.51318-4.65918a120.39906 120.39906 0 0 1 15.48682-9.19682c8.99121-4.49561 12.84766-8.939 14.57324-12.01465-5.51806 1.11524-11.60449 2.09473-18.26855 3.07715z" fill="#2e305e"/><circle cx="360" cy="48" fill="#525479" r="16"/><path d="m256 128a7.9954 7.9954 0 0 1 -8-8c0-10.64844-14.59375-13.5625-38.63281-17.10938-27.58594-4.0625-65.36719-9.63281-65.36719-46.89062a8 8 0 0 1 16 0c0 21.86719 19.53125 26.32031 51.69531 31.0625 24.51563 3.60937 52.30469 7.71094 52.30469 32.9375a7.9954 7.9954 0 0 1 -8 8z" fill="#646687"/><path d="m165.39111 71.7832c-3.51806-3.95215-5.39111-9.0342-5.39111-15.7832h-16a45.85819 45.85819 0 0 0 1.00781 9.36279c4.59668 3.17721 11.2251 5.93213 20.3833 6.42041z" fill="#2e305e"/><path d="m211.69531 87.0625c9.55762 1.40723 19.59278 2.90771 28.30469 5.687v17.1065c-4.08936-1.92041-9.63477-3.38086-16.51318-4.65918a120.39906 120.39906 0 0 0 -15.48682-9.19682c-8.99121-4.49561-12.84766-8.939-14.57324-12.01465 5.51806 1.11524 11.60449 2.09473 18.26855 3.07715z" fill="#2e305e"/><circle cx="152" cy="48" fill="#525479" r="16"/><path d="m256 128a7.9954 7.9954 0 0 1 -8-8c0-13.20313-8.73438-19.21094-24.17188-28.70313-17.74218-10.89843-39.82812-24.47656-39.82812-59.29687a8 8 0 0 1 16 0c0 25.875 15.64062 35.49219 32.21094 45.66406 14.89844 9.16406 31.78906 19.53906 31.78906 42.33594a7.9954 7.9954 0 0 1 -8 8z" fill="#646687"/><path d="m196.42307 220.42307c-3.951 3.951-5.5524 8.7553-3.57692 10.73078s6.38212-.06864 10.73075-3.577c6.69532-5.40136 6.54-9.27734 3.57691-10.73071-2.5083-1.23014-6.77981-.37403-10.73074 3.57693z" fill="#2e305e"/><path d="m184 32a66.42545 66.42545 0 0 0 2.42773 18.32617c4.6836 2.89112 11.19629 5.24414 19.92383 5.53662-3.90722-6.15332-6.35156-13.73925-6.35156-23.86279a8 8 0 0 0 -16 0z" fill="#2e305e"/><circle cx="192" cy="24" fill="#525479" r="16"/><path d="m256 272c-36.57812 0-52.46875-24.89844-55.75781-38.0625a7.99609 7.99609 0 0 1 15.51562-3.875c.27344 1 7.28907 25.9375 40.24219 25.9375a8 8 0 0 1 0 16z" fill="#8788a1"/><path d="m216.42432 232h-16.273a7.6801 7.6801 0 0 0 .09082 1.9375c1.47265 5.894 5.498 14.13232 12.749 21.44336 4.26807-.88281 10.314-3.09473 14.4502-8.47022a36.62005 36.62005 0 0 1 -11.01702-14.91064z" fill="#2e305e"/><circle cx="208" cy="232" fill="#525479" r="16"/><ellipse cx="144" cy="40" fill="#cbccd6" rx="10.117" ry="5.059" transform="matrix(.707 -.707 .707 .707 13.892 113.539)"/><ellipse cx="184" cy="16" fill="#cbccd6" rx="10.117" ry="5.059" transform="matrix(.707 -.707 .707 .707 42.579 134.794)"/><ellipse cx="352" cy="40" fill="#cbccd6" rx="10.117" ry="5.059" transform="matrix(.707 -.707 .707 .707 74.814 260.617)"/><path d="m256 56a16 16 0 0 1 16 16v432a0 0 0 0 1 0 0h-32a0 0 0 0 1 0 0v-432a16 16 0 0 1 16-16z" fill="#525479"/><g fill="#2e305e"><path d="m256 56a15.82692 15.82692 0 0 0 -7.81592 2.11914c3.93653 2.03076 7.81592 6.00586 7.81592 13.88086v400h16v-400a15.99985 15.99985 0 0 0 -16-16z"/><path d="m256 288a7.9954 7.9954 0 0 1 -8-8v-24a8 8 0 0 1 16 0v24a7.9954 7.9954 0 0 1 -8 8z"/><path d="m256 144a7.9954 7.9954 0 0 1 -8-8v-88a8 8 0 0 1 16 0v88a7.9954 7.9954 0 0 1 -8 8z"/></g><path d="m320 472h-128c-24.00537 0-24 16-24 16v16h176v-16s.00537-16-24-16z" fill="#525479"/><rect fill="#7c7d98" height="16" rx="8" width="96" x="208" y="368"/><path d="m304 376a7.99977 7.99977 0 0 0 -8-8h-32a8 8 0 0 1 0 16h32a8.00008 8.00008 0 0 0 8-8z" fill="#525479"/><path d="m256 272a8 8 0 0 1 0-16c33.36719 0 40.17188-25.67969 40.24219-25.9375a7.99609 7.99609 0 1 1 15.51562 3.875c-3.28906 13.16406-19.17969 38.0625-55.75781 38.0625z" fill="#8788a1"/><path d="m305.9375 224.24219a7.97109 7.97109 0 0 0 -9.69531 5.82031 34.676 34.676 0 0 1 -7.80664 13.2373c.793 3.90284 3.20556 10.08545 10.60156 12.0542 7.23389-7.3042 11.25-15.52978 12.7207-21.4165a7.988 7.988 0 0 0 -5.82031-9.69531z" fill="#2e305e"/><circle cx="304" cy="232" fill="#525479" r="16"/><path d="m256 272a7.9954 7.9954 0 0 1 -8-8v-24a8 8 0 0 1 16 0v24a7.9954 7.9954 0 0 1 -8 8z" fill="#8788a1"/><circle cx="256" cy="232" fill="#525479" r="16"/><ellipse cx="248" cy="224" fill="#cbccd6" rx="10.117" ry="5.059" transform="matrix(.707 -.707 .707 .707 -85.754 240.971)"/><ellipse cx="200" cy="224" fill="#cbccd6" rx="10.117" ry="5.059" transform="matrix(.707 -.707 .707 .707 -99.813 207.029)"/><ellipse cx="296" cy="224" fill="#cbccd6" rx="10.117" ry="5.059" transform="matrix(.707 -.707 .707 .707 -71.696 274.912)"/><path d="m256 128a7.9954 7.9954 0 0 1 -8-8c0-22.79688 16.89062-33.17188 31.78906-42.33594 16.57032-10.17187 32.21094-19.78906 32.21094-45.66406a8 8 0 0 1 16 0c0 34.82031-22.08594 48.39844-39.82812 59.29687-15.4375 9.49219-24.17188 15.5-24.17188 28.70313a7.9954 7.9954 0 0 1 -8 8z" fill="#8788a1"/><path d="m323.81934 55.48926a63.04186 63.04186 0 0 0 4.18066-23.48926h-16a47.97942 47.97942 0 0 1 -2.418 15.53223 26.64145 26.64145 0 0 0 14.23734 7.95703z" fill="#2e305e"/><circle cx="320" cy="24" fill="#525479" r="16"/><path d="m256 128a7.9954 7.9954 0 0 1 -8-8v-88a8 8 0 0 1 16 0v88a7.9954 7.9954 0 0 1 -8 8z" fill="#8788a1"/><path d="m256 24a7.99539 7.99539 0 0 0 -8 8v22.86865a28.85047 28.85047 0 0 0 16 0v-22.86865a7.99539 7.99539 0 0 0 -8-8z" fill="#2e305e"/><circle cx="256" cy="24" fill="#525479" r="16"/><ellipse cx="248" cy="16" fill="#cbccd6" rx="10.117" ry="5.059" transform="matrix(.707 -.707 .707 .707 61.324 180.049)"/><ellipse cx="312" cy="16" fill="#cbccd6" rx="10.117" ry="5.059" transform="matrix(.707 -.707 .707 .707 80.069 225.304)"/><path d="m280 96.5166v-18.98389c-.07129.04346-.13965.0879-.21094.13135a140.81477 140.81477 0 0 0 -15.78906 10.78076v31.55518c0-10.62744 5.74121-16.60986 16-23.4834z" fill="#525479"/><path d="m264 271.53467a62.85671 62.85671 0 0 0 16-3.769v-17.6748a43.22538 43.22538 0 0 1 -16 5.30859z" fill="#525479"/><path d="m224 376c0-8 8-8 8-8h-16a8 8 0 0 0 0 16h16s-8 0-8-8z" fill="#cbccd6"/><path d="m192 472c-24.00537 0-24 16-24 16v16h16v-24c0-8 8-8 8-8z" fill="#7c7d98"/><path d="m192 472s16 16 64 16 64-16 64-16z" fill="#9fa0b3"/><path d="m320 472s8 0 8 8v24h16v-16s.00537-16-24-16z" fill="#2e305e"/></g></svg>