<svg height="512" viewBox="0 0 512 512" width="512" xmlns="http://www.w3.org/2000/svg"><g id="Standing_Mirror" data-name="Standing Mirror"><path d="m136 8h240v392h-240z" fill="#f88f19"/><path d="m255.9999 56c112 0 112.0001 96 112.0001 96v216h-112z" fill="#ffc263"/><path d="m120 24s16 0 16 16h240s0-16 16-16v-16h-272z" fill="#f88f19"/><path d="m160 151.9999v216.0001h192v-216.0001a95.9999 95.9999 0 0 0 -95.9999-95.9999h-.0002a95.9999 95.9999 0 0 0 -95.9999 95.9999z" fill="#9fa0b3"/><path d="m256 56-96 96v192l192-192a95.99975 95.99975 0 0 0 -96-96z" fill="#cbccd6"/><path d="m368.01025 472c0-24 23.98975-32 23.98975-56s-16-32-16-32h-240s-16 8-16 32 23.98975 32 23.98975 56c0 8-15.98975 16-15.98975 16v16h16c0-24 24-24 24-40s-7.999-16-7.999-32c0 0-.001-24 31.999-24 24 0 32 24 64 24s40-24 64-24c32 0 31.999 24 31.999 24 0 16-7.999 16-7.999 32s24 16 24 40h16v-16s-15.98975-8-15.98975-16z" fill="#f88f19"/><path d="m120 8h272v16h-272z" fill="#fcaa40"/><path d="m136 40s32 8 120 8 120-8 120-8z" fill="#f06000"/><path d="m120 8s32 13.87683 136 13.87683 136-13.87683 136-13.87683z" fill="#ffc263"/><path d="m136 40s16 56 16 176-16 168-16 168z" fill="#ffc263"/><path d="m252.52 56.17578a95.92633 95.92633 0 0 0 -92.52 95.82422v216h16v-224c0-76.93555 61.14355-86.60791 76.52-87.82422z" fill="#525479"/><path d="m176 144c0-2.96777.25049-5.65527.42627-8.42627l-16.42627 16.42627v192l16-16z" fill="#9fa0b3"/><path d="m176 368 176-176v32l-144 144z" fill="#cbccd6"/><path d="m160 368s32 16 96 16 96-16 96-16z" fill="#ffc263"/><path d="m120 416c0 24 23.98975 32 23.98975 56 0 8-15.98975 16-15.98975 16s24-8 24-24-16-32-16-48 8-32 8-32h-8s-16 8-16 32z" fill="#ffc263"/><g fill="#f06000"><path d="m320 408c-40 0-48 24-64 24 32 0 40-24 64-24z"/><path d="m152 432c0 16 16 24 16 32 0-16-7.999-16-7.999-32 0 0-.001-24 31.999-24-32 0-40 16-40 24z"/><path d="m144 384s40 16 112 16 112-16 112-16z"/><path d="m368 472 .01074-.0083c.00586-23.99316 23.98926-31.99463 23.98926-55.9917 0-24-16-32-16-32h-8s8 8 8 32-8 32-8 56z"/></g></g></svg>