<svg height="512" viewBox="0 0 512 512" width="512" xmlns="http://www.w3.org/2000/svg"><g id="Storage_Drawer" data-name="Storage Drawer"><path d="m128 392h256v56h-256z" fill="#4260c9"/><path d="m128 448 40-48h-40z" fill="#193fbe"/><path d="m152 400s32.84211 16 104 16 104-16 104-16z" fill="#193fbe"/><path d="m72 8h368v392h-368z" fill="#4260c9"/><path d="m72 8s16 72 16 200-16 192-16 192z" fill="#6d86d6"/><path d="m408 40s16 47.40741 16 160-16 160-16 160z" fill="#193fbe"/><path d="m104 40h304v320h-304z" fill="#6d86d6"/><circle cx="264" cy="88" fill="#193fbe" r="16"/><circle cx="256" cy="80" fill="#b7c3eb" r="16"/><path d="m104 40s16 48 16 160-16 160-16 160z" fill="#97a8e2"/><g fill="#193fbe"><path d="m104 136h304s-64 16-152 16-152-16-152-16z"/><path d="m104 248h304s-64 16-152 16-152-16-152-16z"/><path d="m104 360h304s-64 16-152 16-152-16-152-16z"/></g><path d="m408 8s-40 8-152 8-152-8-152-8z" fill="#b7c3eb"/><circle cx="264" cy="200" fill="#193fbe" r="16"/><circle cx="256" cy="192" fill="#b7c3eb" r="16"/><circle cx="264" cy="312" fill="#193fbe" r="16"/><circle cx="256" cy="304" fill="#b7c3eb" r="16"/><path d="m104 400-16 104h16l48-104z" fill="#4260c9"/><path d="m96 504 32-104h-24l-16 104z" fill="#97a8e2"/><path d="m408 400 16 104h-16l-48-104z" fill="#4260c9"/><path d="m408 504-48-104h24l32 104z" fill="#6d86d6"/><path d="m120 416c11.189 0 18.37549 3.87793 21.73975 6.23047l10.26025-22.23047h-48l-3.17822 20.65918a38.924 38.924 0 0 1 19.17822-4.65918z" fill="#193fbe"/><path d="m392 416c-11.189 0-18.37549 3.87793-21.73975 6.23047l-10.26025-22.23047h48l3.17822 20.65918a38.924 38.924 0 0 0 -19.17822-4.65918z" fill="#193fbe"/></g></svg>