<svg height="512" viewBox="0 0 512 512" width="512" xmlns="http://www.w3.org/2000/svg"><g id="Table_Lamp" data-name="Table Lamp"><path d="m240 248h32v64h-32z" fill="#f4791a"/><path d="m282.88314 304h-53.76628a16 16 0 0 0 -15.68929 12.86214l-37.42757 187.13786h160l-37.42757-187.13786a16 16 0 0 0 -15.68929-12.86214z" fill="#284881"/><path d="m440 256h-368v-232s56.00473-16 184-16 184 16 184 16z" fill="#fcaa40"/><path d="m256 8-16 16v232h16z" fill="#ffc263"/><rect fill="#fcaa40" height="32" rx="16" width="64" x="224" y="272"/><path d="m272 272a16 16 0 0 1 16 16 16 16 0 0 1 -16 16h-16a16 16 0 0 0 16-16 16 16 0 0 0 -16-16z" fill="#f4791a"/><path d="m368 24v232h72v-232s-55.84521-15.94336-183.40088-15.99512c5.64307.06153 51.50928 1.02198 111.40088 15.99512z" fill="#f88f19"/><path d="m144 24v232h-72v-232s55.84521-15.94336 183.40088-15.99512c-5.64307.06153-51.50928 1.02198-111.40088 15.99512z" fill="#ffc263"/><path d="m168 256v-232s40.30176-15.99512 87.40088-15.99512c0 0-39.40088-.00488-63.40088 15.99512v232z" fill="#ffc263"/><path d="m256 504h80l-37.42773-187.13818a15.99947 15.99947 0 0 0 -15.68897-12.86182h-26.8833s16 0 16 16v168c0 16-16 16-16 16z" fill="#0c2b69"/><path d="m240 488v-168s0-16 16-16h-26.8833a15.99947 15.99947 0 0 0 -15.689 12.86182l-37.4277 187.13818h80s-16 0-16-16z" fill="#7a93bb"/></g></svg>