<svg height="512" viewBox="0 0 512 512" width="512" xmlns="http://www.w3.org/2000/svg"><path d="m256 88h-224v72h31.99951s16.00049-16 48.00049-16c56 0 88 32 144 32s88-32 144-32c32 0 48.00049 16 48.00049 16h31.99951v-72z" fill="#f4791a"/><path d="m8 72h32v368h-32z" fill="#f88f19"/><path d="m472 72h32v368h-32z" fill="#f88f19"/><path d="m40 96s76.64516 16 216 16 216-16 216-16z" fill="#f06000"/><path d="m8 72h496v24h-496z" fill="#fcaa40"/><path d="m40 96v64s16-8 16-32-16-32-16-32z" fill="#f06000"/><path d="m472 96v344s16-64 16-184-16-160-16-160z" fill="#fcaa40"/><path d="m8 72s72 16 248 16 248-16 248-16z" fill="#ffc263"/><path d="m8 96s16 64 16 168-16 176-16 176z" fill="#fcaa40"/></svg>