<svg height="512" viewBox="0 0 512 512" width="512" xmlns="http://www.w3.org/2000/svg"><g id="Television_Table" data-name="Television Table"><path d="m480 264s16 24 16 64-16 56-16 56z" fill="#7c7d98"/><path d="m64 408v-8h-24v8 32h16z" fill="#525479"/><path d="m61.67041 417.31885 2.32959-9.31885h-24v24c4.521-9.042 14.14893-12.97119 21.67041-14.68115z" fill="#2e305e"/><path d="m448 408v-8h24v8 32h-16z" fill="#525479"/><path d="m450.03516 416.14111c5.77295.62549 21.96484 4.13135 21.96484 23.85889v-32h-24z" fill="#2e305e"/><path d="m8 240h496v168h-496z" fill="#9fa0b3"/><path d="m176 264h160v120h-160z" fill="#525479"/><path d="m176 264s16 24 16 64-16 56-16 56z" fill="#2e305e"/><path d="m176 312h160v16h-160z" fill="#9fa0b3"/><path d="m32 264h144v119.487h-144z" fill="#cbccd6"/><path d="m336 264h144v119.487h-144z" fill="#cbccd6"/><circle cx="148" cy="332" fill="#9fa0b3" r="12"/><circle cx="380" cy="332" fill="#9fa0b3" r="12"/><circle cx="140" cy="324" fill="#525479" r="12"/><circle cx="372" cy="324" fill="#525479" r="12"/><path d="m128 72h256v144h-256z" fill="#7c7d98"/><path d="m264 232v-40h-16v40h-40v8h96v-8z" fill="#2e305e"/><path d="m144 88h224v112h-224z" fill="#525479"/><path d="m144 88s16 16 16 56-16 56-16 56z" fill="#2e305e"/><path d="m144 160 72-72h128l-112 112h-88z" fill="#7c7d98"/><path d="m144 160v40s16-16 16-56z" fill="#525479"/><g fill="#9fa0b3"><path d="m368 88s16 16 16 56-16 56-16 56z"/><path d="m144 200s24 16 112 16 112-16 112-16z"/><path d="m128 72s16 32 16 72-16 72-16 72z"/><path d="m128 72s40 16 128 16 128-16 128-16z"/></g><path d="m208 232s16 8 48 8 48-8 48-8z" fill="#525479"/><path d="m504 240s-64 16-248 16-248-16-248-16z" fill="#cbccd6"/><path d="m176 264s32 16 80 16 80-16 80-16z" fill="#2e305e"/><path d="m176 328s32 16 80 16 80-16 80-16z" fill="#2e305e"/><path d="m8 240s16 48 16 88-16 80-16 80z" fill="#cbccd6"/><path d="m336 384s32 16 72 16 72-16 72-16z" fill="#7c7d98"/><path d="m32 384s32 16 72 16 72-16 72-16z" fill="#7c7d98"/></g></svg>