<svg height="512" viewBox="0 0 512 512" width="512" xmlns="http://www.w3.org/2000/svg"><g id="Wall_Lamp" data-name="Wall Lamp"><path d="m296 448-.0028-.00278a24 24 0 0 0 24 24.00278 24 24 0 0 0 24-23.99719l.0028-.00281v-16h-48z" fill="#0c2b69"/><g fill="#284881"><path d="m318.74414 471.87354c-2.25146-.37647-6.74414-1.87793-6.74414-7.87354v-24h-16v8.02637a23.9375 23.9375 0 0 0 22.74414 23.84717z"/><path d="m320 40q-24.01405 0-24 48h48q0-48-24-48z"/><path d="m312 80h16v24h-16z"/><path d="m344 112v8h-48v-8a16 16 0 0 1 16-16h16a16 16 0 0 1 16 16z"/><path d="m408 168c-16 0-32-40-32-40s-8-16-24-16h-64c-16 0-24 16-24 16s-16 40-32 40h-32v16h240v-16z"/></g><path d="m344 128s16 40 32 40h32c-16 0-32-40-32-40s-8-16-24-16h-32c16 0 24 16 24 16z" fill="#0c2b69"/><path d="m264 128s-16 40-32 40h32c16 0 32-40 32-40s8-16 24-16h-32c-16 0-24 16-24 16z" fill="#7a93bb"/><path d="m264 168h112v16h-112z" fill="#4e6a9b"/><path d="m200 168h64v16h-64z" fill="#95adcf"/><path d="m368 184h-48-48-56l32 176h40 32 32 40l32-176z" fill="#7a93bb"/><path d="m216 184s24 32 32 88 0 88 0 88z" fill="#95adcf"/><path d="m245.091 344h26.909l-16-144h-37.091z" fill="#9fa0b3"/><path d="m264.8 279.2-26.646 26.646 6.937 38.154h2.909l21.6-21.6z" fill="#cbccd6"/><path d="m272 184 16 176h64l16-176z" fill="#284881"/><path d="m424 184-32 176h-40l16-176z" fill="#0c2b69"/><path d="m272 184 96 16v-16z" fill="#0c2b69"/><path d="m394.909 344 26.182-144h-37.091l-16 144z" fill="#525479"/><path d="m384 200s8 32 8 64c0 48-24 80-24 80z" fill="#2e305e"/><path d="m280 360h80a0 0 0 0 1 0 0v64a16 16 0 0 1 -16 16h-48a16 16 0 0 1 -16-16v-64a0 0 0 0 1 0 0z" fill="#284881"/><path d="m264 360s0 16 16 16h80s16 0 16-16z" fill="#0c2b69"/><path d="m264 360s0 16 16 16h48s16 0 16-16z" fill="#284881"/><path d="m280 376c-16 0-16-16-16-16h16s0 16 16 16z" fill="#4e6a9b"/><path d="m272 392c-58.97092 0-105.80827-20.86324-128-32a73.20126 73.20126 0 0 0 -32-8v104a73.20133 73.20133 0 0 0 32-8c22.19172-11.13677 69.029-32 128-32h16v-24z" fill="#4e6a9b"/><path d="m144 376a73.20006 73.20006 0 0 0 -32-8v88a73.20006 73.20006 0 0 0 32-8c22.19189-11.13672 69.02881-32 128-32h16v-8h-16c-58.9707 0-105.80811-20.86328-128-32z" fill="#284881"/><path d="m96 336h-24v136h24c16.01123 0 16-16 16-16v-104c0-16-16-16-16-16z" fill="#284881"/><path d="m112 456s.01123 16-16 16h-24v-40h24c16.01123 0 16-16 16-16z" fill="#0c2b69"/><path d="m320 40q-24.01392 0-24 48h16s0-48 8-48z" fill="#95adcf"/><path d="m320 96h-8a15.99985 15.99985 0 0 0 -16 16h16c0-16 8-16 8-16z" fill="#4e6a9b"/><path d="m376 168h64v16h-64z" fill="#284881"/><path d="m296 424v-48h-16v48a16.00016 16.00016 0 0 0 16 16h16s-16 0-16-16z" fill="#4e6a9b"/><path d="m328 392v32c0 16-16 16-16 16h32a16.00016 16.00016 0 0 0 16-16v-48h-80z" fill="#0c2b69"/><path d="m112 352s16 24 16 56-16 48-16 48z" fill="#0c2b69"/><path d="m250.40918 344c1.46875-14.72705 2.2749-39.21045-2.40918-72s-14.833-57.273-22.4585-72h-6.63232l13.09082 72 13.09082 72z" fill="#cbccd6"/><path d="m96 336h-24v24h24c16 0 16 16 16 16v-24c0-16-16-16-16-16z" fill="#4e6a9b"/><path d="m288 200 16 144h32l16-144z" fill="#7c7d98"/><path d="m341 299 7-63-50.4 50.4 5.6 50.4z" fill="#9fa0b3"/><path d="m352 200s-24 32-24 72a330.10008 330.10008 0 0 0 8 72z" fill="#9fa0b3"/><path d="m328 272a332.00081 332.00081 0 0 0 2.23584 37.76416l10.76416-10.76416 7-63-18.4624 18.4624a106.28927 106.28927 0 0 0 -1.5376 17.5376z" fill="#cbccd6"/></g></svg>