<svg height="512" viewBox="0 0 512 512" width="512" xmlns="http://www.w3.org/2000/svg"><path d="m104 456h304v24h-304z" fill="#7c7d98"/><path d="m136 480 24-24h-24z" fill="#525479"/><path d="m72 8h368v448h-368z" fill="#9fa0b3"/><path d="m104 424s32 16 72 16 64-16 64-16z" fill="#7c7d98"/><path d="m272 424s32 16 72 16 64-16 64-16z" fill="#7c7d98"/><path d="m72 8v448s16-120 16-224-16-224-16-224z" fill="#cbccd6"/><path d="m104 456h32v48h-32z" fill="#7c7d98"/><path d="m104 40h136v384h-136z" fill="#cbccd6"/><circle cx="216" cy="232" fill="#7c7d98" r="16"/><path d="m272 40h136v384h-136z" fill="#cbccd6"/><circle cx="312" cy="232" fill="#7c7d98" r="16"/><circle cx="208" cy="224" fill="#9fa0b3" r="16"/><circle cx="304" cy="224" fill="#9fa0b3" r="16"/><g fill="#7c7d98"><path d="m240 40s16 61.44 16 184.32-16 199.68-16 199.68z"/><path d="m408 40s16 61.44 16 184.32-16 199.68-16 199.68z"/><path d="m408 456v48h-32.008l.008-48z"/></g><path d="m88 8s53.05263 16 168 16 168-16 168-16z" fill="#cbccd6"/><path d="m376 463.99951-.00244.00049-.00537 40h16.00781v-24.00049s0-16-16-16z" fill="#9fa0b3"/><path d="m104 464-.00244.00049-.00537 39.99951h16.00781v-24s0-16-16-16z" fill="#cbccd6"/></svg>