<svg height="512" viewBox="0 0 512 512" width="512" xmlns="http://www.w3.org/2000/svg"><path d="m400 296h24v208h-24z" fill="#4e6a9b"/><path d="m152 8h208v200h-208z" fill="#4e6a9b"/><path d="m176 32h160v152h-160z" fill="#9fa0b3"/><path d="m176 120 88-88h72v72l-80 80h-80z" fill="#cbccd6"/><path d="m88 280h336v112h-336z" fill="#4e6a9b"/><path d="m72 280h368v16h-368z" fill="#9fa0b3"/><path d="m104 280h304s-64 16-152 16-152-16-152-16z" fill="#cbccd6"/><path d="m112 312h288v64h-288z" fill="#7a93bb"/><path d="m256 312s16 13.33333 16 32-16 32-16 32z" fill="#4e6a9b"/><path d="m112 312s16 13.33333 16 32-16 32-16 32z" fill="#95adcf"/><path d="m400 312s16 13.33333 16 32-16 32-16 32z" fill="#284881"/><path d="m88 296h24v208h-24z" fill="#4e6a9b"/><path d="m88 296s32 16 168 16 168-16 168-16" fill="#284881"/><path d="m104 448h304v16h-304z" fill="#4e6a9b"/><circle cx="184" cy="344" fill="#284881" r="8"/><circle cx="336" cy="344" fill="#284881" r="8"/><path d="m112 432h288v16h-288z" fill="#fcaa40"/><path d="m240 160v72.03288h32v-72.03288a16 16 0 0 0 -16-16 16 16 0 0 0 -16 16z" fill="#7c7d98"/><path d="m256 144a15.82692 15.82692 0 0 0 -7.81592 2.11914c3.93653 2.03076 7.81592 6.00586 7.81592 13.88086v8h-16l16 16v24h16v-48a15.99985 15.99985 0 0 0 -16-16z" fill="#525479"/><path d="m280 168h-48v-8s8-8 24-8 24 8 24 8z" fill="#9fa0b3"/><path d="m357.44966 280h-202.89932a16 16 0 0 1 -14.70632-9.69729l-18.77066-43.7982a13.27521 13.27521 0 0 1 -1.07336-5.22934 13.27516 13.27516 0 0 1 13.27516-13.27517h245.44968a13.27516 13.27516 0 0 1 13.27516 13.27516 13.27521 13.27521 0 0 1 -1.07336 5.22934l-18.77064 43.79821a16 16 0 0 1 -14.70634 9.69729z" fill="#9fa0b3"/><path d="m112 376s24 16 72 16 72-16 72-16z" fill="#284881"/><path d="m256 376s24 16 72 16 72-16 72-16z" fill="#284881"/><g fill="#f4791a"><path d="m136 432h16v16h-16z"/><path d="m184 432h16v16h-16z"/><path d="m232 432h16v16h-16z"/><path d="m280 432h16v16h-16z"/><path d="m328 432h16v16h-16z"/><path d="m376 432h16v16h-16z"/></g><path d="m112 448s40 16 144 16 144-16 144-16z" fill="#284881"/><path d="m400 392s16 24 16 56-16 56-16 56z" fill="#7a93bb"/><path d="m112 448v16l16-16z" fill="#284881"/><path d="m88 296s16 32 16 104-16 104-16 104z" fill="#95adcf"/><path d="m336 48h-144v136h-16v-152h160z" fill="#525479"/><path d="m176 120v64h16v-80z" fill="#9fa0b3"/><path d="m264 32-16 16h88v-16z" fill="#9fa0b3"/><path d="m336 32s16 32 16 80-16 72-16 72z" fill="#7a93bb"/><path d="m152 8s16 42.10526 16 105.26316-16 94.73684-16 94.73684z" fill="#7a93bb"/><path d="m272 168h8v-8s-7.74316-7.6499-23.13184-7.94678c3.27247.26078 15.13184 2.146 15.13184 15.94678z" fill="#7c7d98"/><path d="m378.72461 208h-50.72461s16 0 16 16-16 56-16 56h29.44971a15.99958 15.99958 0 0 0 14.70605-9.69727l18.771-43.79834a13.2753 13.2753 0 0 0 -12.20215-18.50439z" fill="#7c7d98"/><path d="m133.27539 208h50.72461s-16 0-16 16 16 56 16 56h-29.44971a15.99958 15.99958 0 0 1 -14.706-9.69727l-18.771-43.79834a13.2753 13.2753 0 0 1 12.2021-18.50439z" fill="#cbccd6"/><path d="m136 208s24 16 120 16 120-16 120-16z" fill="#cbccd6"/><path d="m152 8s24 16 104 16 104-16 104-16z" fill="#95adcf"/></svg>