<svg height="512" viewBox="0 0 512 512" width="512" xmlns="http://www.w3.org/2000/svg"><path d="m255.99985 8h.0003a151.99985 151.99985 0 0 1 151.99985 151.99985v344.00015a0 0 0 0 1 0 0h-304a0 0 0 0 1 0 0v-344.00015a151.99985 151.99985 0 0 1 151.99985-151.99985z" fill="#f4791a"/><path d="m256 8a151.99991 151.99991 0 0 0 -152 151.99951v344.00049h16v-344.00049c0-83.94678 64-151.99951 136-151.99951z" fill="#ffc263"/><path d="m256 8a151.99991 151.99991 0 0 0 -152 151.99951v48.00049h304v-48.00049a151.99991 151.99991 0 0 0 -152-151.99951z" fill="#fcaa40"/><path d="m256 48c88 0 128 56 128 112v272h-128z" fill="#fcaa40"/><path d="m256 48v160h128v-48c0-56-40-112-128-112z" fill="#ffc263"/><path d="m120 159.99951c0-83.94678 64-151.99951 136-151.99951a151.99991 151.99991 0 0 0 -152 151.99951v48.00049h16z" fill="#ffc263"/><path d="m144 432v-272a112 112 0 0 1 224 0v272z" fill="#9fa0b3"/><path d="m144 424 224-224v-40a111.6142 111.6142 0 0 0 -37.03125-82.96875l-186.96875 186.96875z" fill="#cbccd6"/><path d="m368 176h-208v-16c0-61.75781 40-112 96-112a112.12582 112.12582 0 0 0 -112 112v272h16v-240h104v240h16v-240h88z" fill="#525479"/><path d="m368 176h-88-16-32l-16 16h48v112l16-16v-96h88z" fill="#9fa0b3"/><path d="m160 248-16 16v160l16-16z" fill="#9fa0b3"/><path d="m408 504h-304c0-32-32-32-32-32v-16h368v16s-32 0-32 32z" fill="#fcaa40"/><path d="m144 208h-40c0-32-32-32-32-32v-16h72z" fill="#fcaa40"/><path d="m368 208h40c0-32 32-32 32-32v-16h-72z" fill="#fcaa40"/><path d="m144 432h224v24h-224z" fill="#f4791a"/><path d="m368 160h-48v-91.78174a111.89023 111.89023 0 0 0 -16-9.25781v101.03955h-40v-112h-16v112h-40v-101.03955a111.89023 111.89023 0 0 0 -16 9.25781v91.78174h-48v16h104v256h16v-256h104z" fill="#f4791a"/><path d="m224 52.7168a110.90989 110.90989 0 0 0 -16 6.24365v101.03955h16z" fill="#525479"/><path d="m280 50.65479a111.62671 111.62671 0 0 0 -16-2.24952v111.59473h16z" fill="#525479"/><path d="m280 128-16 16v16h16z" fill="#9fa0b3"/><path d="m320 68.21826v91.78174h16v-78.23438a112.77032 112.77032 0 0 0 -16-13.54736z" fill="#525479"/><path d="m331.75293 77.81592c-.272-.251-.5376-.5083-.8125-.75635l-10.94043 10.94043v72h16v-77.93652c-1.39893-1.4336-2.77441-2.88965-4.24707-4.24756z" fill="#9fa0b3"/><path d="m144 432s8 16 52 16 52-16 52-16z" fill="#fcaa40"/><path d="m264 432s8 16 52 16 52-16 52-16z" fill="#fcaa40"/><g fill="#f06000"><path d="m192 97.76562a112.77032 112.77032 0 0 1 16-13.54736v-25.25781a111.89023 111.89023 0 0 0 -16 9.25781z"/><path d="m304 68.7168a110.90989 110.90989 0 0 1 16 6.24365v-6.74219a111.89023 111.89023 0 0 0 -16-9.25781z"/><path d="m248 66.65479a111.62671 111.62671 0 0 1 16-2.24952v-16.40527h-16z"/><path d="m144 160h16v16h-16z"/></g><path d="m96 176s16 16 48 16v-16z" fill="#f88f19"/><path d="m416 176s-16 16-48 16v-16z" fill="#f88f19"/><path d="m96 472s24 16 160 16 168-16 168-16z" fill="#f88f19"/><path d="m104 208s0 16 20 16 20-16 20-16z" fill="#f06000"/><path d="m368 208s0 16 20 16 20-16 20-16z" fill="#f06000"/><path d="m72 160h72v16h-72z" fill="#ffc263"/><path d="m368 160h72v16h-72z" fill="#ffc263"/><path d="m72 456h368v16h-368z" fill="#ffc263"/></svg>