<svg height="512" viewBox="0 0 512 512" width="512" xmlns="http://www.w3.org/2000/svg"><g id="Writing_Desk" data-name="Writing Desk"><path d="m24 96.01416v343.98584h24l14.72922-217.37191a16 16 0 0 1 15.93985-14.61393h354.66186a16 16 0 0 1 15.93985 14.61393l14.72922 217.37191h24v-343.98584z" fill="#7c7d98"/><path d="m24 96.01416s96 16 232 16 232-16 232-16z" fill="#7c7d98"/><path d="m8 72h496v24.014h-496z" fill="#9fa0b3"/><path d="m264 120.014h176v64.014h-176z" fill="#2e305e"/><path d="m72 120.014h176v64.014h-176z" fill="#9fa0b3"/><circle cx="172" cy="164" fill="#7c7d98" r="16"/><path d="m24 440 16-343.986h-16z" fill="#9fa0b3"/><path d="m440 120.01416s16 16.01416 16 32.01416-16 31.99442-16 31.99442z" fill="#9fa0b3"/><path d="m248 120.01416s16 16.01416 16 32.01416-16 31.99442-16 31.99442z" fill="#525479"/><path d="m8 72s72 16 256 16 240-16 240-16z" fill="#cbccd6"/><path d="m439.55078 209.30176a15.97975 15.97975 0 0 1 9.72022 13.32617l14.729 217.37207-7.17285-208a24.761 24.761 0 0 0 -17.27637-22.69824z" fill="#9fa0b3"/><path d="m72 209.30176a15.97976 15.97976 0 0 0 -9.72021 13.32617l-14.72901 217.37207 7.17285-208a24.761 24.761 0 0 1 17.27637-22.69824z" fill="#2e305e"/><circle cx="160" cy="152" fill="#cbccd6" r="16"/><g fill="#525479"><path d="m24 96.01416s72 15.98584 240 15.98584 224-16 224-16z"/><path d="m72 184.02832s40 15.97168 88 15.97168 88-15.97726 88-15.97726z"/></g></g></svg>